<svg version="1.1" id="Layer_1" xmlns="http://www.w3.org/2000/svg" xmlns:xlink="http://www.w3.org/1999/xlink" x="0px" y="0px"
	 width="100%" viewBox="0 0 607 864" enable-background="new 0 0 607 864" xml:space="preserve">
<path fill="#000000" opacity="1.000000" stroke="none" 
	d="
M608.000000,864.000000 
	C607.833679,864.333313 607.684753,864.943787 607.498230,864.955505 
	C606.171082,865.038940 604.836243,865.000000 603.503845,865.000000 
	C404.310059,865.000000 205.116287,865.000000 5.120703,864.767334 
	C11.557487,854.290222 18.793438,844.043884 26.035233,833.801758 
	C39.200069,815.182617 52.441696,796.617249 65.518364,777.936401 
	C86.243484,748.329224 106.775742,718.586853 127.544533,689.010498 
	C148.510590,659.153137 169.703232,629.455017 190.724884,599.636658 
	C206.484802,577.281677 222.122498,554.840576 237.856552,532.467346 
	C238.536743,531.500183 239.640457,530.126465 240.541626,530.130432 
	C247.809540,530.162354 255.076218,530.479431 262.565216,530.993286 
	C265.093292,536.292725 267.410583,541.303162 269.703674,546.324524 
	C280.559662,570.096802 291.386810,593.882446 302.320129,617.619080 
	C302.928833,618.940613 304.395752,619.866943 305.463196,620.977173 
	C306.541534,619.887390 308.033356,618.986694 308.631927,617.677490 
	C312.880096,608.386963 316.884552,598.985291 321.081665,589.670837 
	C329.682587,570.583069 338.337189,551.519348 347.050842,532.482849 
	C347.507050,531.486145 348.720734,530.128357 349.575653,530.132751 
	C357.165649,530.171753 364.754303,530.480347 372.552917,530.974976 
	C374.289429,533.396851 375.816376,535.553101 377.552063,537.973755 
	C379.256439,540.361450 380.752075,542.484924 382.467224,544.884888 
	C384.873718,548.310364 387.060730,551.459351 389.463226,554.879395 
	C391.249603,557.283691 392.820496,559.416870 394.424255,561.547974 
	C394.457123,561.545837 394.453003,561.611633 394.614441,561.918518 
	C396.964996,565.386719 399.154175,568.548096 401.552307,571.974121 
	C403.304657,574.342529 404.847992,576.446289 406.424255,578.547974 
	C406.457123,578.545837 406.453003,578.611633 406.614441,578.918518 
	C408.965027,582.386719 411.154175,585.548096 413.552063,588.973755 
	C415.256439,591.361450 416.752075,593.484924 418.467316,595.884949 
	C420.905731,599.344177 423.124542,602.526794 425.552063,605.973755 
	C427.256439,608.361450 428.752075,610.484924 430.467316,612.884949 
	C432.905731,616.344177 435.124512,619.526794 437.552063,622.973755 
	C439.256439,625.361450 440.752075,627.484924 442.467316,629.884949 
	C444.905731,633.344177 447.124512,636.526794 449.552063,639.973755 
	C451.256439,642.361450 452.752075,644.484924 454.467194,646.884827 
	C456.921570,650.290894 459.156464,653.420471 461.424255,656.547974 
	C461.457123,656.545837 461.453003,656.611633 461.610901,656.912903 
	C463.309662,659.326111 464.850494,661.438110 466.424255,663.547974 
	C466.457123,663.545837 466.453003,663.611633 466.614319,663.918396 
	C468.980896,667.333435 471.186127,670.441772 473.424255,673.547974 
	C473.457123,673.545837 473.453003,673.611633 473.611511,673.913818 
	C475.294464,676.380493 476.818878,678.544922 478.555817,680.979492 
	C480.975983,684.349670 483.183655,687.449890 485.424255,690.547974 
	C485.457123,690.545837 485.453003,690.611633 485.614441,690.918518 
	C487.964996,694.386719 490.154144,697.548096 492.552063,700.973755 
	C494.256439,703.361450 495.752075,705.484924 497.467224,707.884888 
	C499.873749,711.310364 502.060730,714.459351 504.463226,717.879395 
	C506.249603,720.283691 507.820465,722.416870 509.424255,724.547974 
	C509.457123,724.545837 509.453003,724.611633 509.614441,724.918518 
	C511.965088,728.386841 514.154358,731.548218 516.552307,734.973999 
	C518.256531,737.361633 519.752136,739.484924 521.467163,741.884766 
	C523.873718,745.310303 526.060669,748.459290 528.463135,751.879395 
	C530.249573,754.283691 531.820435,756.416931 533.424194,758.548035 
	C533.457031,758.545898 533.452881,758.611694 533.614258,758.918457 
	C535.980835,762.333496 538.186096,765.441833 540.424194,768.548035 
	C540.457031,768.545898 540.452881,768.611694 540.611450,768.913818 
	C542.294556,771.380554 543.819092,773.545105 545.556091,775.979736 
	C547.976135,779.349915 550.183716,782.450073 552.424194,785.548035 
	C552.457031,785.545898 552.452881,785.611694 552.611450,785.913818 
	C554.294556,788.380554 555.819092,790.545105 557.556091,792.979736 
	C559.928284,796.369324 562.087952,799.488770 564.463135,802.879395 
	C566.249512,805.283691 567.820435,807.416931 569.424194,809.548035 
	C569.457031,809.545898 569.452881,809.611694 569.614258,809.918457 
	C571.980896,813.333496 574.186096,816.441833 576.424194,819.548035 
	C576.457031,819.545898 576.452881,819.611694 576.610840,819.912964 
	C578.309631,822.326172 579.850464,824.438171 581.424194,826.548035 
	C581.457031,826.545898 581.452881,826.611694 581.614380,826.918579 
	C583.965088,830.386780 586.154358,833.548218 588.552307,836.973999 
	C590.256531,839.361633 591.752136,841.484924 593.467163,843.884766 
	C595.921570,847.290955 598.156433,850.420532 600.424194,853.548035 
	C600.457031,853.545898 600.452881,853.611694 600.611572,853.914185 
	C602.475281,856.491882 604.180298,858.767090 605.938721,861.369385 
	C606.661499,862.464355 607.330750,863.232178 608.000000,864.000000 
z"/>
<path fill="#000000" opacity="1.000000" stroke="none" 
	d="
M6.000000,1.000000 
	C205.025833,1.000000 404.051666,1.000000 603.532654,1.362486 
	C599.341064,8.395080 594.718811,15.082398 590.043030,21.732096 
	C575.153503,42.907310 560.203003,64.039726 545.352234,85.242065 
	C524.526672,114.974724 503.818237,144.789520 482.968872,174.505478 
	C463.794952,201.833466 444.483154,229.064697 425.267975,256.363831 
	C416.836945,268.341949 408.472595,280.367249 400.118317,292.399139 
	C389.352356,307.904327 378.626923,323.437653 367.539185,339.130707 
	C365.539886,340.201660 363.948334,341.694427 362.218018,341.877747 
	C358.476624,342.274200 354.651611,342.175049 350.887177,341.907562 
	C349.497742,341.808807 348.182465,340.666595 346.898010,339.631989 
	C340.985352,326.127808 334.984528,313.002502 329.036835,299.853210 
	C322.088837,284.492310 315.227783,269.091827 308.183411,253.775452 
	C307.657043,252.630981 305.962646,252.023697 304.457275,251.302322 
	C303.031128,253.610764 301.959015,255.783569 300.604187,258.084839 
	C300.269867,258.808838 300.218262,259.404358 300.009460,260.325562 
	C298.197113,264.086243 296.541992,267.521301 294.604156,271.084839 
	C294.269836,271.808838 294.218262,272.404358 294.009460,273.325562 
	C292.197113,277.086243 290.541992,280.521301 288.604126,284.084839 
	C288.269836,284.808838 288.218231,285.404358 288.009430,286.325562 
	C286.197113,290.086243 284.541992,293.521301 282.604156,297.084839 
	C282.269836,297.808838 282.218262,298.404358 282.009460,299.325562 
	C280.197113,303.086243 278.541992,306.521301 276.604156,310.084839 
	C276.269836,310.808838 276.218231,311.404358 276.009430,312.325562 
	C274.197083,316.086243 272.541962,319.521301 270.604126,323.084839 
	C270.269867,323.808838 270.218262,324.404358 270.009460,325.325562 
	C268.197113,329.086243 266.541992,332.521301 264.604156,336.084839 
	C264.269836,336.808838 264.218262,337.404358 263.993958,338.344757 
	C262.751801,341.254242 260.992432,342.379700 258.077087,342.060608 
	C255.449539,341.772949 252.724091,341.703949 250.116501,342.070221 
	C246.326385,342.602631 243.843933,341.159180 241.973099,337.641479 
	C241.438416,336.617981 241.111938,335.868073 240.648743,335.215088 
	C225.106628,313.304443 209.543015,291.409027 194.000397,269.498749 
	C174.406586,241.877563 154.773529,214.283951 135.264481,186.602966 
	C123.925102,170.513748 112.887665,154.211746 101.550728,138.120789 
	C82.986717,111.772125 64.296631,85.512260 45.645664,59.224926 
	C33.302456,41.827961 20.901917,24.471476 8.628301,7.025630 
	C7.393016,5.269783 6.859302,3.020361 6.000000,1.000000 
z"/>
<path fill="#000000" opacity="1.000000" stroke="none" 
	d="
M0.999993,857.000000 
	C1.000000,574.303955 1.000000,291.607941 1.231266,8.099247 
	C2.510242,8.217728 3.783858,8.988964 4.572646,10.103368 
	C24.595247,38.391415 44.527878,66.743164 64.558395,95.025589 
	C85.816360,125.041115 107.186646,154.977066 128.454620,184.985535 
	C142.945831,205.432190 157.337524,225.949341 171.787949,246.424942 
	C193.814957,277.636169 215.854263,308.838715 237.910400,340.476807 
	C236.319397,341.272461 234.709213,341.937561 233.092850,341.952881 
	C218.729309,342.089478 204.364670,342.111084 189.624847,342.103027 
	C188.695190,343.399109 187.376617,345.002838 187.719315,346.076141 
	C189.194122,350.694946 191.136444,355.166138 192.944885,359.676483 
	C203.012955,384.786652 213.091629,409.892517 223.095749,435.408112 
	C222.811310,437.260681 222.866913,438.812012 222.341843,440.132477 
	C217.916077,451.262909 213.376740,462.348114 208.885803,473.452698 
	C202.213348,489.951447 195.552567,506.454956 188.560364,523.147339 
	C186.469467,529.996155 186.469482,529.987732 193.554871,530.001831 
	C206.683960,530.027954 219.813004,530.064880 232.956146,530.069092 
	C232.970200,530.040894 232.913177,530.067993 232.831818,530.401367 
	C229.242874,535.625549 225.697235,540.489563 222.234085,545.411560 
	C204.914490,570.026794 187.583298,594.634033 170.319382,619.288391 
	C149.512955,649.001709 128.828949,678.800964 107.983170,708.486572 
	C87.128250,738.185242 66.115746,767.773071 45.217266,797.441162 
	C31.820053,816.460205 18.533709,835.557495 5.081383,854.537231 
	C4.239201,855.725464 2.383922,856.195679 0.999993,857.000000 
z"/>
<path fill="#000000" opacity="1.000000" stroke="none" 
	d="
M608.000000,9.000010 
	C608.000000,290.362701 608.000000,571.725403 607.767822,853.884155 
	C603.903931,849.878662 600.272278,845.077209 596.425049,840.029419 
	C594.498657,837.496094 592.787720,835.209106 590.935425,832.603149 
	C582.875549,821.149780 574.957031,810.015381 566.971741,798.651611 
	C566.718323,798.130859 566.452393,797.973877 566.055420,797.597168 
	C564.253845,794.626892 562.504089,792.010559 560.531677,789.135254 
	C556.231567,783.224854 552.154175,777.573486 547.935669,771.603394 
	C542.415161,763.619934 537.035828,755.955200 531.445312,748.022278 
	C528.846558,744.475037 526.458984,741.195923 523.936035,737.604370 
	C522.451843,735.326050 521.103088,733.360107 519.536926,731.119995 
	C515.431885,725.327393 511.544312,719.809021 507.445496,714.022461 
	C504.846680,710.475098 502.459045,707.195923 499.935974,703.604309 
	C498.451843,701.326050 497.103149,699.360107 495.536163,697.119080 
	C490.570862,690.203308 485.823822,683.562744 480.935730,676.603516 
	C473.077484,665.282532 465.360260,654.280273 457.423553,643.027527 
	C455.494965,640.492065 453.785858,638.207092 451.935852,635.603638 
	C449.553741,632.162354 447.312561,629.039551 444.934052,625.602112 
	C443.223389,623.165710 441.650085,621.043945 439.935944,618.603760 
	C437.744293,615.282837 435.693451,612.280273 433.421631,609.025635 
	C431.492706,606.489746 429.784760,604.205933 427.935852,601.603638 
	C425.553772,598.162354 423.312592,595.039551 420.934052,591.602112 
	C419.223389,589.165710 417.650085,587.043945 415.935455,584.603149 
	C412.114227,578.987549 408.434326,573.690918 404.536163,568.119080 
	C400.430817,562.326172 396.543762,556.808350 392.445465,551.022339 
	C390.037048,547.595337 387.839813,544.436462 385.423370,541.027466 
	C383.720917,538.649658 382.237671,536.521912 380.533447,534.114868 
	C379.727173,532.642273 379.141876,531.449097 378.430786,529.999329 
	C392.230042,529.999329 405.548706,529.991455 418.867371,530.004639 
	C422.265106,530.007996 423.947510,529.270325 422.159271,525.286804 
	C419.575195,519.530334 417.599457,513.504272 415.226898,507.648865 
	C405.550964,483.768738 395.822723,459.909821 386.435364,435.859619 
	C391.503174,423.792358 396.224762,411.898712 401.001343,400.027191 
	C407.961151,382.729553 415.004517,365.465393 421.916718,348.148804 
	C424.030182,342.854004 423.310760,342.007599 417.359253,342.003174 
	C403.873932,341.993195 390.388367,342.035034 376.903534,341.955811 
	C375.211639,341.945892 373.523315,341.333710 371.983276,340.686707 
	C379.432983,330.186310 386.772614,320.028046 394.023956,309.807129 
	C407.212921,291.216858 420.414246,272.634796 433.493042,253.967072 
	C454.316223,224.245667 474.965088,194.401947 495.832001,164.711395 
	C518.392883,132.610641 541.147095,100.645851 563.763062,68.583733 
	C577.178223,49.565437 590.459717,30.452755 603.917480,11.464902 
	C604.760132,10.275985 606.615723,9.805016 608.000000,9.000010 
z"/>
<path fill="#00A2E8" opacity="1.000000" stroke="none" 
	d="
M0.999993,857.494751 
	C2.383922,856.195679 4.239201,855.725464 5.081383,854.537231 
	C18.533709,835.557495 31.820053,816.460205 45.217266,797.441162 
	C66.115746,767.773071 87.128250,738.185242 107.983170,708.486572 
	C128.828949,678.800964 149.512955,649.001709 170.319382,619.288391 
	C187.583298,594.634033 204.914490,570.026794 222.234085,545.411560 
	C225.697235,540.489563 229.242874,535.625549 233.159454,530.253113 
	C235.706558,528.518311 237.767868,526.377075 239.997665,526.184265 
	C245.882324,525.675415 251.840836,526.067078 257.768433,525.987671 
	C260.661896,525.948975 262.531433,526.997986 262.835144,530.176697 
	C262.670258,530.353394 262.343262,530.709351 262.343262,530.709351 
	C255.076218,530.479431 247.809540,530.162354 240.541626,530.130432 
	C239.640457,530.126465 238.536743,531.500183 237.856552,532.467346 
	C222.122498,554.840576 206.484802,577.281677 190.724884,599.636658 
	C169.703232,629.455017 148.510590,659.153137 127.544533,689.010498 
	C106.775742,718.586853 86.243484,748.329224 65.518364,777.936401 
	C52.441696,796.617249 39.200069,815.182617 26.035233,833.801758 
	C18.793438,844.043884 11.557487,854.290222 4.659448,864.767334 
	C3.723421,865.000000 2.446841,865.000000 1.000000,865.000000 
	C1.000000,862.664368 1.000000,860.326965 0.999993,857.494751 
z"/>
<path fill="#00A2E8" opacity="1.000000" stroke="none" 
	d="
M237.888336,340.044952 
	C215.854263,308.838715 193.814957,277.636169 171.787949,246.424942 
	C157.337524,225.949341 142.945831,205.432190 128.454620,184.985535 
	C107.186646,154.977066 85.816360,125.041115 64.558395,95.025589 
	C44.527878,66.743164 24.595247,38.391415 4.572646,10.103368 
	C3.783858,8.988964 2.510242,8.217728 1.231266,7.643297 
	C1.000000,5.768101 1.000000,3.536201 1.000000,1.000000 
	C2.327698,1.000000 3.663887,1.000000 5.500038,1.000000 
	C6.859302,3.020361 7.393016,5.269783 8.628301,7.025630 
	C20.901917,24.471476 33.302456,41.827961 45.645664,59.224926 
	C64.296631,85.512260 82.986717,111.772125 101.550728,138.120789 
	C112.887665,154.211746 123.925102,170.513748 135.264481,186.602966 
	C154.773529,214.283951 174.406586,241.877563 194.000397,269.498749 
	C209.543015,291.409027 225.106628,313.304443 240.648743,335.215088 
	C241.111938,335.868073 241.438416,336.617981 241.643188,337.720154 
	C240.267944,338.760040 239.078140,339.402496 237.888336,340.044952 
z"/>
<path fill="#00A2E8" opacity="1.000000" stroke="none" 
	d="
M608.000000,8.505276 
	C606.615723,9.805016 604.760132,10.275985 603.917480,11.464902 
	C590.459717,30.452755 577.178223,49.565437 563.763062,68.583733 
	C541.147095,100.645851 518.392883,132.610641 495.832001,164.711395 
	C474.965088,194.401947 454.316223,224.245667 433.493042,253.967072 
	C420.414246,272.634796 407.212921,291.216858 394.023956,309.807129 
	C386.772614,320.028046 379.432983,330.186310 371.675598,340.604004 
	C370.106720,340.209717 368.995392,339.584290 367.884033,338.958862 
	C378.626923,323.437653 389.352356,307.904327 400.118317,292.399139 
	C408.472595,280.367249 416.836945,268.341949 425.267975,256.363831 
	C444.483154,229.064697 463.794952,201.833466 482.968872,174.505478 
	C503.818237,144.789520 524.526672,114.974724 545.352234,85.242065 
	C560.203003,64.039726 575.153503,42.907310 590.043030,21.732096 
	C594.718811,15.082398 599.341064,8.395080 603.993896,1.362486 
	C605.276611,1.000000 606.553162,1.000000 608.000000,1.000000 
	C608.000000,3.335620 608.000000,5.673077 608.000000,8.505276 
z"/>
<path fill="#00A2E8" opacity="1.000000" stroke="none" 
	d="
M596.640564,840.275757 
	C600.272278,845.077209 603.903931,849.878662 607.767822,854.340088 
	C608.000000,856.041687 608.000000,858.083313 607.647461,860.566895 
	C606.825073,861.019958 606.355225,861.031128 605.885315,861.042236 
	C604.180298,858.767090 602.475281,856.491882 600.871460,853.774536 
	C601.332703,853.005005 601.692627,852.677551 602.052612,852.350098 
	C601.893250,852.197144 601.733887,852.044128 601.574585,851.891174 
	C601.180176,852.444153 600.785706,852.997192 600.391296,853.550171 
	C598.156433,850.420532 595.921570,847.290955 593.656006,843.733643 
	C593.625244,843.305908 594.000000,843.000000 594.280945,842.897461 
	C595.041260,842.196594 595.520630,841.598267 596.160950,840.819641 
	C596.321899,840.639282 596.640564,840.275757 596.640564,840.275757 
z"/>
<path fill="#00A2E8" opacity="1.000000" stroke="none" 
	d="
M605.938721,861.369385 
	C606.355225,861.031128 606.825073,861.019958 607.647461,861.004395 
	C608.000000,861.750000 608.000000,862.500000 608.000000,863.625000 
	C607.330750,863.232178 606.661499,862.464355 605.938721,861.369385 
z"/>
<path fill="#00A2E8" opacity="1.000000" stroke="none" 
	d="
M372.343323,530.709412 
	C364.754303,530.480347 357.165649,530.171753 349.575653,530.132751 
	C348.720734,530.128357 347.507050,531.486145 347.050842,532.482849 
	C338.337189,551.519348 329.682587,570.583069 321.081665,589.670837 
	C316.884552,598.985291 312.880096,608.386963 308.631927,617.677490 
	C308.033356,618.986694 306.541534,619.887390 305.463196,620.977173 
	C304.395752,619.866943 302.928833,618.940613 302.320129,617.619080 
	C291.386810,593.882446 280.559662,570.096802 269.703674,546.324524 
	C267.410583,541.303162 265.093292,536.292725 262.565216,530.993286 
	C262.343262,530.709351 262.670258,530.353394 263.155212,530.299561 
	C264.531464,531.406677 265.679016,532.449524 266.275970,533.745911 
	C276.924622,556.872314 287.485748,580.039124 298.123230,603.170715 
	C299.889282,607.011108 301.925934,610.727051 304.396942,615.604736 
	C306.824219,610.470276 308.776703,606.520569 310.574982,602.501953 
	C315.855255,590.702209 321.039001,578.859192 326.327026,567.062927 
	C331.821045,554.807068 337.519012,542.640442 342.836975,530.309326 
	C344.088898,527.406433 345.646973,526.001038 348.695923,526.012268 
	C355.025269,526.035522 361.355469,526.069031 367.683838,525.985840 
	C370.593140,525.947632 372.527954,526.938110 372.835144,530.176758 
	C372.670288,530.353455 372.343323,530.709412 372.343323,530.709412 
z"/>
<path fill="#00A2E8" opacity="1.000000" stroke="none" 
	d="
M386.113739,436.043091 
	C395.822723,459.909821 405.550964,483.768738 415.226898,507.648865 
	C417.599457,513.504272 419.575195,519.530334 422.159271,525.286804 
	C423.947510,529.270325 422.265106,530.007996 418.867371,530.004639 
	C405.548706,529.991455 392.230042,529.999329 378.430786,529.999329 
	C379.141876,531.449097 379.727173,532.642273 380.344177,534.265503 
	C380.375916,534.695496 380.000000,535.000000 379.719055,535.102539 
	C378.958740,535.803406 378.479370,536.401733 377.835144,537.176758 
	C377.670288,537.353455 377.343323,537.709412 377.343323,537.709412 
	C375.816376,535.553101 374.289429,533.396851 372.552917,530.974976 
	C372.343323,530.709412 372.670288,530.353455 373.164062,530.047607 
	C376.019775,526.889465 378.906281,525.808105 382.732117,525.909241 
	C392.865387,526.176880 403.010468,526.023865 413.150696,525.989746 
	C419.100098,525.969727 419.545776,525.268311 417.258636,519.606262 
	C412.218201,507.128265 407.153900,494.659912 402.083801,482.193970 
	C396.200256,467.727936 390.291321,453.272247 384.419250,438.801575 
	C383.780975,437.228607 382.121094,434.849640 386.113739,436.043091 
z"/>
<path fill="#00A2E8" opacity="1.000000" stroke="none" 
	d="
M567.038452,798.880981 
	C574.957031,810.015381 582.875549,821.149780 590.880615,832.666077 
	C590.967102,833.047974 590.857727,833.174133 590.570557,833.270264 
	C589.855530,834.244263 589.427734,835.122131 588.835205,836.176758 
	C588.670410,836.353516 588.343628,836.709656 588.343628,836.709656 
	C586.154358,833.548218 583.965088,830.386780 581.874268,826.778931 
	C582.332764,826.005066 582.692688,825.677612 583.052673,825.350159 
	C582.893250,825.197144 582.733887,825.044128 582.574524,824.891113 
	C582.180115,825.444153 581.785706,825.997131 581.391296,826.550171 
	C579.850464,824.438171 578.309631,822.326172 576.870728,819.773315 
	C577.332764,819.005066 577.692688,818.677612 578.052612,818.350159 
	C577.893250,818.197144 577.733887,818.044128 577.574585,817.891174 
	C577.180115,818.444153 576.785706,818.997192 576.391296,819.550171 
	C574.186096,816.441833 571.980896,813.333496 569.874146,809.778809 
	C570.332703,809.005005 570.692627,808.677551 571.052612,808.350098 
	C570.893250,808.197144 570.733887,808.044128 570.574524,807.891113 
	C570.180115,808.444153 569.785706,808.997131 569.391296,809.550171 
	C567.820435,807.416931 566.249512,805.283691 564.651978,802.728149 
	C564.625244,802.305908 565.000000,802.000000 565.304321,801.865051 
	C566.085266,800.780396 566.561890,799.830688 567.038452,798.880981 
z"/>
<path fill="#00A2E8" opacity="1.000000" stroke="none" 
	d="
M457.643066,643.278015 
	C465.360260,654.280273 473.077484,665.282532 480.880859,676.666382 
	C480.967041,677.047974 480.857513,677.174133 480.570374,677.270264 
	C479.855469,678.244324 479.427734,679.122131 478.835144,680.176758 
	C478.670288,680.353455 478.343323,680.709412 478.343323,680.709412 
	C476.818878,678.544922 475.294464,676.380493 473.871399,673.774231 
	C474.332764,673.005005 474.692688,672.677551 475.052612,672.350159 
	C474.893250,672.197144 474.733887,672.044128 474.574524,671.891174 
	C474.180145,672.444092 473.785736,672.997070 473.391357,673.550049 
	C471.186127,670.441772 468.980896,667.333435 466.874268,663.778809 
	C467.332794,663.005066 467.692719,662.677612 468.052643,662.350159 
	C467.893280,662.197144 467.733917,662.044189 467.574554,661.891174 
	C467.180176,662.444153 466.785767,662.997070 466.391357,663.550049 
	C464.850494,661.438110 463.309662,659.326111 461.870819,656.773315 
	C462.332764,656.005005 462.692688,655.677551 463.052612,655.350159 
	C462.893250,655.197144 462.733856,655.044128 462.574493,654.891113 
	C462.180115,655.444092 461.785706,655.997070 461.391357,656.550049 
	C459.156464,653.420471 456.921570,650.290894 454.655945,646.733643 
	C454.625244,646.305969 455.000000,646.000000 455.280945,645.897461 
	C456.041290,645.196594 456.520630,644.598267 457.161560,643.820190 
	C457.323090,643.640442 457.643036,643.278015 457.643066,643.278015 
z"/>
<path fill="#00A2E8" opacity="1.000000" stroke="none" 
	d="
M531.656433,748.290405 
	C537.035828,755.955200 542.415161,763.619934 547.880859,771.666382 
	C547.967102,772.047974 547.857727,772.174133 547.570557,772.270264 
	C546.855591,773.244263 546.427795,774.122131 545.835205,775.176758 
	C545.670410,775.353516 545.343628,775.709656 545.343628,775.709656 
	C543.819092,773.545105 542.294556,771.380554 540.871460,768.774292 
	C541.332764,768.005127 541.692749,767.677673 542.052673,767.350220 
	C541.893311,767.197205 541.733887,767.044128 541.574524,766.891113 
	C541.180115,767.444153 540.785706,767.997131 540.391296,768.550171 
	C538.186096,765.441833 535.980835,762.333496 533.874207,758.778809 
	C534.332703,758.005066 534.692688,757.677612 535.052612,757.350098 
	C534.893250,757.197144 534.733887,757.044128 534.574524,756.891113 
	C534.180115,757.444153 533.785706,757.997131 533.391296,758.550171 
	C531.820435,756.416931 530.249573,754.283691 528.651978,751.728149 
	C528.625244,751.305908 529.000000,751.000000 529.280945,750.897461 
	C530.041260,750.196594 530.520630,749.598267 531.164795,748.823242 
	C531.329651,748.646545 531.656433,748.290405 531.656433,748.290405 
z"/>
<path fill="#00A2E8" opacity="1.000000" stroke="none" 
	d="
M481.021912,676.985046 
	C485.823822,683.562744 490.570862,690.203308 495.346893,697.269714 
	C495.375916,697.695496 495.000000,698.000000 494.719055,698.102539 
	C493.958710,698.803406 493.479370,699.401733 492.835144,700.176758 
	C492.670288,700.353455 492.343323,700.709412 492.343323,700.709412 
	C490.154144,697.548096 487.964996,694.386719 485.874329,690.778931 
	C486.332733,690.005005 486.692688,689.677551 487.052612,689.350098 
	C486.893250,689.197144 486.733917,689.044128 486.574554,688.891174 
	C486.180176,689.444153 485.785767,689.997070 485.391357,690.550049 
	C483.183655,687.449890 480.975983,684.349670 478.555817,680.979492 
	C478.343323,680.709412 478.670288,680.353455 479.124329,680.059814 
	C480.004730,678.902161 480.431152,678.038147 480.857544,677.174133 
	C480.857513,677.174133 480.967041,677.047974 481.021912,676.985046 
z"/>
<path fill="#00A2E8" opacity="1.000000" stroke="none" 
	d="
M392.656677,551.290588 
	C396.543762,556.808350 400.430817,562.326172 404.346893,568.269714 
	C404.375916,568.695496 404.000000,569.000000 403.719025,569.102539 
	C402.958679,569.803406 402.479340,570.401672 401.835144,571.176758 
	C401.670288,571.353455 401.343323,571.709412 401.343323,571.709412 
	C399.154175,568.548096 396.964996,565.386719 394.874329,561.778931 
	C395.332764,561.005005 395.692688,560.677612 396.052643,560.350159 
	C395.893250,560.197144 395.733856,560.044128 395.574493,559.891113 
	C395.180115,560.444092 394.785706,560.997070 394.391357,561.550049 
	C392.820496,559.416870 391.249603,557.283691 389.651978,554.728271 
	C389.625244,554.305969 390.000000,554.000000 390.280945,553.897461 
	C391.041260,553.196533 391.520630,552.598267 392.164856,551.823242 
	C392.329712,551.646545 392.656677,551.290588 392.656677,551.290588 
z"/>
<path fill="#00A2E8" opacity="1.000000" stroke="none" 
	d="
M507.656677,714.290588 
	C511.544312,719.809021 515.431885,725.327393 519.347717,731.270630 
	C519.375916,731.695496 519.000000,732.000000 518.719055,732.102539 
	C517.958740,732.803406 517.479370,733.401733 516.835205,734.176758 
	C516.670410,734.353516 516.343628,734.709656 516.343628,734.709656 
	C514.154358,731.548218 511.965088,728.386841 509.874329,724.778931 
	C510.332764,724.005005 510.692688,723.677551 511.052612,723.350159 
	C510.893250,723.197144 510.733887,723.044128 510.574524,722.891174 
	C510.180145,723.444092 509.785736,723.997070 509.391357,724.550049 
	C507.820465,722.416870 506.249603,720.283691 504.651978,717.728271 
	C504.625244,717.305969 505.000000,717.000000 505.280975,716.897461 
	C506.041290,716.196594 506.520660,715.598328 507.164856,714.823242 
	C507.329712,714.646545 507.656677,714.290588 507.656677,714.290588 
z"/>
<path fill="#00A2E8" opacity="1.000000" stroke="none" 
	d="
M404.565186,568.544861 
	C408.434326,573.690918 412.114227,578.987549 415.880585,584.666138 
	C415.967041,585.047974 415.857513,585.174133 415.570374,585.270264 
	C414.855469,586.244324 414.427734,587.122131 413.835144,588.176758 
	C413.670288,588.353455 413.343323,588.709412 413.343323,588.709412 
	C411.154175,585.548096 408.965027,582.386719 406.874329,578.778931 
	C407.332733,578.005005 407.692657,577.677551 408.052612,577.350098 
	C407.893250,577.197144 407.733887,577.044128 407.574554,576.891174 
	C407.180145,577.444153 406.785767,577.997070 406.391357,578.550049 
	C404.847992,576.446289 403.304657,574.342529 401.552307,571.974121 
	C401.343323,571.709412 401.670288,571.353455 402.116089,571.074158 
	C403.041290,570.196594 403.520630,569.598267 404.000000,569.000000 
	C404.000000,569.000000 404.375916,568.695496 404.565186,568.544861 
z"/>
<path fill="#00A2E8" opacity="1.000000" stroke="none" 
	d="
M548.021912,771.984985 
	C552.154175,777.573486 556.231567,783.224854 560.342468,789.285889 
	C560.375916,789.695496 560.000000,790.000000 559.719055,790.102539 
	C558.958740,790.803406 558.479370,791.401733 557.835205,792.176758 
	C557.670410,792.353516 557.343628,792.709656 557.343628,792.709656 
	C555.819092,790.545105 554.294556,788.380554 552.871338,785.774231 
	C553.332703,785.005005 553.692627,784.677551 554.052612,784.350098 
	C553.893250,784.197144 553.733887,784.044128 553.574585,783.891174 
	C553.180176,784.444153 552.785767,784.997192 552.391357,785.550171 
	C550.183716,782.450073 547.976135,779.349915 545.556091,775.979736 
	C545.343628,775.709656 545.670410,775.353516 546.124329,775.059814 
	C547.004761,773.902161 547.431213,773.038147 547.857727,772.174133 
	C547.857727,772.174133 547.967102,772.047974 548.021912,771.984985 
z"/>
<path fill="#00A2E8" opacity="1.000000" stroke="none" 
	d="
M500.071411,703.916687 
	C502.459045,707.195923 504.846680,710.475098 507.445496,714.022461 
	C507.656677,714.290588 507.329712,714.646545 506.883881,714.925842 
	C505.958710,715.803406 505.479340,716.401672 505.000000,717.000000 
	C505.000000,717.000000 504.625244,717.305969 504.436462,717.457153 
	C502.060730,714.459351 499.873749,711.310364 497.656006,707.733643 
	C497.625244,707.305969 498.000000,707.000000 498.289001,706.883179 
	C499.004578,705.902832 499.431152,705.039368 499.911072,704.111023 
	C499.964417,704.046143 500.071411,703.916687 500.071411,703.916687 
z"/>
<path fill="#00A2E8" opacity="1.000000" stroke="none" 
	d="
M524.071472,737.916748 
	C526.458984,741.195923 528.846558,744.475037 531.445312,748.022278 
	C531.656433,748.290405 531.329651,748.646545 530.883911,748.925842 
	C529.958740,749.803406 529.479370,750.401672 529.000000,751.000000 
	C529.000000,751.000000 528.625244,751.305908 528.436462,751.457092 
	C526.060669,748.459290 523.873718,745.310303 521.656006,741.733643 
	C521.625244,741.305908 522.000000,741.000000 522.289062,740.883179 
	C523.004578,739.902893 523.431091,739.039368 523.910950,738.111084 
	C523.964355,738.046204 524.071472,737.916748 524.071472,737.916748 
z"/>
<path fill="#00A2E8" opacity="1.000000" stroke="none" 
	d="
M385.642609,541.277649 
	C387.839813,544.436462 390.037048,547.595337 392.445465,551.022339 
	C392.656677,551.290588 392.329712,551.646545 391.883911,551.925842 
	C390.958710,552.803406 390.479340,553.401733 390.000000,554.000000 
	C390.000000,554.000000 389.625244,554.305969 389.436462,554.457153 
	C387.060730,551.459351 384.873718,548.310364 382.656006,544.733643 
	C382.625244,544.305969 383.000000,544.000000 383.280975,543.897461 
	C384.041321,543.196594 384.520660,542.598328 385.161438,541.820068 
	C385.322845,541.640198 385.642609,541.277649 385.642609,541.277649 
z"/>
<path fill="#00A2E8" opacity="1.000000" stroke="none" 
	d="
M445.071411,625.916687 
	C447.312561,629.039551 449.553741,632.162354 451.880981,635.666626 
	C451.967041,636.047974 451.857513,636.174133 451.570374,636.270264 
	C450.855499,637.244324 450.427765,638.122192 449.835144,639.176758 
	C449.670288,639.353455 449.343323,639.709412 449.343323,639.709412 
	C447.124512,636.526794 444.905731,633.344177 442.656067,629.733765 
	C442.625244,629.305969 443.000000,629.000000 443.289001,628.883179 
	C444.004608,627.902832 444.431152,627.039368 444.911072,626.111023 
	C444.964417,626.046143 445.071411,625.916687 445.071411,625.916687 
z"/>
<path fill="#00A2E8" opacity="1.000000" stroke="none" 
	d="
M421.071411,591.916687 
	C423.312592,595.039551 425.553772,598.162354 427.880981,601.666626 
	C427.967041,602.047974 427.857513,602.174133 427.570374,602.270264 
	C426.855499,603.244324 426.427765,604.122192 425.835144,605.176758 
	C425.670288,605.353455 425.343323,605.709412 425.343323,605.709412 
	C423.124542,602.526794 420.905731,599.344177 418.656067,595.733765 
	C418.625244,595.305969 419.000000,595.000000 419.289001,594.883179 
	C420.004608,593.902832 420.431152,593.039368 420.911072,592.111023 
	C420.964417,592.046143 421.071411,591.916687 421.071411,591.916687 
z"/>
<path fill="#00A2E8" opacity="1.000000" stroke="none" 
	d="
M433.642609,609.277649 
	C435.693451,612.280273 437.744293,615.282837 439.881073,618.666748 
	C439.967041,619.047974 439.857513,619.174133 439.570343,619.270264 
	C438.855438,620.244263 438.427704,621.122131 437.835144,622.176758 
	C437.670288,622.353455 437.343323,622.709412 437.343323,622.709412 
	C435.124512,619.526794 432.905731,616.344177 430.656067,612.733765 
	C430.625244,612.305969 431.000000,612.000000 431.280975,611.897461 
	C432.041321,611.196594 432.520691,610.598328 433.161438,609.820129 
	C433.322845,609.640198 433.642609,609.277649 433.642609,609.277649 
z"/>
<path fill="#00A2E8" opacity="1.000000" stroke="none" 
	d="
M560.565125,789.544800 
	C562.504089,792.010559 564.253845,794.626892 565.845520,797.885193 
	C565.458252,799.684753 565.229126,800.842407 565.000000,802.000000 
	C565.000000,802.000000 564.625244,802.305908 564.436462,802.457092 
	C562.087952,799.488770 559.928284,796.369324 557.556091,792.979736 
	C557.343628,792.709656 557.670410,792.353516 558.116150,792.074219 
	C559.041260,791.196594 559.520630,790.598267 560.000000,790.000000 
	C560.000000,790.000000 560.375916,789.695496 560.565125,789.544800 
z"/>
<path fill="#00A2E8" opacity="1.000000" stroke="none" 
	d="
M428.021912,601.985046 
	C429.784760,604.205933 431.492706,606.489746 433.421631,609.025635 
	C433.642609,609.277649 433.322845,609.640198 432.880463,609.922668 
	C431.958740,610.803406 431.479370,611.401733 431.000000,612.000000 
	C431.000000,612.000000 430.625244,612.305969 430.436462,612.457153 
	C428.752075,610.484924 427.256439,608.361450 425.552063,605.973755 
	C425.343323,605.709412 425.670288,605.353455 426.124268,605.059814 
	C427.004700,603.902161 427.431122,603.038147 427.857513,602.174133 
	C427.857513,602.174133 427.967041,602.047974 428.021912,601.985046 
z"/>
<path fill="#00A2E8" opacity="1.000000" stroke="none" 
	d="
M380.565186,534.544861 
	C382.237671,536.521912 383.720917,538.649658 385.423370,541.027466 
	C385.642609,541.277649 385.322845,541.640198 384.880463,541.922668 
	C383.958710,542.803406 383.479370,543.401733 383.000000,544.000000 
	C383.000000,544.000000 382.625244,544.305969 382.436462,544.457153 
	C380.752075,542.484924 379.256439,540.361450 377.552063,537.973755 
	C377.343323,537.709412 377.670288,537.353455 378.116089,537.074158 
	C379.041290,536.196594 379.520630,535.598267 380.000000,535.000000 
	C380.000000,535.000000 380.375916,534.695496 380.565186,534.544861 
z"/>
<path fill="#00A2E8" opacity="1.000000" stroke="none" 
	d="
M416.021912,584.985046 
	C417.650085,587.043945 419.223389,589.165710 420.934052,591.602112 
	C421.071411,591.916687 420.964417,592.046143 420.624512,592.205688 
	C419.856415,593.243408 419.428192,594.121704 419.000000,595.000000 
	C419.000000,595.000000 418.625244,595.305969 418.436462,595.457153 
	C416.752075,593.484924 415.256439,591.361450 413.552063,588.973755 
	C413.343323,588.709412 413.670288,588.353455 414.124268,588.059814 
	C415.004700,586.902161 415.431091,586.038147 415.857513,585.174133 
	C415.857513,585.174133 415.967041,585.047974 416.021912,584.985046 
z"/>
<path fill="#00A2E8" opacity="1.000000" stroke="none" 
	d="
M452.021912,635.985046 
	C453.785858,638.207092 455.494965,640.492065 457.423523,643.027527 
	C457.643036,643.278015 457.323090,643.640442 456.880585,643.922791 
	C455.958740,644.803406 455.479370,645.401733 455.000000,646.000000 
	C455.000000,646.000000 454.625244,646.305969 454.436462,646.457153 
	C452.752075,644.484924 451.256439,642.361450 449.552063,639.973755 
	C449.343323,639.709412 449.670288,639.353455 450.124268,639.059814 
	C451.004669,637.902161 451.431091,637.038147 451.857483,636.174133 
	C451.857513,636.174133 451.967041,636.047974 452.021912,635.985046 
z"/>
<path fill="#00A2E8" opacity="1.000000" stroke="none" 
	d="
M440.021912,618.985046 
	C441.650085,621.043945 443.223389,623.165710 444.934052,625.602112 
	C445.071411,625.916687 444.964417,626.046143 444.624512,626.205688 
	C443.856415,627.243469 443.428192,628.121704 443.000000,629.000000 
	C443.000000,629.000000 442.625244,629.305969 442.436462,629.457153 
	C440.752075,627.484924 439.256439,625.361450 437.552063,622.973755 
	C437.343323,622.709412 437.670288,622.353455 438.124268,622.059814 
	C439.004669,620.902161 439.431061,620.038147 439.857483,619.174133 
	C439.857513,619.174133 439.967041,619.047974 440.021912,618.985046 
z"/>
<path fill="#00A2E8" opacity="1.000000" stroke="none" 
	d="
M519.565125,731.544800 
	C521.103088,733.360107 522.451843,735.326050 523.936035,737.604370 
	C524.071472,737.916748 523.964355,738.046204 523.624451,738.205750 
	C522.856384,739.243530 522.428162,740.121765 522.000000,741.000000 
	C522.000000,741.000000 521.625244,741.305908 521.436462,741.457092 
	C519.752136,739.484924 518.256531,737.361633 516.552307,734.973999 
	C516.343628,734.709656 516.670410,734.353516 517.116150,734.074219 
	C518.041260,733.196594 518.520630,732.598267 519.000000,732.000000 
	C519.000000,732.000000 519.375916,731.695496 519.565125,731.544800 
z"/>
<path fill="#00A2E8" opacity="1.000000" stroke="none" 
	d="
M495.565186,697.544861 
	C497.103149,699.360107 498.451843,701.326050 499.935974,703.604309 
	C500.071411,703.916687 499.964417,704.046143 499.624512,704.205688 
	C498.856415,705.243469 498.428223,706.121704 498.000000,707.000000 
	C498.000000,707.000000 497.625244,707.305969 497.436462,707.457153 
	C495.752075,705.484924 494.256439,703.361450 492.552063,700.973755 
	C492.343323,700.709412 492.670288,700.353455 493.116089,700.074158 
	C494.041260,699.196594 494.520630,698.598267 495.000000,698.000000 
	C495.000000,698.000000 495.375916,697.695496 495.565186,697.544861 
z"/>
<path fill="#00A2E8" opacity="1.000000" stroke="none" 
	d="
M591.021912,832.984985 
	C592.787720,835.209106 594.498657,837.496094 596.425049,840.029419 
	C596.640564,840.275757 596.321899,840.639282 595.880005,840.922241 
	C594.958740,841.803406 594.479370,842.401733 594.000000,843.000000 
	C594.000000,843.000000 593.625244,843.305908 593.436462,843.457092 
	C591.752136,841.484924 590.256531,839.361633 588.552307,836.973999 
	C588.343628,836.709656 588.670410,836.353516 589.124329,836.059814 
	C590.004761,834.902161 590.431213,834.038147 590.857727,833.174133 
	C590.857727,833.174133 590.967102,833.047974 591.021912,832.984985 
z"/>
<path fill="#00A2E8" opacity="1.000000" stroke="none" 
	d="
M386.435364,435.859619 
	C382.121094,434.849640 383.780975,437.228607 384.419250,438.801575 
	C390.291321,453.272247 396.200256,467.727936 402.083801,482.193970 
	C407.153900,494.659912 412.218201,507.128265 417.258636,519.606262 
	C419.545776,525.268311 419.100098,525.969727 413.150696,525.989746 
	C403.010468,526.023865 392.865387,526.176880 382.732117,525.909241 
	C378.906281,525.808105 376.019775,526.889465 373.328918,529.870850 
	C372.527954,526.938110 370.593140,525.947632 367.683838,525.985840 
	C361.355469,526.069031 355.025269,526.035522 348.695923,526.012268 
	C345.646973,526.001038 344.088898,527.406433 342.836975,530.309326 
	C337.519012,542.640442 331.821045,554.807068 326.327026,567.062927 
	C321.039001,578.859192 315.855255,590.702209 310.574982,602.501953 
	C308.776703,606.520569 306.824219,610.470276 304.396942,615.604736 
	C301.925934,610.727051 299.889282,607.011108 298.123230,603.170715 
	C287.485748,580.039124 276.924622,556.872314 266.275970,533.745911 
	C265.679016,532.449524 264.531464,531.406677 263.320099,530.122925 
	C262.531433,526.997986 260.661896,525.948975 257.768433,525.987671 
	C251.840836,526.067078 245.882324,525.675415 239.997665,526.184265 
	C237.767868,526.377075 235.706558,528.518311 233.240814,529.919678 
	C232.913177,530.067993 232.970200,530.040894 232.946732,529.663818 
	C232.822357,525.842407 230.306107,526.014404 227.958847,526.011108 
	C216.716965,525.995239 205.471786,526.135132 194.236420,525.863098 
	C192.430817,525.819336 190.668915,523.970703 188.886795,522.956421 
	C195.552567,506.454956 202.213348,489.951447 208.885803,473.452698 
	C213.376740,462.348114 217.916077,451.262909 222.341843,440.132477 
	C222.866913,438.812012 222.811310,437.260681 223.377899,435.260620 
	C223.533798,432.574127 223.825058,430.248901 223.065750,428.341919 
	C212.703156,402.316132 202.157425,376.363281 191.782669,350.342316 
	C190.763672,347.786499 190.574631,344.899780 190.000366,342.166656 
	C204.364670,342.111084 218.729309,342.089478 233.092850,341.952881 
	C234.709213,341.937561 236.319397,341.272461 237.910400,340.476807 
	C239.078140,339.402496 240.267944,338.760040 241.787659,338.038940 
	C243.843933,341.159180 246.326385,342.602631 250.116501,342.070221 
	C252.724091,341.703949 255.449539,341.772949 258.077087,342.060608 
	C260.992432,342.379700 262.751801,341.254242 264.216248,338.259369 
	C264.703094,337.204865 264.794983,336.580627 264.886841,335.956360 
	C266.541992,332.521301 268.197113,329.086243 270.231750,325.240173 
	C270.703125,324.204865 270.794983,323.580627 270.886841,322.956360 
	C272.541962,319.521301 274.197083,316.086243 276.231720,312.240173 
	C276.703094,311.204865 276.794983,310.580627 276.886871,309.956360 
	C278.541992,306.521301 280.197113,303.086243 282.231750,299.240173 
	C282.703125,298.204865 282.795013,297.580627 282.886871,296.956360 
	C284.541992,293.521301 286.197113,290.086243 288.231750,286.240173 
	C288.703094,285.204865 288.794983,284.580627 288.886871,283.956360 
	C290.541992,280.521301 292.197113,277.086243 294.231750,273.240173 
	C294.703125,272.204865 294.795013,271.580627 294.886871,270.956360 
	C296.541992,267.521301 298.197113,264.086243 300.231750,260.240173 
	C300.703125,259.204865 300.794983,258.580627 300.886902,257.956360 
	C301.959015,255.783569 303.031128,253.610764 304.598755,251.686691 
	C317.671661,279.948944 330.218811,307.976196 342.904663,335.940552 
	C343.637299,337.555511 345.497772,338.658813 346.833344,340.000275 
	C348.182465,340.666595 349.497742,341.808807 350.887177,341.907562 
	C354.651611,342.175049 358.476624,342.274200 362.218018,341.877747 
	C363.948334,341.694427 365.539886,340.201660 367.539185,339.130676 
	C368.995392,339.584290 370.106720,340.209717 371.525696,340.917847 
	C373.523315,341.333710 375.211639,341.945892 376.903534,341.955811 
	C390.388367,342.035034 403.873932,341.993195 417.359253,342.003174 
	C423.310760,342.007599 424.030182,342.854004 421.916718,348.148804 
	C415.004517,365.465393 407.961151,382.729553 401.001343,400.027191 
	C396.224762,411.898712 391.503174,423.792358 386.435364,435.859619 
z"/>
<path fill="#00A2E8" opacity="1.000000" stroke="none" 
	d="
M346.898010,339.631989 
	C345.497772,338.658813 343.637299,337.555511 342.904663,335.940552 
	C330.218811,307.976196 317.671661,279.948944 304.952728,251.551056 
	C305.962646,252.023697 307.657043,252.630981 308.183411,253.775452 
	C315.227783,269.091827 322.088837,284.492310 329.036835,299.853210 
	C334.984528,313.002502 340.985352,326.127808 346.898010,339.631989 
z"/>
<path fill="#00A2E8" opacity="1.000000" stroke="none" 
	d="
M294.604156,271.084839 
	C294.795013,271.580627 294.703125,272.204865 294.388947,272.914520 
	C294.218262,272.404358 294.269836,271.808838 294.604156,271.084839 
z"/>
<path fill="#00A2E8" opacity="1.000000" stroke="none" 
	d="
M288.604126,284.084839 
	C288.794983,284.580627 288.703094,285.204865 288.388916,285.914520 
	C288.218231,285.404358 288.269836,284.808838 288.604126,284.084839 
z"/>
<path fill="#00A2E8" opacity="1.000000" stroke="none" 
	d="
M300.604156,258.084839 
	C300.794983,258.580627 300.703125,259.204865 300.388947,259.914520 
	C300.218262,259.404358 300.269867,258.808838 300.604156,258.084839 
z"/>
<path fill="#00A2E8" opacity="1.000000" stroke="none" 
	d="
M264.604126,336.084839 
	C264.794983,336.580627 264.703094,337.204865 264.388916,337.914520 
	C264.218262,337.404358 264.269836,336.808838 264.604126,336.084839 
z"/>
<path fill="#00A2E8" opacity="1.000000" stroke="none" 
	d="
M282.604156,297.084839 
	C282.795013,297.580627 282.703125,298.204865 282.388947,298.914520 
	C282.218262,298.404358 282.269836,297.808838 282.604156,297.084839 
z"/>
<path fill="#00A2E8" opacity="1.000000" stroke="none" 
	d="
M270.604156,323.084839 
	C270.794983,323.580627 270.703125,324.204865 270.388947,324.914520 
	C270.218262,324.404358 270.269867,323.808838 270.604156,323.084839 
z"/>
<path fill="#00A2E8" opacity="1.000000" stroke="none" 
	d="
M276.604156,310.084839 
	C276.794983,310.580627 276.703094,311.204865 276.388947,311.914520 
	C276.218231,311.404358 276.269836,310.808838 276.604156,310.084839 
z"/>
<path fill="#00A2E8" opacity="1.000000" stroke="none" 
	d="
M189.624847,342.103027 
	C190.574631,344.899780 190.763672,347.786499 191.782669,350.342316 
	C202.157425,376.363281 212.703156,402.316132 223.065750,428.341919 
	C223.825058,430.248901 223.533798,432.574127 223.448792,434.852417 
	C213.091629,409.892517 203.012955,384.786652 192.944885,359.676483 
	C191.136444,355.166138 189.194122,350.694946 187.719315,346.076141 
	C187.376617,345.002838 188.695190,343.399109 189.624847,342.103027 
z"/>
<path fill="#00A2E8" opacity="1.000000" stroke="none" 
	d="
M188.560364,523.147339 
	C190.668915,523.970703 192.430817,525.819336 194.236420,525.863098 
	C205.471786,526.135132 216.716965,525.995239 227.958847,526.011108 
	C230.306107,526.014404 232.822357,525.842407 232.932678,529.692078 
	C219.813004,530.064880 206.683960,530.027954 193.554871,530.001831 
	C186.469482,529.987732 186.469467,529.996155 188.560364,523.147339 
z"/>
<path fill="#00A2E8" opacity="1.000000" stroke="none" 
	d="
M565.304321,801.865051 
	C565.229126,800.842407 565.458252,799.684753 565.897339,798.239136 
	C566.452393,797.973877 566.718323,798.130859 566.971802,798.651611 
	C566.561890,799.830688 566.085266,800.780396 565.304321,801.865051 
z"/>
<path fill="#00A2E8" opacity="1.000000" stroke="none" 
	d="
M594.280945,842.897461 
	C594.479370,842.401733 594.958740,841.803406 595.719055,841.102539 
	C595.520630,841.598267 595.041260,842.196594 594.280945,842.897461 
z"/>
<path fill="#00A2E8" opacity="1.000000" stroke="none" 
	d="
M600.424194,853.548035 
	C600.785706,852.997192 601.180176,852.444153 601.574585,851.891174 
	C601.733887,852.044128 601.893250,852.197144 602.052612,852.350098 
	C601.692627,852.677551 601.332703,853.005005 600.712769,853.472046 
	C600.452881,853.611694 600.457031,853.545898 600.424194,853.548035 
z"/>
<path fill="#00A2E8" opacity="1.000000" stroke="none" 
	d="
M379.719055,535.102539 
	C379.520630,535.598267 379.041290,536.196594 378.280945,536.897461 
	C378.479370,536.401733 378.958740,535.803406 379.719055,535.102539 
z"/>
<path fill="#00A2E8" opacity="1.000000" stroke="none" 
	d="
M590.570557,833.270264 
	C590.431213,834.038147 590.004761,834.902161 589.289124,835.883057 
	C589.427734,835.122131 589.855530,834.244263 590.570557,833.270264 
z"/>
<path fill="#00A2E8" opacity="1.000000" stroke="none" 
	d="
M569.424194,809.548035 
	C569.785706,808.997131 570.180115,808.444153 570.574524,807.891113 
	C570.733887,808.044128 570.893250,808.197144 571.052612,808.350098 
	C570.692627,808.677551 570.332703,809.005005 569.712769,809.472046 
	C569.452881,809.611694 569.457031,809.545898 569.424194,809.548035 
z"/>
<path fill="#00A2E8" opacity="1.000000" stroke="none" 
	d="
M576.424194,819.548035 
	C576.785706,818.997192 577.180115,818.444153 577.574585,817.891174 
	C577.733887,818.044128 577.893250,818.197144 578.052612,818.350159 
	C577.692688,818.677612 577.332764,819.005066 576.712830,819.472107 
	C576.452881,819.611694 576.457031,819.545898 576.424194,819.548035 
z"/>
<path fill="#00A2E8" opacity="1.000000" stroke="none" 
	d="
M581.424194,826.548035 
	C581.785706,825.997131 582.180115,825.444153 582.574524,824.891113 
	C582.733887,825.044128 582.893250,825.197144 583.052673,825.350159 
	C582.692688,825.677612 582.332764,826.005066 581.712830,826.472107 
	C581.452881,826.611694 581.457031,826.545898 581.424194,826.548035 
z"/>
<path fill="#00A2E8" opacity="1.000000" stroke="none" 
	d="
M480.570374,677.270264 
	C480.431152,678.038147 480.004730,678.902161 479.289185,679.883057 
	C479.427734,679.122131 479.855469,678.244324 480.570374,677.270264 
z"/>
<path fill="#00A2E8" opacity="1.000000" stroke="none" 
	d="
M455.280945,645.897461 
	C455.479370,645.401733 455.958740,644.803406 456.719055,644.102539 
	C456.520630,644.598267 456.041290,645.196594 455.280945,645.897461 
z"/>
<path fill="#00A2E8" opacity="1.000000" stroke="none" 
	d="
M461.424225,656.547974 
	C461.785706,655.997070 462.180115,655.444092 462.574493,654.891113 
	C462.733856,655.044128 462.893250,655.197144 463.052612,655.350159 
	C462.692688,655.677551 462.332764,656.005005 461.712921,656.472046 
	C461.453003,656.611633 461.457123,656.545837 461.424225,656.547974 
z"/>
<path fill="#00A2E8" opacity="1.000000" stroke="none" 
	d="
M466.424255,663.547974 
	C466.785767,662.997070 467.180176,662.444153 467.574554,661.891174 
	C467.733917,662.044189 467.893280,662.197144 468.052643,662.350159 
	C467.692719,662.677612 467.332794,663.005066 466.712952,663.472046 
	C466.453003,663.611633 466.457123,663.545837 466.424255,663.547974 
z"/>
<path fill="#00A2E8" opacity="1.000000" stroke="none" 
	d="
M473.424255,673.547974 
	C473.785736,672.997070 474.180145,672.444092 474.574524,671.891174 
	C474.733887,672.044128 474.893250,672.197144 475.052612,672.350159 
	C474.692688,672.677551 474.332764,673.005005 473.712891,673.472046 
	C473.453003,673.611633 473.457123,673.545837 473.424255,673.547974 
z"/>
<path fill="#00A2E8" opacity="1.000000" stroke="none" 
	d="
M547.570557,772.270264 
	C547.431213,773.038147 547.004761,773.902161 546.289185,774.883057 
	C546.427795,774.122131 546.855591,773.244263 547.570557,772.270264 
z"/>
<path fill="#00A2E8" opacity="1.000000" stroke="none" 
	d="
M540.424194,768.548035 
	C540.785706,767.997131 541.180115,767.444153 541.574524,766.891113 
	C541.733887,767.044128 541.893311,767.197205 542.052673,767.350220 
	C541.692749,767.677673 541.332764,768.005127 540.712891,768.472168 
	C540.452881,768.611694 540.457031,768.545898 540.424194,768.548035 
z"/>
<path fill="#00A2E8" opacity="1.000000" stroke="none" 
	d="
M533.424194,758.548035 
	C533.785706,757.997131 534.180115,757.444153 534.574524,756.891113 
	C534.733887,757.044128 534.893250,757.197144 535.052612,757.350098 
	C534.692688,757.677612 534.332703,758.005066 533.712830,758.472107 
	C533.452881,758.611694 533.457031,758.545898 533.424194,758.548035 
z"/>
<path fill="#00A2E8" opacity="1.000000" stroke="none" 
	d="
M529.280945,750.897461 
	C529.479370,750.401672 529.958740,749.803406 530.719055,749.102539 
	C530.520630,749.598267 530.041260,750.196594 529.280945,750.897461 
z"/>
<path fill="#00A2E8" opacity="1.000000" stroke="none" 
	d="
M485.424255,690.547974 
	C485.785767,689.997070 486.180176,689.444153 486.574554,688.891174 
	C486.733917,689.044128 486.893250,689.197144 487.052612,689.350098 
	C486.692688,689.677551 486.332733,690.005005 485.712891,690.472046 
	C485.453003,690.611633 485.457123,690.545837 485.424255,690.547974 
z"/>
<path fill="#00A2E8" opacity="1.000000" stroke="none" 
	d="
M494.719055,698.102539 
	C494.520630,698.598267 494.041260,699.196594 493.280945,699.897461 
	C493.479370,699.401733 493.958710,698.803406 494.719055,698.102539 
z"/>
<path fill="#00A2E8" opacity="1.000000" stroke="none" 
	d="
M394.424225,561.547974 
	C394.785706,560.997070 395.180115,560.444092 395.574493,559.891113 
	C395.733856,560.044128 395.893250,560.197144 396.052643,560.350159 
	C395.692688,560.677612 395.332764,561.005005 394.712921,561.472046 
	C394.453003,561.611633 394.457123,561.545837 394.424225,561.547974 
z"/>
<path fill="#00A2E8" opacity="1.000000" stroke="none" 
	d="
M390.280945,553.897461 
	C390.479340,553.401733 390.958710,552.803406 391.719025,552.102539 
	C391.520630,552.598267 391.041260,553.196533 390.280945,553.897461 
z"/>
<path fill="#00A2E8" opacity="1.000000" stroke="none" 
	d="
M403.719025,569.102539 
	C403.520630,569.598267 403.041290,570.196594 402.280945,570.897461 
	C402.479340,570.401672 402.958679,569.803406 403.719025,569.102539 
z"/>
<path fill="#00A2E8" opacity="1.000000" stroke="none" 
	d="
M505.280945,716.897461 
	C505.479340,716.401672 505.958710,715.803406 506.719055,715.102539 
	C506.520660,715.598328 506.041290,716.196594 505.280945,716.897461 
z"/>
<path fill="#00A2E8" opacity="1.000000" stroke="none" 
	d="
M509.424255,724.547974 
	C509.785736,723.997070 510.180145,723.444092 510.574524,722.891174 
	C510.733887,723.044128 510.893250,723.197144 511.052612,723.350159 
	C510.692688,723.677551 510.332764,724.005005 509.712891,724.472046 
	C509.453003,724.611633 509.457123,724.545837 509.424255,724.547974 
z"/>
<path fill="#00A2E8" opacity="1.000000" stroke="none" 
	d="
M518.719055,732.102539 
	C518.520630,732.598267 518.041260,733.196594 517.280945,733.897461 
	C517.479370,733.401733 517.958740,732.803406 518.719055,732.102539 
z"/>
<path fill="#00A2E8" opacity="1.000000" stroke="none" 
	d="
M415.570374,585.270264 
	C415.431091,586.038147 415.004700,586.902161 414.289124,587.883057 
	C414.427734,587.122131 414.855469,586.244324 415.570374,585.270264 
z"/>
<path fill="#00A2E8" opacity="1.000000" stroke="none" 
	d="
M406.424255,578.547974 
	C406.785767,577.997070 407.180145,577.444153 407.574554,576.891174 
	C407.733887,577.044128 407.893250,577.197144 408.052612,577.350098 
	C407.692657,577.677551 407.332733,578.005005 406.712891,578.472046 
	C406.453003,578.611633 406.457123,578.545837 406.424255,578.547974 
z"/>
<path fill="#00A2E8" opacity="1.000000" stroke="none" 
	d="
M559.719055,790.102539 
	C559.520630,790.598267 559.041260,791.196594 558.280945,791.897461 
	C558.479370,791.401733 558.958740,790.803406 559.719055,790.102539 
z"/>
<path fill="#00A2E8" opacity="1.000000" stroke="none" 
	d="
M552.424194,785.548035 
	C552.785767,784.997192 553.180176,784.444153 553.574585,783.891174 
	C553.733887,784.044128 553.893250,784.197144 554.052612,784.350098 
	C553.692627,784.677551 553.332703,785.005005 552.712769,785.472046 
	C552.452881,785.611694 552.457031,785.545898 552.424194,785.548035 
z"/>
<path fill="#00A2E8" opacity="1.000000" stroke="none" 
	d="
M498.289001,706.883179 
	C498.428223,706.121704 498.856415,705.243469 499.571167,704.270508 
	C499.431152,705.039368 499.004578,705.902832 498.289001,706.883179 
z"/>
<path fill="#00A2E8" opacity="1.000000" stroke="none" 
	d="
M522.289062,740.883179 
	C522.428162,740.121765 522.856384,739.243530 523.571045,738.270630 
	C523.431091,739.039368 523.004578,739.902893 522.289062,740.883179 
z"/>
<path fill="#00A2E8" opacity="1.000000" stroke="none" 
	d="
M383.280975,543.897461 
	C383.479370,543.401733 383.958710,542.803406 384.719055,542.102539 
	C384.520660,542.598328 384.041321,543.196594 383.280975,543.897461 
z"/>
<path fill="#00A2E8" opacity="1.000000" stroke="none" 
	d="
M451.570374,636.270264 
	C451.431091,637.038147 451.004669,637.902161 450.289124,638.883057 
	C450.427765,638.122192 450.855499,637.244324 451.570374,636.270264 
z"/>
<path fill="#00A2E8" opacity="1.000000" stroke="none" 
	d="
M443.289001,628.883179 
	C443.428192,628.121704 443.856415,627.243469 444.571167,626.270508 
	C444.431152,627.039368 444.004608,627.902832 443.289001,628.883179 
z"/>
<path fill="#00A2E8" opacity="1.000000" stroke="none" 
	d="
M427.570374,602.270264 
	C427.431122,603.038147 427.004700,603.902161 426.289154,604.883057 
	C426.427765,604.122192 426.855499,603.244324 427.570374,602.270264 
z"/>
<path fill="#00A2E8" opacity="1.000000" stroke="none" 
	d="
M419.289001,594.883179 
	C419.428192,594.121704 419.856415,593.243408 420.571167,592.270508 
	C420.431152,593.039368 420.004608,593.902832 419.289001,594.883179 
z"/>
<path fill="#00A2E8" opacity="1.000000" stroke="none" 
	d="
M439.570312,619.270264 
	C439.431061,620.038147 439.004669,620.902161 438.289124,621.883057 
	C438.427704,621.122131 438.855438,620.244263 439.570312,619.270264 
z"/>
<path fill="#00A2E8" opacity="1.000000" stroke="none" 
	d="
M431.280975,611.897461 
	C431.479370,611.401733 431.958740,610.803406 432.719055,610.102600 
	C432.520691,610.598328 432.041321,611.196594 431.280975,611.897461 
z"/>
</svg>