<svg version="1.1" id="Layer_1" xmlns="http://www.w3.org/2000/svg" xmlns:xlink="http://www.w3.org/1999/xlink" x="0px" y="0px"
	 width="100%" viewBox="0 0 607 864" enable-background="new 0 0 607 864" xml:space="preserve">
<path fill="#000000" opacity="1.000000" stroke="none" 
	d="
M608.000000,864.000000 
	C607.833679,864.333313 607.684753,864.943787 607.498230,864.955505 
	C606.171082,865.038940 604.836243,865.000000 603.503845,865.000000 
	C404.310059,865.000000 205.116287,865.000000 5.122193,864.766663 
	C16.203381,847.739380 28.098370,830.954895 39.962902,814.148987 
	C54.831963,793.087280 69.716042,772.035950 84.521690,750.929626 
	C107.948997,717.532654 131.334534,684.106262 154.695358,650.662781 
	C159.901382,643.209717 164.931458,635.633728 170.356049,627.963135 
	C172.710800,625.054565 174.814056,622.340881 176.783691,619.533386 
	C197.134888,590.525513 217.457947,561.497986 237.828339,532.503601 
	C238.513229,531.528809 239.617218,530.138123 240.522369,530.140808 
	C247.791138,530.162170 255.059036,530.472168 262.545135,530.980469 
	C265.083740,536.304932 267.418243,541.336609 269.722809,546.381897 
	C280.563995,570.115845 291.374847,593.863770 302.291290,617.563049 
	C302.904785,618.895020 304.363251,619.837769 305.428436,620.961670 
	C306.515442,619.877991 308.022247,618.987000 308.622040,617.679749 
	C312.903107,608.350037 316.946564,598.911743 321.165100,589.552856 
	C329.741608,570.525940 338.362762,551.519104 347.044739,532.540222 
	C347.505554,531.532898 348.701355,530.141724 349.550507,530.144836 
	C357.143341,530.172546 364.735138,530.473511 372.533081,530.962036 
	C374.268341,533.384766 375.797791,535.539368 377.532684,537.961487 
	C379.247498,540.362610 380.756897,542.496277 382.480469,544.906982 
	C384.885162,548.332642 387.075714,551.481323 389.476929,554.901855 
	C391.247437,557.322815 392.807251,559.471863 394.393829,561.602539 
	C394.420563,561.584045 394.384064,561.637817 394.567505,561.931274 
	C396.922729,565.359741 399.094482,568.494873 401.476929,571.901855 
	C403.247467,574.322815 404.807281,576.471863 406.393829,578.602539 
	C406.420563,578.584045 406.384064,578.637817 406.567505,578.931213 
	C408.956299,582.356750 411.161713,585.488831 413.393829,588.602539 
	C413.420563,588.584045 413.384064,588.637817 413.564209,588.926025 
	C415.285278,591.349792 416.826202,593.485352 418.393829,595.602539 
	C418.420563,595.584045 418.384064,595.637817 418.567505,595.931213 
	C420.956299,599.356750 423.161713,602.488831 425.393829,605.602539 
	C425.420563,605.584045 425.384064,605.637817 425.564423,605.926270 
	C427.272278,608.374512 428.799774,610.534302 430.536194,612.966919 
	C432.939178,616.391235 435.133240,619.542664 437.532684,622.961487 
	C439.247467,625.362610 440.756866,627.496277 442.480469,629.906982 
	C444.905518,633.354004 447.116394,636.524048 449.532684,639.961487 
	C451.247498,642.362610 452.756866,644.496277 454.480438,646.906982 
	C456.918762,650.329712 459.142914,653.475342 461.393799,656.602539 
	C461.420563,656.584045 461.384064,656.637817 461.564209,656.926025 
	C463.285309,659.349792 464.826202,661.485352 466.393829,663.602539 
	C466.420563,663.584045 466.384064,663.637817 466.567505,663.931274 
	C468.943085,667.381104 471.135162,670.537598 473.532684,673.961487 
	C475.247498,676.362610 476.756897,678.496277 478.480469,680.906982 
	C480.885193,684.332642 483.075745,687.481323 485.480469,690.906982 
	C487.905518,694.354004 490.116394,697.524048 492.532684,700.961487 
	C494.247498,703.362610 495.756897,705.496277 497.480469,707.906982 
	C499.905518,711.354004 502.116394,714.524048 504.532715,717.961487 
	C506.247498,720.362610 507.756897,722.496277 509.480469,724.906982 
	C511.905518,728.354065 514.116455,731.524048 516.532715,734.961548 
	C518.247498,737.362610 519.756897,739.496277 521.480469,741.906982 
	C523.885254,745.332642 526.075806,748.481323 528.476929,751.901855 
	C530.247437,754.322815 531.807251,756.471802 533.393799,758.602417 
	C533.420532,758.583923 533.384094,758.637695 533.567505,758.931152 
	C535.922729,762.359741 538.094482,765.494812 540.476929,768.901855 
	C542.247437,771.322815 543.807251,773.471802 545.393799,775.602417 
	C545.420532,775.583923 545.384094,775.637695 545.567505,775.931091 
	C547.956238,779.356628 550.161682,782.488708 552.393799,785.602417 
	C552.420532,785.583923 552.384094,785.637695 552.564453,785.926208 
	C554.272278,788.374512 555.799805,790.534302 557.536255,792.966919 
	C559.952454,796.366821 562.159729,799.493835 564.393799,802.602417 
	C564.420532,802.583923 564.384094,802.637695 564.564453,802.926208 
	C566.272278,805.374512 567.799805,807.534302 569.536255,809.966980 
	C571.918884,813.369873 574.092590,816.499939 576.476929,819.901855 
	C578.247437,822.322815 579.807251,824.471802 581.393799,826.602417 
	C581.420532,826.583923 581.384094,826.637695 581.567505,826.931091 
	C583.956238,830.356628 586.161682,833.488708 588.393799,836.602417 
	C588.420532,836.583923 588.384094,836.637695 588.564209,836.925903 
	C590.285217,839.349731 591.826111,841.485291 593.393799,843.602417 
	C593.420532,843.583923 593.384094,843.637695 593.567505,843.931091 
	C595.956299,847.356567 598.161682,850.488708 600.393799,853.602417 
	C600.420532,853.583923 600.384094,853.637695 600.567139,853.930420 
	C603.166748,857.482117 605.583374,860.741089 608.000000,864.000000 
z"/>
<path fill="#000000" opacity="1.000000" stroke="none" 
	d="
M6.000000,1.000000 
	C205.025833,1.000000 404.051666,1.000000 603.529297,1.360804 
	C597.165894,11.478040 590.344116,21.229900 583.536682,30.991735 
	C562.905579,60.576553 542.354065,90.217163 521.630554,119.737030 
	C503.055969,146.195740 484.246338,172.489288 465.633179,198.921066 
	C454.265747,215.063538 443.048157,231.311844 431.813873,247.547623 
	C426.442841,255.309830 421.189392,263.153381 415.607361,271.072144 
	C414.833984,271.788330 414.335938,272.392456 413.564880,273.141632 
	C413.250153,273.684662 413.208435,274.082672 412.916077,274.689545 
	C399.376923,293.780334 385.688721,312.399017 372.995117,331.672729 
	C367.865265,339.461792 362.455231,344.075714 352.942108,341.969788 
	C350.862427,341.509369 348.867371,340.666809 346.891602,339.633148 
	C340.922699,325.725616 334.942810,312.163849 328.855591,298.650452 
	C322.157501,283.780853 315.411591,268.932007 308.518005,254.152710 
	C307.914429,252.858688 306.059723,252.148209 304.441833,251.316269 
	C303.027466,253.629242 301.957397,255.792618 300.611877,258.092712 
	C300.279846,258.819489 300.223267,259.409607 300.006409,260.321960 
	C298.193207,264.081482 296.540253,267.518738 294.611877,271.092712 
	C294.279846,271.819489 294.223236,272.409607 294.006409,273.321960 
	C292.193237,277.081482 290.540283,280.518738 288.611877,284.092712 
	C288.279877,284.819489 288.223267,285.409607 288.006409,286.321960 
	C286.193207,290.081482 284.540253,293.518738 282.611877,297.092712 
	C282.279846,297.819489 282.223267,298.409607 282.006409,299.321960 
	C280.193207,303.081482 278.540253,306.518738 276.611877,310.092712 
	C276.279846,310.819489 276.223267,311.409607 276.006409,312.321960 
	C274.193176,316.081482 272.540222,319.518738 270.611877,323.092712 
	C270.279846,323.819489 270.223236,324.409607 270.006409,325.321960 
	C268.193207,329.081482 266.540253,332.518738 264.611877,336.092712 
	C264.279846,336.819489 264.223236,337.409607 263.990936,338.341248 
	C262.752350,341.260895 260.971558,342.363892 258.068176,342.058105 
	C255.445755,341.781952 252.732529,341.714386 250.128983,342.067810 
	C246.353668,342.580261 243.852631,341.154205 241.969604,337.644897 
	C240.735962,335.900055 239.602692,334.504333 238.572128,333.036560 
	C215.862137,300.691986 193.206619,268.309052 170.450531,235.996948 
	C147.972046,204.078995 125.389854,172.234055 102.861031,140.351532 
	C83.632759,113.139900 64.427788,85.911789 45.189251,58.707417 
	C32.926723,41.367512 20.590790,24.079365 8.386204,6.698893 
	C7.230126,5.052529 6.778616,2.911417 6.000000,1.000000 
z"/>
<path fill="#000000" opacity="1.000000" stroke="none" 
	d="
M1.000001,857.000000 
	C1.000000,574.303955 1.000000,291.607941 1.257176,8.123486 
	C2.568223,8.271577 3.847428,9.048094 4.642719,10.168196 
	C20.806250,32.933201 36.895016,55.751263 53.038200,78.530746 
	C75.886093,110.771187 98.795296,142.968216 121.622925,175.222961 
	C140.014618,201.209854 158.321121,227.257004 176.671143,253.273376 
	C197.073639,282.199738 217.482620,311.121552 237.898941,340.474304 
	C236.290131,341.268829 234.674057,341.937103 233.051727,341.952606 
	C218.701904,342.089752 204.350983,342.111084 189.626495,342.109741 
	C188.702774,343.420319 187.460007,344.952972 187.738861,346.122925 
	C188.449051,349.102417 189.810272,351.931396 190.961563,354.800323 
	C201.690491,381.535889 212.430130,408.267151 223.098755,435.407227 
	C222.813354,437.262024 222.863678,438.816010 222.336166,440.139648 
	C217.938629,451.174347 213.418106,462.159912 208.966614,473.173218 
	C202.262421,489.759766 195.584061,506.356720 188.576904,523.149841 
	C186.430786,529.994751 186.430786,529.994934 193.628601,529.999878 
	C194.959427,530.000793 196.290253,530.000000 197.621078,530.000000 
	C209.170685,530.000000 220.720291,530.000000 233.101395,530.000000 
	C231.371185,532.632385 230.201538,534.532288 228.915390,536.349792 
	C218.166885,551.538330 207.328140,566.663574 196.653534,581.903748 
	C186.644058,596.194275 176.801468,610.601685 166.587051,625.124146 
	C165.311813,626.596558 164.296951,627.876038 163.363693,629.212463 
	C142.614517,658.924133 121.920769,688.674622 101.118881,718.349304 
	C82.092972,745.490479 62.952587,772.551453 43.861572,799.646973 
	C30.975920,817.935364 18.119429,836.244568 5.131744,854.460205 
	C4.267425,855.672485 2.400574,856.170044 1.000001,857.000000 
z"/>
<path fill="#000000" opacity="1.000000" stroke="none" 
	d="
M608.000000,8.999996 
	C608.000000,290.362701 608.000000,571.725403 607.766357,853.883179 
	C606.713135,853.880188 605.747803,853.185669 605.096191,852.268250 
	C596.592957,840.296448 588.134155,828.293152 579.440796,816.042969 
	C577.057678,812.650574 574.898071,809.513000 572.510986,806.113464 
	C568.434875,800.359131 564.586182,794.866760 560.510010,789.112549 
	C554.741821,780.998474 549.201111,773.146301 543.442139,765.044678 
	C539.373535,759.298828 535.523132,753.802368 531.464966,748.034790 
	C529.059570,744.608337 526.861877,741.453064 524.444458,738.046814 
	C522.729004,735.655396 521.233215,733.514893 519.524414,731.098755 
	C517.095581,727.647949 514.879883,724.472839 512.444458,721.046814 
	C510.728973,718.655334 509.233154,716.514771 507.524292,714.098633 
	C505.095520,710.647888 502.879883,707.472839 500.444519,704.046814 
	C498.729004,701.655334 497.233185,699.514771 495.524292,697.098633 
	C493.095520,693.647888 490.879883,690.472839 488.440491,687.042542 
	C486.032593,683.624146 483.848419,680.460938 481.444519,677.046814 
	C479.729034,674.655334 478.233215,672.514771 476.515320,670.117737 
	C470.083557,661.006714 463.873901,652.152222 457.444519,643.046814 
	C455.729004,640.655334 454.233185,638.514771 452.510101,636.112671 
	C450.076630,632.666687 447.870422,629.482178 445.444519,626.046814 
	C443.729004,623.655334 442.233185,621.514771 440.510132,619.112732 
	C438.101379,615.692566 435.919830,612.533936 433.510834,609.113342 
	C423.746490,595.336243 414.209595,581.821106 404.464752,568.034424 
	C400.395447,562.277283 396.534088,556.791626 392.465027,551.034790 
	C390.059631,547.608398 387.861938,544.453064 385.444519,541.046814 
	C383.729004,538.655334 382.233185,536.514771 380.524597,534.098816 
	C379.778625,532.641479 379.245361,531.459534 378.586823,529.999878 
	C391.925720,529.999878 404.721680,530.011230 417.517670,529.994812 
	C423.314087,529.987427 423.896271,529.302979 421.928436,524.154663 
	C419.780701,518.535583 417.373474,513.016052 415.108063,507.441437 
	C405.437378,483.644470 395.777283,459.843170 386.425873,435.850037 
	C390.806000,425.528015 394.871033,415.398346 398.941803,405.270996 
	C406.604889,386.206665 414.312012,367.159882 421.909454,348.069397 
	C423.959625,342.917786 423.247498,342.015076 417.714844,342.006897 
	C403.883484,341.986420 390.052063,342.009430 376.220734,341.984985 
	C374.854187,341.982544 373.488037,341.772858 371.673035,341.622101 
	C386.928772,319.939758 401.773163,298.842041 416.772888,277.502563 
	C416.965576,276.879486 417.002930,276.498199 417.298401,276.014099 
	C418.173004,275.230164 418.789551,274.549011 419.653473,273.596680 
	C426.116730,264.520325 432.359955,255.734238 438.543579,246.906448 
	C461.875183,213.598129 485.169647,180.263794 508.512451,146.963348 
	C527.355774,120.081802 546.238525,93.227875 565.122925,66.375198 
	C577.997131,48.068695 590.873535,29.763365 603.867065,11.541726 
	C604.731995,10.328852 606.599060,9.830624 608.000000,8.999996 
z"/>
<path fill="#A349A4" opacity="1.000000" stroke="none" 
	d="
M237.888779,340.045349 
	C217.482620,311.121552 197.073639,282.199738 176.671143,253.273376 
	C158.321121,227.257004 140.014618,201.209854 121.622925,175.222961 
	C98.795296,142.968216 75.886093,110.771187 53.038200,78.530746 
	C36.895016,55.751263 20.806250,32.933201 4.642719,10.168196 
	C3.847428,9.048094 2.568223,8.271577 1.257176,7.667534 
	C1.000000,5.768101 1.000000,3.536201 1.000000,1.000000 
	C2.327698,1.000000 3.663887,1.000000 5.500038,1.000000 
	C6.778616,2.911417 7.230126,5.052529 8.386204,6.698893 
	C20.590790,24.079365 32.926723,41.367512 45.189251,58.707417 
	C64.427788,85.911789 83.632759,113.139900 102.861031,140.351532 
	C125.389854,172.234055 147.972046,204.078995 170.450531,235.996948 
	C193.206619,268.309052 215.862137,300.691986 238.572128,333.036560 
	C239.602692,334.504333 240.735962,335.900055 241.645065,337.740051 
	C240.275406,338.782318 239.082092,339.413818 237.888779,340.045349 
z"/>
<path fill="#A349A4" opacity="1.000000" stroke="none" 
	d="
M608.000000,8.505262 
	C606.599060,9.830624 604.731995,10.328852 603.867065,11.541726 
	C590.873535,29.763365 577.997131,48.068695 565.122925,66.375198 
	C546.238525,93.227875 527.355774,120.081802 508.512451,146.963348 
	C485.169647,180.263794 461.875183,213.598129 438.543579,246.906448 
	C432.359955,255.734238 426.116730,264.520325 419.438141,273.268677 
	C417.944519,272.461212 416.913574,271.710663 415.882690,270.960083 
	C421.189392,263.153381 426.442841,255.309830 431.813873,247.547623 
	C443.048157,231.311844 454.265747,215.063538 465.633179,198.921066 
	C484.246338,172.489288 503.055969,146.195740 521.630554,119.737030 
	C542.354065,90.217163 562.905579,60.576553 583.536682,30.991735 
	C590.344116,21.229900 597.165894,11.478040 603.990540,1.360804 
	C605.276611,1.000000 606.553162,1.000000 608.000000,1.000000 
	C608.000000,3.335620 608.000000,5.673077 608.000000,8.505262 
z"/>
<path fill="#A349A4" opacity="1.000000" stroke="none" 
	d="
M1.000001,857.494751 
	C2.400574,856.170044 4.267425,855.672485 5.131744,854.460205 
	C18.119429,836.244568 30.975920,817.935364 43.861572,799.646973 
	C62.952587,772.551453 82.092972,745.490479 101.118881,718.349304 
	C121.920769,688.674622 142.614517,658.924133 163.363693,629.212463 
	C164.296951,627.876038 165.311813,626.596558 166.929413,625.200439 
	C168.394287,626.111694 169.218399,627.113037 170.042511,628.114380 
	C164.931458,635.633728 159.901382,643.209717 154.695358,650.662781 
	C131.334534,684.106262 107.948997,717.532654 84.521690,750.929626 
	C69.716042,772.035950 54.831963,793.087280 39.962902,814.148987 
	C28.098370,830.954895 16.203381,847.739380 4.660939,864.766663 
	C3.723421,865.000000 2.446841,865.000000 1.000000,865.000000 
	C1.000000,862.664368 1.000000,860.326965 1.000001,857.494751 
z"/>
<path fill="#A349A4" opacity="1.000000" stroke="none" 
	d="
M579.664185,816.297729 
	C588.134155,828.293152 596.592957,840.296448 605.096191,852.268250 
	C605.747803,853.185669 606.713135,853.880188 607.766357,854.339111 
	C608.000000,857.030579 608.000000,860.061218 608.000000,863.545898 
	C605.583374,860.741089 603.166748,857.482117 600.790039,853.806519 
	C601.247253,853.205078 601.664551,853.020325 602.081848,852.835571 
	C601.837524,852.618652 601.593201,852.401672 601.348877,852.184753 
	C601.021606,852.663452 600.694336,853.142151 600.367065,853.620850 
	C598.161682,850.488708 595.956299,847.356567 593.790527,843.807251 
	C594.247437,843.205261 594.664734,843.020508 595.082031,842.835754 
	C594.837646,842.618774 594.593262,842.401733 594.348877,842.184753 
	C594.021606,842.663452 593.694336,843.142151 593.367065,843.620850 
	C591.826111,841.485291 590.285217,839.349731 588.787231,836.802002 
	C589.247437,836.205200 589.664673,836.020447 590.081970,835.835693 
	C589.837646,835.618713 589.593262,835.401733 589.348938,835.184753 
	C589.021606,835.663452 588.694336,836.142151 588.367065,836.620850 
	C586.161682,833.488708 583.956238,830.356628 581.790527,826.807251 
	C582.247437,826.205200 582.664734,826.020447 583.081970,825.835754 
	C582.837646,825.618713 582.593262,825.401733 582.348877,825.184753 
	C582.021606,825.663452 581.694336,826.142151 581.367065,826.620850 
	C579.807251,824.471802 578.247437,822.322815 576.660645,819.744629 
	C576.633606,819.315430 577.000000,819.000000 577.262390,818.871704 
	C578.016541,818.162231 578.508301,817.581116 579.166260,816.824585 
	C579.332520,816.649231 579.664185,816.297729 579.664185,816.297729 
z"/>
<path fill="#A349A4" opacity="1.000000" stroke="none" 
	d="
M170.356033,627.963135 
	C169.218399,627.113037 168.394287,626.111694 167.227814,625.033997 
	C176.801468,610.601685 186.644058,596.194275 196.653534,581.903748 
	C207.328140,566.663574 218.166885,551.538330 228.915390,536.349792 
	C230.201538,534.532288 231.371185,532.632385 233.101395,530.000000 
	C220.720291,530.000000 209.170685,530.000000 197.621078,530.000000 
	C196.290253,530.000000 194.959427,530.000793 193.628601,529.999878 
	C186.430786,529.994934 186.430786,529.994751 188.736252,523.398315 
	C190.976929,524.296570 192.725189,525.843872 194.506409,525.882751 
	C205.145889,526.115417 215.794952,525.888489 226.436203,526.075745 
	C229.287949,526.125916 232.139694,527.608276 234.963806,527.522583 
	C242.673477,527.288452 250.365540,526.326782 258.071442,526.235840 
	C259.699249,526.216553 261.356384,528.680298 262.831604,530.173340 
	C262.663239,530.346619 262.327209,530.693970 262.327209,530.693970 
	C255.059036,530.472168 247.791138,530.162170 240.522369,530.140808 
	C239.617218,530.138123 238.513229,531.528809 237.828339,532.503601 
	C217.457947,561.497986 197.134888,590.525513 176.783691,619.533386 
	C174.814056,622.340881 172.710800,625.054565 170.356033,627.963135 
z"/>
<path fill="#A349A4" opacity="1.000000" stroke="none" 
	d="
M372.327271,530.694031 
	C364.735138,530.473511 357.143341,530.172546 349.550507,530.144836 
	C348.701355,530.141724 347.505554,531.532898 347.044739,532.540222 
	C338.362762,551.519104 329.741608,570.525940 321.165100,589.552856 
	C316.946564,598.911743 312.903107,608.350037 308.622040,617.679749 
	C308.022247,618.987000 306.515442,619.877991 305.428436,620.961670 
	C304.363251,619.837769 302.904785,618.895020 302.291290,617.563049 
	C291.374847,593.863770 280.563995,570.115845 269.722809,546.381897 
	C267.418243,541.336609 265.083740,536.304932 262.545135,530.980469 
	C262.327209,530.693970 262.663239,530.346619 263.137756,530.322266 
	C264.639435,531.763306 265.913940,533.113708 266.656769,534.711304 
	C278.501984,560.187012 290.272919,585.697327 302.093658,611.184448 
	C302.601776,612.279968 303.426727,613.228577 304.288208,614.522156 
	C305.130157,613.616272 305.727325,613.220337 305.978577,612.667297 
	C312.151001,599.078247 318.326996,585.490479 324.417938,571.864807 
	C330.778687,557.635681 336.954376,543.322327 343.503601,529.181335 
	C344.202179,527.672974 346.814331,526.289368 348.613556,526.189087 
	C355.080963,525.828613 361.599426,525.771179 368.055115,526.222290 
	C369.782959,526.343018 371.355927,528.680298 372.831635,530.173340 
	C372.663269,530.346680 372.327271,530.694031 372.327271,530.694031 
z"/>
<path fill="#A349A4" opacity="1.000000" stroke="none" 
	d="
M386.113342,436.043457 
	C395.777283,459.843170 405.437378,483.644470 415.108063,507.441437 
	C417.373474,513.016052 419.780701,518.535583 421.928436,524.154663 
	C423.896271,529.302979 423.314087,529.987427 417.517670,529.994812 
	C404.721680,530.011230 391.925720,529.999878 378.586823,529.999878 
	C379.245361,531.459534 379.778625,532.641479 380.340088,534.255066 
	C380.368347,534.686707 380.000000,535.000000 379.737579,535.128357 
	C378.983429,535.837769 378.491699,536.418884 377.831604,537.173340 
	C377.663269,537.346680 377.327271,537.694031 377.327271,537.694031 
	C375.797791,535.539368 374.268341,533.384766 372.533081,530.962036 
	C372.327271,530.694031 372.663269,530.346680 373.145752,530.019043 
	C376.175964,526.633606 379.416534,525.826294 383.354218,525.921631 
	C393.172180,526.159424 403.000000,526.030701 412.823547,525.985168 
	C418.870392,525.957153 419.457947,525.128845 417.253387,519.642090 
	C412.847015,508.675507 408.359344,497.741577 403.912048,486.791443 
	C397.460388,470.905975 390.995026,455.026001 384.603088,439.116516 
	C384.081421,437.818085 381.891724,435.216095 386.113342,436.043457 
z"/>
<path fill="#A349A4" opacity="1.000000" stroke="none" 
	d="
M404.672699,568.305908 
	C414.209595,581.821106 423.746490,595.336243 433.326111,609.269287 
	C433.368805,609.687195 433.000000,610.000000 432.737610,610.128357 
	C431.983459,610.837830 431.491730,611.418884 430.831635,612.173340 
	C430.663269,612.346680 430.327271,612.694031 430.327271,612.694031 
	C428.799774,610.534302 427.272278,608.374512 425.787476,605.802368 
	C426.247467,605.205200 426.664734,605.020447 427.082031,604.835754 
	C426.837677,604.618774 426.593323,604.401794 426.348999,604.184814 
	C426.021698,604.663513 425.694397,605.142273 425.367096,605.620972 
	C423.161713,602.488831 420.956299,599.356750 418.790649,595.807373 
	C419.247620,595.205383 419.664917,595.020630 420.082214,594.835938 
	C419.837799,594.618896 419.593384,594.401855 419.348938,594.184753 
	C419.021667,594.663513 418.694366,595.142212 418.367065,595.620972 
	C416.826202,593.485352 415.285278,591.349792 413.787262,588.802002 
	C414.247437,588.205200 414.664734,588.020447 415.082001,587.835693 
	C414.837646,587.618713 414.593292,587.401733 414.348938,587.184753 
	C414.021637,587.663513 413.694336,588.142212 413.367065,588.620972 
	C411.161713,585.488831 408.956299,582.356750 406.790619,578.807373 
	C407.247620,578.205322 407.664886,578.020630 408.082184,577.835876 
	C407.837769,577.618835 407.593353,577.401794 407.348938,577.184753 
	C407.021667,577.663513 406.694366,578.142212 406.367096,578.620972 
	C404.807281,576.471863 403.247467,574.322815 401.660583,571.744568 
	C401.633514,571.315430 402.000000,571.000000 402.262390,570.871643 
	C403.016510,570.162170 403.508240,569.581055 404.168335,568.826660 
	C404.336731,568.653320 404.672699,568.305908 404.672699,568.305908 
z"/>
<path fill="#A349A4" opacity="1.000000" stroke="none" 
	d="
M457.664246,643.297729 
	C463.873901,652.152222 470.083557,661.006714 476.330780,670.273987 
	C476.368347,670.686707 476.000000,671.000000 475.737610,671.128357 
	C474.983459,671.837830 474.491730,672.418884 473.831635,673.173340 
	C473.663269,673.346680 473.327271,673.694031 473.327271,673.694031 
	C471.135162,670.537598 468.943085,667.381104 466.790527,663.807251 
	C467.247375,663.205078 467.664673,663.020386 468.081940,662.835632 
	C467.837646,662.618713 467.593323,662.401794 467.349030,662.184814 
	C467.021729,662.663574 466.694427,663.142273 466.367126,663.620972 
	C464.826202,661.485352 463.285309,659.349792 461.787292,656.802063 
	C462.247528,656.205261 462.664795,656.020508 463.082092,655.835815 
	C462.837708,655.618774 462.593353,655.401794 462.348969,655.184814 
	C462.021698,655.663513 461.694397,656.142273 461.367065,656.620972 
	C459.142914,653.475342 456.918762,650.329712 454.664062,646.749756 
	C454.633514,646.315430 455.000000,646.000000 455.262390,645.871643 
	C456.016541,645.162170 456.508270,644.581116 457.166260,643.824585 
	C457.332489,643.649231 457.664215,643.297729 457.664246,643.297729 
z"/>
<path fill="#A349A4" opacity="1.000000" stroke="none" 
	d="
M543.660339,765.294067 
	C549.201111,773.146301 554.741821,780.998474 560.325562,789.268799 
	C560.368469,789.686829 560.000000,790.000000 559.737610,790.128296 
	C558.983521,790.837769 558.491760,791.418884 557.831665,792.173340 
	C557.663330,792.346680 557.327332,792.694092 557.327332,792.694092 
	C555.799805,790.534302 554.272278,788.374512 552.787476,785.802368 
	C553.247559,785.205322 553.664795,785.020569 554.082092,784.835815 
	C553.837708,784.618835 553.593323,784.401794 553.348877,784.184753 
	C553.021606,784.663452 552.694336,785.142151 552.367065,785.620850 
	C550.161682,782.488708 547.956238,779.356628 545.790466,775.807190 
	C546.247375,775.205139 546.664673,775.020386 547.081909,774.835693 
	C546.837585,774.618713 546.593262,774.401733 546.348938,774.184753 
	C546.021606,774.663452 545.694336,775.142151 545.367065,775.620850 
	C543.807251,773.471802 542.247437,771.322815 540.660645,768.744629 
	C540.633606,768.315430 541.000000,768.000000 541.262390,767.871704 
	C542.016479,767.162231 542.508240,766.581116 543.165283,765.823730 
	C543.330627,765.647400 543.660339,765.294067 543.660339,765.294067 
z"/>
<path fill="#A349A4" opacity="1.000000" stroke="none" 
	d="
M392.672699,551.305908 
	C396.534088,556.791626 400.395447,562.277283 404.464752,568.034424 
	C404.672699,568.305908 404.336731,568.653320 403.905945,568.955017 
	C402.983459,569.837830 402.491730,570.418884 402.000000,571.000000 
	C402.000000,571.000000 401.633514,571.315430 401.449890,571.472656 
	C399.094482,568.494873 396.922729,565.359741 394.790619,561.807373 
	C395.247589,561.205322 395.664886,561.020630 396.082184,560.835876 
	C395.837769,560.618835 395.593384,560.401794 395.348969,560.184814 
	C395.021698,560.663513 394.694397,561.142273 394.367096,561.620972 
	C392.807251,559.471863 391.247437,557.322815 389.660583,554.744568 
	C389.633514,554.315430 390.000000,554.000000 390.262390,553.871643 
	C391.016541,553.162170 391.508270,552.581116 392.168365,551.826660 
	C392.336731,551.653320 392.672699,551.305908 392.672699,551.305908 
z"/>
<path fill="#A349A4" opacity="1.000000" stroke="none" 
	d="
M560.552979,789.530640 
	C564.586182,794.866760 568.434875,800.359131 572.326172,806.269409 
	C572.368896,806.687378 572.000000,807.000000 571.737610,807.128296 
	C570.983521,807.837769 570.491760,808.418884 569.831665,809.173340 
	C569.663330,809.346680 569.327332,809.694092 569.327332,809.694092 
	C567.799805,807.534302 566.272278,805.374512 564.787415,802.802307 
	C565.247375,802.205139 565.664673,802.020447 566.081970,801.835693 
	C565.837585,801.618713 565.593262,801.401733 565.348938,801.184753 
	C565.021667,801.663452 564.694336,802.142151 564.367065,802.620850 
	C562.159729,799.493835 559.952454,796.366821 557.536255,792.966919 
	C557.327332,792.694092 557.663330,792.346680 558.094055,792.045044 
	C559.016541,791.162231 559.508301,790.581116 560.000000,790.000000 
	C560.000000,790.000000 560.368469,789.686829 560.552979,789.530640 
z"/>
<path fill="#A349A4" opacity="1.000000" stroke="none" 
	d="
M531.672668,748.305908 
	C535.523132,753.802368 539.373535,759.298828 543.442139,765.044678 
	C543.660339,765.294067 543.330627,765.647400 542.902954,765.952026 
	C541.983459,766.837769 541.491760,767.418884 541.000000,768.000000 
	C541.000000,768.000000 540.633606,768.315430 540.449951,768.472656 
	C538.094482,765.494812 535.922729,762.359741 533.790588,758.807373 
	C534.247498,758.205322 534.664795,758.020569 535.082092,757.835815 
	C534.837708,757.618774 534.593323,757.401794 534.348938,757.184753 
	C534.021667,757.663452 533.694397,758.142151 533.367065,758.620850 
	C531.807251,756.471802 530.247437,754.322815 528.660645,751.744629 
	C528.633606,751.315430 529.000000,751.000000 529.262390,750.871704 
	C530.016541,750.162231 530.508240,749.581116 531.168335,748.826660 
	C531.336670,748.653320 531.672668,748.305908 531.672668,748.305908 
z"/>
<path fill="#A349A4" opacity="1.000000" stroke="none" 
	d="
M488.664215,687.297729 
	C490.879883,690.472839 493.095520,693.647888 495.339783,697.254883 
	C495.368347,697.686707 495.000000,698.000000 494.737610,698.128357 
	C493.983459,698.837830 493.491730,699.418884 492.831635,700.173340 
	C492.663269,700.346680 492.327271,700.694031 492.327271,700.694031 
	C490.116394,697.524048 487.905518,694.354004 485.664062,690.749756 
	C485.633514,690.315430 486.000000,690.000000 486.262390,689.871643 
	C487.016541,689.162170 487.508270,688.581116 488.166260,687.824585 
	C488.332489,687.649231 488.664215,687.297729 488.664215,687.297729 
z"/>
<path fill="#A349A4" opacity="1.000000" stroke="none" 
	d="
M500.664215,704.297729 
	C502.879883,707.472839 505.095520,710.647888 507.339783,714.254883 
	C507.368347,714.686707 507.000000,715.000000 506.737610,715.128357 
	C505.983459,715.837830 505.491730,716.418884 504.831635,717.173340 
	C504.663269,717.346680 504.327271,717.694031 504.327271,717.694031 
	C502.116394,714.524048 499.905518,711.354004 497.664062,707.749756 
	C497.633514,707.315430 498.000000,707.000000 498.262390,706.871643 
	C499.016510,706.162170 499.508240,705.581055 500.166229,704.824585 
	C500.332489,704.649231 500.664215,704.297729 500.664215,704.297729 
z"/>
<path fill="#A349A4" opacity="1.000000" stroke="none" 
	d="
M385.664215,541.297729 
	C387.861938,544.453064 390.059631,547.608398 392.465027,551.034790 
	C392.672699,551.305908 392.336731,551.653320 391.905945,551.955017 
	C390.983459,552.837830 390.491730,553.418884 390.000000,554.000000 
	C390.000000,554.000000 389.633514,554.315430 389.449890,554.472656 
	C387.075714,551.481323 384.885162,548.332642 382.664062,544.749756 
	C382.633514,544.315430 383.000000,544.000000 383.262390,543.871582 
	C384.016510,543.162170 384.508240,542.581055 385.166229,541.824585 
	C385.332489,541.649231 385.664215,541.297729 385.664215,541.297729 
z"/>
<path fill="#A349A4" opacity="1.000000" stroke="none" 
	d="
M524.664185,738.297729 
	C526.861877,741.453064 529.059570,744.608337 531.464966,748.034790 
	C531.672668,748.305908 531.336670,748.653320 530.905945,748.954956 
	C529.983459,749.837769 529.491760,750.418884 529.000000,751.000000 
	C529.000000,751.000000 528.633606,751.315430 528.449951,751.472656 
	C526.075806,748.481323 523.885254,745.332642 521.664185,741.749756 
	C521.633606,741.315430 522.000000,741.000000 522.262390,740.871704 
	C523.016479,740.162231 523.508240,739.581116 524.166260,738.824585 
	C524.332520,738.649231 524.664185,738.297729 524.664185,738.297729 
z"/>
<path fill="#A349A4" opacity="1.000000" stroke="none" 
	d="
M512.664185,721.297729 
	C514.879883,724.472839 517.095581,727.647949 519.339844,731.254944 
	C519.368469,731.686829 519.000000,732.000000 518.737610,732.128296 
	C517.983459,732.837769 517.491760,733.418884 516.831665,734.173340 
	C516.663330,734.346680 516.327332,734.694092 516.327332,734.694092 
	C514.116455,731.524048 511.905518,728.354065 509.664062,724.749756 
	C509.633514,724.315430 510.000000,724.000000 510.262390,723.871643 
	C511.016541,723.162170 511.508270,722.581116 512.166260,721.824585 
	C512.332520,721.649231 512.664185,721.297729 512.664185,721.297729 
z"/>
<path fill="#A349A4" opacity="1.000000" stroke="none" 
	d="
M481.664215,677.297729 
	C483.848419,680.460938 486.032593,683.624146 488.440491,687.042542 
	C488.664215,687.297729 488.332489,687.649231 487.903839,687.953003 
	C486.983459,688.837830 486.491730,689.418884 486.000000,690.000000 
	C486.000000,690.000000 485.633514,690.315430 485.449890,690.472656 
	C483.075745,687.481323 480.885193,684.332642 478.664062,680.749756 
	C478.633514,680.315430 479.000000,680.000000 479.262390,679.871643 
	C480.016510,679.162170 480.508240,678.581055 481.166229,677.824585 
	C481.332489,677.649231 481.664215,677.297729 481.664215,677.297729 
z"/>
<path fill="#A349A4" opacity="1.000000" stroke="none" 
	d="
M572.553650,806.531372 
	C574.898071,809.513000 577.057678,812.650574 579.440796,816.042969 
	C579.664185,816.297729 579.332520,816.649231 578.903870,816.952942 
	C577.983521,817.837769 577.491760,818.418884 577.000000,819.000000 
	C577.000000,819.000000 576.633606,819.315430 576.449951,819.472656 
	C574.092590,816.499939 571.918884,813.369873 569.536255,809.966980 
	C569.327332,809.694092 569.663330,809.346680 570.094055,809.045044 
	C571.016541,808.162231 571.508240,807.581116 572.000000,807.000000 
	C572.000000,807.000000 572.368896,806.687378 572.553650,806.531372 
z"/>
<path fill="#A349A4" opacity="1.000000" stroke="none" 
	d="
M433.553528,609.531250 
	C435.919830,612.533936 438.101379,615.692566 440.325623,619.268982 
	C440.368347,619.686707 440.000000,620.000000 439.737610,620.128357 
	C438.983459,620.837830 438.491730,621.418884 437.831635,622.173340 
	C437.663269,622.346680 437.327271,622.694031 437.327271,622.694031 
	C435.133240,619.542664 432.939178,616.391235 430.536194,612.966919 
	C430.327271,612.694031 430.663269,612.346680 431.094055,612.044983 
	C432.016541,611.162170 432.508270,610.581116 433.000000,610.000000 
	C433.000000,610.000000 433.368805,609.687195 433.553528,609.531250 
z"/>
<path fill="#A349A4" opacity="1.000000" stroke="none" 
	d="
M445.664215,626.297729 
	C447.870422,629.482178 450.076630,632.666687 452.325592,636.268921 
	C452.368347,636.686707 452.000000,637.000000 451.737610,637.128357 
	C450.983459,637.837830 450.491730,638.418884 449.831635,639.173340 
	C449.663269,639.346680 449.327271,639.694031 449.327271,639.694031 
	C447.116394,636.524048 444.905518,633.354004 442.664062,629.749756 
	C442.633514,629.315430 443.000000,629.000000 443.262421,628.871643 
	C444.016571,628.162231 444.508301,627.581116 445.166260,626.824585 
	C445.332489,626.649231 445.664215,626.297729 445.664215,626.297729 
z"/>
<path fill="#A349A4" opacity="1.000000" stroke="none" 
	d="
M452.552856,636.530457 
	C454.233185,638.514771 455.729004,640.655334 457.444519,643.046814 
	C457.664215,643.297729 457.332489,643.649231 456.903809,643.953003 
	C455.983429,644.837769 455.491699,645.418884 455.000000,646.000000 
	C455.000000,646.000000 454.633514,646.315430 454.449890,646.472656 
	C452.756866,644.496277 451.247498,642.362610 449.532684,639.961487 
	C449.327271,639.694031 449.663269,639.346680 450.094055,639.044983 
	C451.016571,638.162231 451.508301,637.581116 452.000000,637.000000 
	C452.000000,637.000000 452.368347,636.686707 452.552856,636.530457 
z"/>
<path fill="#A349A4" opacity="1.000000" stroke="none" 
	d="
M440.552856,619.530457 
	C442.233185,621.514771 443.729004,623.655334 445.444519,626.046814 
	C445.664215,626.297729 445.332489,626.649231 444.903809,626.953003 
	C443.983429,627.837769 443.491699,628.418884 443.000000,629.000000 
	C443.000000,629.000000 442.633514,629.315430 442.449890,629.472656 
	C440.756866,627.496277 439.247467,625.362610 437.532684,622.961487 
	C437.327271,622.694031 437.663269,622.346680 438.094055,622.044983 
	C439.016541,621.162170 439.508270,620.581116 440.000000,620.000000 
	C440.000000,620.000000 440.368347,619.686707 440.552856,619.530457 
z"/>
<path fill="#A349A4" opacity="1.000000" stroke="none" 
	d="
M507.552856,714.530457 
	C509.233154,716.514771 510.728973,718.655334 512.444458,721.046814 
	C512.664185,721.297729 512.332520,721.649231 511.903870,721.953003 
	C510.983490,722.837830 510.491760,723.418945 510.000000,724.000000 
	C510.000000,724.000000 509.633514,724.315430 509.449890,724.472656 
	C507.756897,722.496277 506.247498,720.362610 504.532715,717.961487 
	C504.327271,717.694031 504.663269,717.346680 505.094025,717.044983 
	C506.016510,716.162170 506.508240,715.581055 507.000000,715.000000 
	C507.000000,715.000000 507.368347,714.686707 507.552856,714.530457 
z"/>
<path fill="#A349A4" opacity="1.000000" stroke="none" 
	d="
M519.552979,731.530640 
	C521.233215,733.514893 522.729004,735.655396 524.444458,738.046814 
	C524.664185,738.297729 524.332520,738.649231 523.903931,738.953003 
	C522.983521,739.837830 522.491760,740.418945 522.000000,741.000000 
	C522.000000,741.000000 521.633606,741.315430 521.449951,741.472656 
	C519.756897,739.496277 518.247498,737.362610 516.532715,734.961548 
	C516.327332,734.694092 516.663330,734.346680 517.094116,734.045044 
	C518.016541,733.162292 518.508301,732.581177 519.000000,732.000000 
	C519.000000,732.000000 519.368469,731.686829 519.552979,731.530640 
z"/>
<path fill="#A349A4" opacity="1.000000" stroke="none" 
	d="
M495.552856,697.530457 
	C497.233185,699.514771 498.729004,701.655334 500.444519,704.046814 
	C500.664215,704.297729 500.332489,704.649231 499.903870,704.953003 
	C498.983490,705.837830 498.491760,706.418945 498.000000,707.000000 
	C498.000000,707.000000 497.633514,707.315430 497.449890,707.472656 
	C495.756897,705.496277 494.247498,703.362610 492.532684,700.961487 
	C492.327271,700.694031 492.663269,700.346680 493.094055,700.044983 
	C494.016541,699.162170 494.508270,698.581116 495.000000,698.000000 
	C495.000000,698.000000 495.368347,697.686707 495.552856,697.530457 
z"/>
<path fill="#A349A4" opacity="1.000000" stroke="none" 
	d="
M476.552856,670.530457 
	C478.233215,672.514771 479.729034,674.655334 481.444519,677.046814 
	C481.664215,677.297729 481.332489,677.649231 480.903839,677.953003 
	C479.983459,678.837830 479.491730,679.418884 479.000000,680.000000 
	C479.000000,680.000000 478.633514,680.315430 478.449890,680.472656 
	C476.756897,678.496277 475.247498,676.362610 473.532684,673.961487 
	C473.327271,673.694031 473.663269,673.346680 474.094055,673.044983 
	C475.016541,672.162170 475.508270,671.581116 476.000000,671.000000 
	C476.000000,671.000000 476.368347,670.686707 476.552856,670.530457 
z"/>
<path fill="#A349A4" opacity="1.000000" stroke="none" 
	d="
M380.552856,534.530457 
	C382.233185,536.514771 383.729004,538.655334 385.444519,541.046814 
	C385.664215,541.297729 385.332489,541.649231 384.903839,541.953003 
	C383.983459,542.837830 383.491730,543.418884 383.000000,544.000000 
	C383.000000,544.000000 382.633514,544.315430 382.449890,544.472656 
	C380.756897,542.496277 379.247498,540.362610 377.532684,537.961487 
	C377.327271,537.694031 377.663269,537.346680 378.094055,537.044983 
	C379.016571,536.162231 379.508301,535.581116 380.000000,535.000000 
	C380.000000,535.000000 380.368347,534.686707 380.552856,534.530457 
z"/>
<path fill="#A349A4" opacity="1.000000" stroke="none" 
	d="
M386.425873,435.850037 
	C381.891724,435.216095 384.081421,437.818085 384.603088,439.116516 
	C390.995026,455.026001 397.460388,470.905975 403.912048,486.791443 
	C408.359344,497.741577 412.847015,508.675507 417.253387,519.642090 
	C419.457947,525.128845 418.870392,525.957153 412.823547,525.985168 
	C403.000000,526.030701 393.172180,526.159424 383.354218,525.921631 
	C379.416534,525.826294 376.175964,526.633606 373.314117,529.845703 
	C371.355927,528.680298 369.782959,526.343018 368.055115,526.222290 
	C361.599426,525.771179 355.080963,525.828613 348.613556,526.189087 
	C346.814331,526.289368 344.202179,527.672974 343.503601,529.181335 
	C336.954376,543.322327 330.778687,557.635681 324.417938,571.864807 
	C318.326996,585.490479 312.151001,599.078247 305.978577,612.667297 
	C305.727325,613.220337 305.130157,613.616272 304.288208,614.522156 
	C303.426727,613.228577 302.601776,612.279968 302.093658,611.184448 
	C290.272919,585.697327 278.501984,560.187012 266.656769,534.711304 
	C265.913940,533.113708 264.639435,531.763306 263.306152,530.148926 
	C261.356384,528.680298 259.699249,526.216553 258.071442,526.235840 
	C250.365540,526.326782 242.673477,527.288452 234.963806,527.522583 
	C232.139694,527.608276 229.287949,526.125916 226.436203,526.075745 
	C215.794952,525.888489 205.145889,526.115417 194.506409,525.882751 
	C192.725189,525.843872 190.976929,524.296570 189.054077,523.197754 
	C195.584061,506.356720 202.262421,489.759766 208.966614,473.173218 
	C213.418106,462.159912 217.938629,451.174347 222.336166,440.139648 
	C222.863678,438.816010 222.813354,437.262024 223.351593,435.229553 
	C223.471603,432.484406 223.764313,430.128387 222.995544,428.194336 
	C212.795929,402.534058 202.405258,376.949738 192.194489,351.293823 
	C191.049225,348.416168 190.712219,345.216827 190.000397,342.166656 
	C204.350983,342.111084 218.701904,342.089752 233.051727,341.952606 
	C234.674057,341.937103 236.290131,341.268829 237.898941,340.474304 
	C239.082092,339.413818 240.275406,338.782318 241.793274,338.055664 
	C243.852631,341.154205 246.353668,342.580261 250.128983,342.067810 
	C252.732529,341.714386 255.445755,341.781952 258.068176,342.058105 
	C260.971558,342.363892 262.752350,341.260895 264.184753,338.237823 
	C264.665283,337.180573 264.776276,336.568268 264.887299,335.955994 
	C266.540253,332.518738 268.193207,329.081482 270.200195,325.218536 
	C270.665283,324.180573 270.776276,323.568268 270.887268,322.955994 
	C272.540222,319.518738 274.193176,316.081482 276.200195,312.218536 
	C276.665283,311.180573 276.776306,310.568268 276.887329,309.955994 
	C278.540253,306.518738 280.193207,303.081482 282.200226,299.218536 
	C282.665283,298.180573 282.776306,297.568268 282.887329,296.955994 
	C284.540253,293.518738 286.193207,290.081482 288.200195,286.218536 
	C288.665283,285.180573 288.776306,284.568268 288.887329,283.955994 
	C290.540283,280.518738 292.193237,277.081482 294.200226,273.218536 
	C294.665283,272.180573 294.776276,271.568268 294.887299,270.955994 
	C296.540253,267.518738 298.193207,264.081482 300.200195,260.218536 
	C300.665283,259.180573 300.776276,258.568268 300.887299,257.955994 
	C301.957397,255.792618 303.027466,253.629242 304.593445,251.697357 
	C317.598969,279.775635 330.075256,307.637512 342.695709,335.433929 
	C343.504364,337.215057 345.428253,338.489868 346.833344,340.000244 
	C348.867371,340.666809 350.862427,341.509369 352.942108,341.969788 
	C362.455231,344.075714 367.865265,339.461792 372.995117,331.672729 
	C385.688721,312.399017 399.376923,293.780334 413.297699,274.974670 
	C414.825836,275.948669 415.721710,276.846497 416.617584,277.744324 
	C401.773163,298.842041 386.928772,319.939758 371.673035,341.622101 
	C373.488037,341.772858 374.854187,341.982544 376.220734,341.984985 
	C390.052063,342.009430 403.883484,341.986420 417.714844,342.006897 
	C423.247498,342.015076 423.959625,342.917786 421.909454,348.069397 
	C414.312012,367.159882 406.604889,386.206665 398.941803,405.270996 
	C394.871033,415.398346 390.806000,425.528015 386.425873,435.850037 
z"/>
<path fill="#A349A4" opacity="1.000000" stroke="none" 
	d="
M346.891602,339.633148 
	C345.428253,338.489868 343.504364,337.215057 342.695709,335.433929 
	C330.075256,307.637512 317.598969,279.775635 304.937775,251.547775 
	C306.059723,252.148209 307.914429,252.858688 308.518005,254.152710 
	C315.411591,268.932007 322.157501,283.780853 328.855591,298.650452 
	C334.942810,312.163849 340.922699,325.725616 346.891602,339.633148 
z"/>
<path fill="#A349A4" opacity="1.000000" stroke="none" 
	d="
M415.607361,271.072144 
	C416.913574,271.710663 417.944519,272.461212 419.190765,273.539825 
	C418.789551,274.549011 418.173004,275.230164 417.220978,275.670319 
	C415.869629,274.618408 414.853760,273.807495 413.837891,272.996582 
	C414.335938,272.392456 414.833984,271.788330 415.607361,271.072144 
z"/>
<path fill="#A349A4" opacity="1.000000" stroke="none" 
	d="
M413.564880,273.141632 
	C414.853760,273.807495 415.869629,274.618408 416.962891,275.773132 
	C417.002930,276.498199 416.965576,276.879486 416.772888,277.502563 
	C415.721710,276.846497 414.825836,275.948669 413.548340,274.765747 
	C413.208435,274.082672 413.250153,273.684662 413.564880,273.141632 
z"/>
<path fill="#A349A4" opacity="1.000000" stroke="none" 
	d="
M300.611877,258.092712 
	C300.776276,258.568268 300.665283,259.180573 300.360474,259.896271 
	C300.223267,259.409607 300.279846,258.819489 300.611877,258.092712 
z"/>
<path fill="#A349A4" opacity="1.000000" stroke="none" 
	d="
M294.611877,271.092712 
	C294.776276,271.568268 294.665283,272.180573 294.360474,272.896271 
	C294.223236,272.409607 294.279846,271.819489 294.611877,271.092712 
z"/>
<path fill="#A349A4" opacity="1.000000" stroke="none" 
	d="
M288.611877,284.092712 
	C288.776306,284.568268 288.665283,285.180573 288.360474,285.896271 
	C288.223267,285.409607 288.279877,284.819489 288.611877,284.092712 
z"/>
<path fill="#A349A4" opacity="1.000000" stroke="none" 
	d="
M282.611877,297.092712 
	C282.776306,297.568268 282.665283,298.180573 282.360474,298.896271 
	C282.223267,298.409607 282.279846,297.819489 282.611877,297.092712 
z"/>
<path fill="#A349A4" opacity="1.000000" stroke="none" 
	d="
M276.611877,310.092712 
	C276.776306,310.568268 276.665283,311.180573 276.360474,311.896271 
	C276.223267,311.409607 276.279846,310.819489 276.611877,310.092712 
z"/>
<path fill="#A349A4" opacity="1.000000" stroke="none" 
	d="
M270.611877,323.092712 
	C270.776276,323.568268 270.665283,324.180573 270.360474,324.896271 
	C270.223236,324.409607 270.279846,323.819489 270.611877,323.092712 
z"/>
<path fill="#A349A4" opacity="1.000000" stroke="none" 
	d="
M264.611877,336.092712 
	C264.776276,336.568268 264.665283,337.180573 264.360443,337.896271 
	C264.223236,337.409607 264.279846,336.819489 264.611877,336.092712 
z"/>
<path fill="#A349A4" opacity="1.000000" stroke="none" 
	d="
M189.626495,342.109741 
	C190.712219,345.216827 191.049225,348.416168 192.194489,351.293823 
	C202.405258,376.949738 212.795929,402.534058 222.995544,428.194336 
	C223.764313,430.128387 223.471603,432.484406 223.419495,434.821960 
	C212.430130,408.267151 201.690491,381.535889 190.961563,354.800323 
	C189.810272,351.931396 188.449051,349.102417 187.738861,346.122925 
	C187.460007,344.952972 188.702774,343.420319 189.626495,342.109741 
z"/>
<path fill="#A349A4" opacity="1.000000" stroke="none" 
	d="
M600.393799,853.602417 
	C600.694336,853.142151 601.021606,852.663452 601.348877,852.184753 
	C601.593201,852.401672 601.837524,852.618652 602.081848,852.835571 
	C601.664551,853.020325 601.247253,853.205078 600.607056,853.513794 
	C600.384094,853.637695 600.420532,853.583923 600.393799,853.602417 
z"/>
<path fill="#A349A4" opacity="1.000000" stroke="none" 
	d="
M593.393799,843.602417 
	C593.694336,843.142151 594.021606,842.663452 594.348877,842.184753 
	C594.593262,842.401733 594.837646,842.618774 595.082031,842.835754 
	C594.664734,843.020508 594.247437,843.205261 593.607117,843.513794 
	C593.384094,843.637695 593.420532,843.583923 593.393799,843.602417 
z"/>
<path fill="#A349A4" opacity="1.000000" stroke="none" 
	d="
M588.393799,836.602417 
	C588.694336,836.142151 589.021606,835.663452 589.348938,835.184753 
	C589.593262,835.401733 589.837646,835.618713 590.081970,835.835693 
	C589.664673,836.020447 589.247437,836.205200 588.607117,836.513794 
	C588.384094,836.637695 588.420532,836.583923 588.393799,836.602417 
z"/>
<path fill="#A349A4" opacity="1.000000" stroke="none" 
	d="
M581.393799,826.602417 
	C581.694336,826.142151 582.021606,825.663452 582.348877,825.184753 
	C582.593262,825.401733 582.837646,825.618713 583.081970,825.835754 
	C582.664734,826.020447 582.247437,826.205200 581.607117,826.513794 
	C581.384094,826.637695 581.420532,826.583923 581.393799,826.602417 
z"/>
<path fill="#A349A4" opacity="1.000000" stroke="none" 
	d="
M577.262390,818.871704 
	C577.491760,818.418884 577.983521,817.837769 578.737610,817.128296 
	C578.508301,817.581116 578.016541,818.162231 577.262390,818.871704 
z"/>
<path fill="#A349A4" opacity="1.000000" stroke="none" 
	d="
M379.737610,535.128357 
	C379.508301,535.581116 379.016571,536.162231 378.262390,536.871643 
	C378.491699,536.418884 378.983429,535.837769 379.737610,535.128357 
z"/>
<path fill="#A349A4" opacity="1.000000" stroke="none" 
	d="
M413.393799,588.602539 
	C413.694336,588.142212 414.021637,587.663513 414.348938,587.184753 
	C414.593292,587.401733 414.837646,587.618713 415.082001,587.835693 
	C414.664734,588.020447 414.247437,588.205200 413.607117,588.513855 
	C413.384064,588.637817 413.420563,588.584045 413.393799,588.602539 
z"/>
<path fill="#A349A4" opacity="1.000000" stroke="none" 
	d="
M402.262390,570.871643 
	C402.491730,570.418884 402.983459,569.837830 403.737579,569.128357 
	C403.508240,569.581055 403.016510,570.162170 402.262390,570.871643 
z"/>
<path fill="#A349A4" opacity="1.000000" stroke="none" 
	d="
M406.393829,578.602539 
	C406.694366,578.142212 407.021667,577.663513 407.348938,577.184753 
	C407.593353,577.401794 407.837769,577.618835 408.082184,577.835876 
	C407.664886,578.020630 407.247620,578.205322 406.607178,578.513916 
	C406.384064,578.637817 406.420563,578.584045 406.393829,578.602539 
z"/>
<path fill="#A349A4" opacity="1.000000" stroke="none" 
	d="
M418.393799,595.602539 
	C418.694366,595.142212 419.021667,594.663513 419.348938,594.184753 
	C419.593384,594.401855 419.837799,594.618896 420.082214,594.835938 
	C419.664917,595.020630 419.247620,595.205383 418.607208,595.513916 
	C418.384064,595.637817 418.420563,595.584045 418.393799,595.602539 
z"/>
<path fill="#A349A4" opacity="1.000000" stroke="none" 
	d="
M425.393829,605.602539 
	C425.694397,605.142273 426.021698,604.663513 426.348999,604.184814 
	C426.593323,604.401794 426.837677,604.618774 427.082031,604.835754 
	C426.664734,605.020447 426.247467,605.205200 425.607117,605.513855 
	C425.384064,605.637817 425.420563,605.584045 425.393829,605.602539 
z"/>
<path fill="#A349A4" opacity="1.000000" stroke="none" 
	d="
M432.737610,610.128357 
	C432.508270,610.581116 432.016541,611.162170 431.262390,611.871643 
	C431.491730,611.418884 431.983459,610.837830 432.737610,610.128357 
z"/>
<path fill="#A349A4" opacity="1.000000" stroke="none" 
	d="
M455.262390,645.871643 
	C455.491699,645.418884 455.983429,644.837769 456.737579,644.128357 
	C456.508270,644.581116 456.016541,645.162170 455.262390,645.871643 
z"/>
<path fill="#A349A4" opacity="1.000000" stroke="none" 
	d="
M461.393829,656.602539 
	C461.694397,656.142273 462.021698,655.663513 462.348969,655.184814 
	C462.593353,655.401794 462.837708,655.618774 463.082092,655.835815 
	C462.664795,656.020508 462.247528,656.205261 461.607147,656.513916 
	C461.384064,656.637817 461.420563,656.584045 461.393829,656.602539 
z"/>
<path fill="#A349A4" opacity="1.000000" stroke="none" 
	d="
M466.393860,663.602539 
	C466.694427,663.142273 467.021729,662.663574 467.349030,662.184814 
	C467.593323,662.401794 467.837646,662.618713 468.081940,662.835632 
	C467.664673,663.020386 467.247375,663.205078 466.607056,663.513794 
	C466.384064,663.637817 466.420563,663.584045 466.393860,663.602539 
z"/>
<path fill="#A349A4" opacity="1.000000" stroke="none" 
	d="
M475.737610,671.128357 
	C475.508270,671.581116 475.016541,672.162170 474.262390,672.871643 
	C474.491730,672.418884 474.983459,671.837830 475.737610,671.128357 
z"/>
<path fill="#A349A4" opacity="1.000000" stroke="none" 
	d="
M559.737610,790.128296 
	C559.508301,790.581116 559.016541,791.162231 558.262390,791.871704 
	C558.491760,791.418884 558.983521,790.837769 559.737610,790.128296 
z"/>
<path fill="#A349A4" opacity="1.000000" stroke="none" 
	d="
M552.393799,785.602417 
	C552.694336,785.142151 553.021606,784.663452 553.348877,784.184753 
	C553.593323,784.401794 553.837708,784.618835 554.082092,784.835815 
	C553.664795,785.020569 553.247559,785.205322 552.607178,785.513916 
	C552.384094,785.637695 552.420532,785.583923 552.393799,785.602417 
z"/>
<path fill="#A349A4" opacity="1.000000" stroke="none" 
	d="
M545.393799,775.602417 
	C545.694336,775.142151 546.021606,774.663452 546.348938,774.184753 
	C546.593262,774.401733 546.837585,774.618713 547.081909,774.835693 
	C546.664673,775.020386 546.247375,775.205139 545.607056,775.513794 
	C545.384094,775.637695 545.420532,775.583923 545.393799,775.602417 
z"/>
<path fill="#A349A4" opacity="1.000000" stroke="none" 
	d="
M541.262390,767.871704 
	C541.491760,767.418884 541.983459,766.837769 542.737610,766.128296 
	C542.508240,766.581116 542.016479,767.162231 541.262390,767.871704 
z"/>
<path fill="#A349A4" opacity="1.000000" stroke="none" 
	d="
M390.262390,553.871643 
	C390.491730,553.418884 390.983459,552.837830 391.737610,552.128357 
	C391.508270,552.581116 391.016541,553.162170 390.262390,553.871643 
z"/>
<path fill="#A349A4" opacity="1.000000" stroke="none" 
	d="
M394.393829,561.602539 
	C394.694397,561.142273 395.021698,560.663513 395.348969,560.184814 
	C395.593384,560.401794 395.837769,560.618835 396.082184,560.835876 
	C395.664886,561.020630 395.247589,561.205322 394.607178,561.513916 
	C394.384064,561.637817 394.420563,561.584045 394.393829,561.602539 
z"/>
<path fill="#A349A4" opacity="1.000000" stroke="none" 
	d="
M571.737610,807.128296 
	C571.508240,807.581116 571.016541,808.162231 570.262390,808.871704 
	C570.491760,808.418884 570.983521,807.837769 571.737610,807.128296 
z"/>
<path fill="#A349A4" opacity="1.000000" stroke="none" 
	d="
M564.393799,802.602417 
	C564.694336,802.142151 565.021667,801.663452 565.348938,801.184753 
	C565.593262,801.401733 565.837585,801.618713 566.081970,801.835693 
	C565.664673,802.020447 565.247375,802.205139 564.607056,802.513794 
	C564.384094,802.637695 564.420532,802.583923 564.393799,802.602417 
z"/>
<path fill="#A349A4" opacity="1.000000" stroke="none" 
	d="
M533.393799,758.602417 
	C533.694397,758.142151 534.021667,757.663452 534.348938,757.184753 
	C534.593323,757.401794 534.837708,757.618774 535.082092,757.835815 
	C534.664795,758.020569 534.247498,758.205322 533.607178,758.513916 
	C533.384094,758.637695 533.420532,758.583923 533.393799,758.602417 
z"/>
<path fill="#A349A4" opacity="1.000000" stroke="none" 
	d="
M529.262390,750.871704 
	C529.491760,750.418884 529.983459,749.837769 530.737610,749.128296 
	C530.508240,749.581116 530.016541,750.162231 529.262390,750.871704 
z"/>
<path fill="#A349A4" opacity="1.000000" stroke="none" 
	d="
M486.262390,689.871643 
	C486.491730,689.418884 486.983459,688.837830 487.737610,688.128357 
	C487.508270,688.581116 487.016541,689.162170 486.262390,689.871643 
z"/>
<path fill="#A349A4" opacity="1.000000" stroke="none" 
	d="
M494.737610,698.128357 
	C494.508270,698.581116 494.016541,699.162170 493.262390,699.871643 
	C493.491730,699.418884 493.983459,698.837830 494.737610,698.128357 
z"/>
<path fill="#A349A4" opacity="1.000000" stroke="none" 
	d="
M506.737579,715.128357 
	C506.508240,715.581055 506.016510,716.162170 505.262390,716.871643 
	C505.491730,716.418884 505.983459,715.837830 506.737579,715.128357 
z"/>
<path fill="#A349A4" opacity="1.000000" stroke="none" 
	d="
M498.262390,706.871643 
	C498.491760,706.418945 498.983490,705.837830 499.737610,705.128357 
	C499.508240,705.581055 499.016510,706.162170 498.262390,706.871643 
z"/>
<path fill="#A349A4" opacity="1.000000" stroke="none" 
	d="
M383.262390,543.871582 
	C383.491730,543.418884 383.983459,542.837830 384.737579,542.128296 
	C384.508240,542.581055 384.016510,543.162170 383.262390,543.871582 
z"/>
<path fill="#A349A4" opacity="1.000000" stroke="none" 
	d="
M522.262451,740.871704 
	C522.491760,740.418945 522.983521,739.837830 523.737671,739.128357 
	C523.508240,739.581116 523.016479,740.162231 522.262451,740.871704 
z"/>
<path fill="#A349A4" opacity="1.000000" stroke="none" 
	d="
M518.737671,732.128357 
	C518.508301,732.581177 518.016541,733.162292 517.262451,733.871704 
	C517.491760,733.418884 517.983459,732.837769 518.737671,732.128357 
z"/>
<path fill="#A349A4" opacity="1.000000" stroke="none" 
	d="
M510.262421,723.871643 
	C510.491760,723.418945 510.983490,722.837830 511.737610,722.128357 
	C511.508270,722.581116 511.016541,723.162170 510.262421,723.871643 
z"/>
<path fill="#A349A4" opacity="1.000000" stroke="none" 
	d="
M479.262390,679.871643 
	C479.491730,679.418884 479.983459,678.837830 480.737579,678.128357 
	C480.508240,678.581055 480.016510,679.162170 479.262390,679.871643 
z"/>
<path fill="#A349A4" opacity="1.000000" stroke="none" 
	d="
M439.737610,620.128357 
	C439.508270,620.581116 439.016541,621.162170 438.262390,621.871643 
	C438.491730,621.418884 438.983459,620.837830 439.737610,620.128357 
z"/>
<path fill="#A349A4" opacity="1.000000" stroke="none" 
	d="
M443.262390,628.871643 
	C443.491699,628.418884 443.983429,627.837769 444.737610,627.128357 
	C444.508301,627.581116 444.016571,628.162231 443.262390,628.871643 
z"/>
<path fill="#A349A4" opacity="1.000000" stroke="none" 
	d="
M451.737610,637.128357 
	C451.508301,637.581116 451.016571,638.162231 450.262421,638.871643 
	C450.491730,638.418884 450.983459,637.837830 451.737610,637.128357 
z"/>
</svg>