<svg version="1.1" id="Layer_1" xmlns="http://www.w3.org/2000/svg" xmlns:xlink="http://www.w3.org/1999/xlink" x="0px" y="0px"
	 width="100%" viewBox="0 0 607 864" enable-background="new 0 0 607 864" xml:space="preserve">
<path fill="#000000" opacity="1.000000" stroke="none" 
	d="
M1.000000,857.000000 
	C1.000000,573.970642 1.000000,290.941254 1.273352,7.521177 
	C2.031377,7.364746 2.516049,7.599040 3.296277,8.022270 
	C12.064649,20.310892 20.502424,32.435295 29.016960,44.505550 
	C53.055191,78.582298 77.112640,112.645500 101.185745,146.697632 
	C124.595779,179.811813 148.043655,212.899231 171.457626,246.010620 
	C187.573288,268.800903 203.714172,291.574036 219.641541,314.495331 
	C220.758636,316.102966 221.044449,319.222809 220.291916,321.053864 
	C210.061630,345.945374 199.577301,370.732513 189.161316,395.547760 
	C187.250504,400.100128 187.817505,400.974213 192.950180,400.985931 
	C208.777908,401.022156 224.605789,400.992462 240.433563,401.010590 
	C242.191986,401.012604 243.950256,401.157623 245.476059,401.225922 
	C245.728882,401.962494 245.826920,402.115051 245.827164,402.267700 
	C245.887268,438.251251 245.948837,474.234772 245.953552,510.218323 
	C245.953690,511.287354 245.607117,512.534302 244.997894,513.399536 
	C228.832687,536.357178 212.552826,559.234131 196.413895,582.210144 
	C173.010223,615.528564 149.736588,648.938232 126.341751,682.262817 
	C105.777924,711.554932 85.122856,740.782959 64.509827,770.040466 
	C54.107410,784.805359 43.655197,799.535461 33.323975,814.350037 
	C23.468794,828.481934 13.741525,842.703003 3.559907,856.948242 
	C2.441187,857.007690 1.720593,857.003845 1.000000,857.000000 
z"/>
<path fill="#000000" opacity="1.000000" stroke="none" 
	d="
M608.000000,9.000000 
	C608.000000,290.362701 608.000000,571.725403 607.695801,853.786560 
	C606.756714,853.954468 605.970581,853.530945 605.508972,852.877991 
	C585.987854,825.263916 566.512085,797.617615 546.994751,770.000793 
	C531.170166,747.609009 515.273682,725.268005 499.456177,702.871216 
	C477.008972,671.087158 454.610748,639.268494 432.180939,607.472168 
	C412.213318,579.166260 392.174225,550.910400 372.340546,522.511047 
	C370.287537,519.571411 368.214600,515.814941 368.185852,512.420227 
	C367.885254,476.936279 367.997345,441.448761 368.011047,405.962250 
	C368.011658,404.378784 368.165253,402.795410 368.258636,400.999817 
	C385.868713,400.999817 402.854889,401.005371 419.841034,400.996979 
	C426.380463,400.993744 427.063080,400.081451 424.632599,394.269531 
	C413.431915,367.485748 402.194702,340.717285 390.968567,313.938507 
	C398.247803,303.796204 405.517670,293.857117 412.589386,283.778992 
	C435.880371,250.586014 459.059784,217.314713 482.358368,184.127060 
	C503.016907,154.699982 523.802673,125.362221 544.482544,95.950104 
	C555.717651,79.970848 566.853394,63.921741 578.026123,47.898632 
	C587.037537,34.975067 596.037109,22.043245 605.440063,9.051746 
	C606.558777,8.992273 607.279419,8.996137 608.000000,9.000000 
z"/>
<path fill="#000000" opacity="1.000000" stroke="none" 
	d="
M608.000000,864.000000 
	C607.833679,864.333313 607.684753,864.943787 607.498230,864.955505 
	C606.171082,865.038940 604.836243,865.000000 603.503845,865.000000 
	C403.976746,865.000000 204.449615,865.000000 4.532464,864.722046 
	C4.466496,863.976746 4.790572,863.509521 5.417857,862.887756 
	C22.126764,839.345093 38.502144,815.935608 54.945412,792.573975 
	C78.202431,759.531799 101.518761,726.531372 124.792053,693.500671 
	C139.737167,672.289673 154.696136,651.088318 169.567657,629.825745 
	C193.097443,596.184021 216.551315,562.489258 240.068542,528.838745 
	C241.506073,526.781860 243.216751,524.915833 244.800339,522.960938 
	C245.200211,523.074402 245.600082,523.187866 245.999954,523.301331 
	C245.999954,525.206665 245.999969,527.111938 245.999969,529.017273 
	C246.000031,577.183716 246.066452,625.350342 245.898956,673.516174 
	C245.881927,678.410889 246.980972,680.148315 252.223190,680.116577 
	C288.721649,679.895508 325.222687,679.899170 361.721252,680.113892 
	C366.888000,680.144226 368.123230,678.539185 368.104553,673.571777 
	C367.928497,626.739258 367.999969,579.905945 368.000031,533.072815 
	C368.000031,531.158203 368.000031,529.243591 368.000031,526.407898 
	C369.525421,527.516968 370.303833,527.835876 370.709839,528.415588 
	C375.889618,535.812378 380.963470,543.283569 386.164948,550.664856 
	C410.099792,584.629700 434.068726,618.570557 458.020966,652.523254 
	C480.364014,684.194885 502.711945,715.863098 525.038391,747.546509 
	C547.174072,778.959229 569.250732,810.413696 591.436157,841.791260 
	C596.066345,848.339844 601.059387,854.631836 605.941284,861.364319 
	C606.664917,862.457703 607.332458,863.228821 608.000000,864.000000 
z"/>
<path fill="#000000" opacity="1.000000" stroke="none" 
	d="
M6.000000,1.000000 
	C205.025833,1.000000 404.051666,1.000000 603.557983,1.245865 
	C604.038513,1.491729 604.166626,1.968045 604.008911,2.280329 
	C595.919189,13.874622 588.005737,25.169817 580.051453,36.436119 
	C557.512756,68.359467 534.930054,100.251785 512.417908,132.193756 
	C496.717590,154.470566 481.095856,176.802826 465.454987,199.121475 
	C442.652008,231.659912 419.876373,264.217529 397.049988,296.739502 
	C394.572571,300.269226 391.836761,303.617584 388.855774,307.529083 
	C387.778320,305.369934 387.286041,304.508179 386.904236,303.600006 
	C379.275299,285.453033 371.652374,267.303528 364.042145,249.148682 
	C355.413483,228.564285 346.738861,207.998871 338.193695,187.379852 
	C328.898102,164.950134 319.751190,142.458786 310.439514,120.035820 
	C309.946442,118.848488 308.540009,117.301949 307.528748,117.279556 
	C306.551025,117.257919 305.102661,118.806824 304.600586,119.981865 
	C298.346283,134.620148 292.209442,149.308792 286.076874,163.998886 
	C277.038086,185.650620 268.028198,207.314407 259.003784,228.972153 
	C248.969284,253.054062 238.951431,277.142944 228.874451,301.207062 
	C227.469711,304.561646 225.769104,307.792297 223.710648,312.120880 
	C222.558624,310.465057 221.984924,309.639648 221.410385,308.814789 
	C212.309265,295.749207 203.260269,282.646881 194.096466,269.625397 
	C171.797089,237.938675 149.453430,206.283066 127.110786,174.626816 
	C103.063637,140.555542 78.985947,106.505844 54.943417,72.431328 
	C39.138065,50.031040 23.357527,27.613169 7.626202,5.160903 
	C6.795910,3.975882 6.529121,2.396039 6.000000,1.000000 
z"/>
<path fill="#22B14C" opacity="1.000000" stroke="none" 
	d="
M5.600004,1.000000 
	C6.529121,2.396039 6.795910,3.975882 7.626202,5.160903 
	C23.357527,27.613169 39.138065,50.031040 54.943417,72.431328 
	C78.985947,106.505844 103.063637,140.555542 127.110786,174.626816 
	C149.453430,206.283066 171.797089,237.938675 194.096466,269.625397 
	C203.260269,282.646881 212.309265,295.749207 221.410385,308.814789 
	C221.984924,309.639648 222.558624,310.465057 223.710648,312.120880 
	C225.769104,307.792297 227.469711,304.561646 228.874451,301.207062 
	C238.951431,277.142944 248.969284,253.054062 259.003784,228.972153 
	C268.028198,207.314407 277.038086,185.650620 286.076874,163.998886 
	C292.209442,149.308792 298.346283,134.620148 304.600586,119.981865 
	C305.102661,118.806824 306.551025,117.257919 307.528748,117.279556 
	C308.540009,117.301949 309.946442,118.848488 310.439514,120.035820 
	C319.751190,142.458786 328.898102,164.950134 338.193695,187.379852 
	C346.738861,207.998871 355.413483,228.564285 364.042145,249.148682 
	C371.652374,267.303528 379.275299,285.453033 386.904236,303.600006 
	C387.286041,304.508179 387.778320,305.369934 388.855774,307.529083 
	C391.836761,303.617584 394.572571,300.269226 397.049988,296.739502 
	C419.876373,264.217529 442.652008,231.659912 465.454987,199.121475 
	C481.095856,176.802826 496.717590,154.470566 512.417908,132.193756 
	C534.930054,100.251785 557.512756,68.359467 580.051453,36.436119 
	C588.005737,25.169817 595.919189,13.874622 604.152893,2.123412 
	C604.643311,1.441919 604.825134,1.223848 605.000000,1.000000 
	C605.444458,1.000000 605.888916,1.000000 606.828918,1.171058 
	C607.543884,1.567355 607.769043,1.786649 608.000000,2.000000 
	C608.000000,3.066669 608.000000,4.133338 607.714478,5.739895 
	C606.633240,7.224887 605.837585,8.169992 605.041931,9.115089 
	C596.037109,22.043245 587.037537,34.975067 578.026123,47.898632 
	C566.853394,63.921741 555.717651,79.970848 544.482544,95.950104 
	C523.802673,125.362221 503.016907,154.699982 482.358368,184.127060 
	C459.059784,217.314713 435.880371,250.586014 412.589386,283.778992 
	C405.517670,293.857117 398.247803,303.796204 390.968567,313.938507 
	C402.194702,340.717285 413.431915,367.485748 424.632599,394.269531 
	C427.063080,400.081451 426.380463,400.993744 419.841034,400.996979 
	C402.854889,401.005371 385.868713,400.999817 368.258636,400.999817 
	C368.165253,402.795410 368.011658,404.378784 368.011047,405.962250 
	C367.997345,441.448761 367.885254,476.936279 368.185852,512.420227 
	C368.214600,515.814941 370.287537,519.571411 372.340546,522.511047 
	C392.174225,550.910400 412.213318,579.166260 432.180939,607.472168 
	C454.610748,639.268494 477.008972,671.087158 499.456177,702.871216 
	C515.273682,725.268005 531.170166,747.609009 546.994751,770.000793 
	C566.512085,797.617615 585.987854,825.263916 605.508972,852.877991 
	C605.970581,853.530945 606.756714,853.954468 607.695801,854.242493 
	C608.000000,856.041687 608.000000,858.083313 607.647522,860.568909 
	C606.825073,861.022583 606.355164,861.032349 605.885193,861.042114 
	C601.059387,854.631836 596.066345,848.339844 591.436157,841.791260 
	C569.250732,810.413696 547.174072,778.959229 525.038391,747.546509 
	C502.711945,715.863098 480.364014,684.194885 458.020966,652.523254 
	C434.068726,618.570557 410.099792,584.629700 386.164948,550.664856 
	C380.963470,543.283569 375.889618,535.812378 370.709839,528.415588 
	C370.303833,527.835876 369.525421,527.516968 368.000031,526.407898 
	C368.000031,529.243591 368.000031,531.158203 368.000031,533.072815 
	C367.999969,579.905945 367.928497,626.739258 368.104553,673.571777 
	C368.123230,678.539185 366.888000,680.144226 361.721252,680.113892 
	C325.222687,679.899170 288.721649,679.895508 252.223190,680.116577 
	C246.980972,680.148315 245.881927,678.410889 245.898956,673.516174 
	C246.066452,625.350342 246.000031,577.183716 245.999969,529.017273 
	C245.999969,527.111938 245.999954,525.206665 245.999954,523.301331 
	C245.600082,523.187866 245.200211,523.074402 244.800339,522.960938 
	C243.216751,524.915833 241.506073,526.781860 240.068542,528.838745 
	C216.551315,562.489258 193.097443,596.184021 169.567657,629.825745 
	C154.696136,651.088318 139.737167,672.289673 124.792053,693.500671 
	C101.518761,726.531372 78.202431,759.531799 54.945412,792.573975 
	C38.502144,815.935608 22.126764,839.345093 5.006261,862.879639 
	C3.194305,863.017395 2.097152,863.008728 1.000000,863.000000 
	C1.000000,862.250000 1.000000,861.500000 1.285569,860.235107 
	C2.366768,858.775085 3.162397,857.830017 3.958030,856.884949 
	C13.741525,842.703003 23.468794,828.481934 33.323975,814.350037 
	C43.655197,799.535461 54.107410,784.805359 64.509827,770.040466 
	C85.122856,740.782959 105.777924,711.554932 126.341751,682.262817 
	C149.736588,648.938232 173.010223,615.528564 196.413895,582.210144 
	C212.552826,559.234131 228.832687,536.357178 244.997894,513.399536 
	C245.607117,512.534302 245.953690,511.287354 245.953552,510.218323 
	C245.948837,474.234772 245.887268,438.251251 245.827164,402.267700 
	C245.826920,402.115051 245.728882,401.962494 245.476059,401.225922 
	C243.950256,401.157623 242.191986,401.012604 240.433563,401.010590 
	C224.605789,400.992462 208.777908,401.022156 192.950180,400.985931 
	C187.817505,400.974213 187.250504,400.100128 189.161316,395.547760 
	C199.577301,370.732513 210.061630,345.945374 220.291916,321.053864 
	C221.044449,319.222809 220.758636,316.102966 219.641541,314.495331 
	C203.714172,291.574036 187.573288,268.800903 171.457626,246.010620 
	C148.043655,212.899231 124.595779,179.811813 101.185745,146.697632 
	C77.112640,112.645500 53.055191,78.582298 29.016960,44.505550 
	C20.502424,32.435295 12.064649,20.310892 3.202330,7.739840 
	C2.208551,6.512314 1.604276,5.756157 1.000000,5.000000 
	C1.000000,4.250000 1.000000,3.500000 1.171056,2.212759 
	C1.567363,1.456143 1.786658,1.230971 2.000000,1.000000 
	C3.066669,1.000000 4.133338,1.000000 5.600004,1.000000 
z"/>
<path fill="#22B14C" opacity="1.000000" stroke="none" 
	d="
M605.440063,9.051754 
	C605.837585,8.169992 606.633240,7.224887 607.714478,6.139891 
	C608.000000,6.750000 608.000000,7.500000 608.000000,8.625000 
	C607.279419,8.996137 606.558777,8.992273 605.440063,9.051754 
z"/>
<path fill="#22B14C" opacity="1.000000" stroke="none" 
	d="
M3.559903,856.948242 
	C3.162397,857.830017 2.366768,858.775085 1.285569,859.860107 
	C1.000000,859.250000 1.000000,858.500000 1.000000,857.375000 
	C1.720593,857.003845 2.441187,857.007690 3.559903,856.948242 
z"/>
<path fill="#22B14C" opacity="1.000000" stroke="none" 
	d="
M0.999997,863.500000 
	C2.097152,863.008728 3.194305,863.017395 4.703053,863.034180 
	C4.790572,863.509521 4.466496,863.976746 4.071206,864.722046 
	C2.999994,864.666687 1.999994,864.333374 0.999997,863.500000 
z"/>
<path fill="#22B14C" opacity="1.000000" stroke="none" 
	d="
M1.000000,5.333333 
	C1.604276,5.756157 2.208551,6.512314 2.906774,7.550902 
	C2.516049,7.599040 2.031377,7.364746 1.273352,7.065227 
	C1.000000,6.555555 1.000000,6.111111 1.000000,5.333333 
z"/>
<path fill="#22B14C" opacity="1.000000" stroke="none" 
	d="
M605.941284,861.364319 
	C606.355164,861.032349 606.825073,861.022583 607.647522,861.006409 
	C608.000000,861.750000 608.000000,862.500000 608.000000,863.625000 
	C607.332458,863.228821 606.664917,862.457703 605.941284,861.364319 
z"/>
<path fill="#22B14C" opacity="1.000000" stroke="none" 
	d="
M1.500000,1.000000 
	C1.786658,1.230971 1.567363,1.456143 1.171056,1.837758 
	C1.000000,1.666667 1.000000,1.333333 1.500000,1.000000 
z"/>
<path fill="#22B14C" opacity="1.000000" stroke="none" 
	d="
M604.750000,1.000000 
	C604.825134,1.223848 604.643311,1.441919 604.310547,1.811129 
	C604.166626,1.968045 604.038513,1.491729 604.019287,1.245865 
	C604.000000,1.000000 604.500000,1.000000 604.750000,1.000000 
z"/>
<path fill="#22B14C" opacity="1.000000" stroke="none" 
	d="
M608.000000,1.500000 
	C607.769043,1.786649 607.543884,1.567355 607.162231,1.171058 
	C607.333313,1.000000 607.666687,1.000000 608.000000,1.500000 
z"/>
</svg>