<svg version="1.1" id="Layer_1" xmlns="http://www.w3.org/2000/svg" xmlns:xlink="http://www.w3.org/1999/xlink" x="0px" y="0px"
	 width="100%" viewBox="0 0 607 864" enable-background="new 0 0 607 864" xml:space="preserve">
<path fill="#000000" opacity="1.000000" stroke="none" 
	d="
M1.000004,857.000000 
	C1.000000,574.303955 1.000000,291.607941 1.287430,8.153687 
	C2.627030,8.331520 3.899130,9.110147 4.698605,10.227070 
	C18.114622,28.970190 31.513742,47.725739 44.831932,66.538475 
	C64.848457,94.813019 84.819702,123.119675 104.771652,151.439850 
	C122.541649,176.662903 140.259277,201.922852 157.882980,227.473068 
	C151.876495,233.323349 146.055145,238.941803 140.076782,244.387939 
	C134.992020,249.020004 129.728867,253.456390 124.539803,257.973785 
	C120.982086,261.071014 118.825287,264.295807 118.835709,269.685822 
	C119.053383,382.255371 119.066269,494.825531 118.814285,607.394897 
	C118.800972,613.343079 121.701256,616.435608 125.337074,619.748230 
	C134.538315,628.131653 143.776566,636.474426 152.685547,644.992432 
	C137.563232,666.285706 122.774940,687.433655 107.942833,708.550903 
	C86.628510,738.897278 65.283379,769.221924 43.949268,799.554382 
	C30.977430,817.997498 18.030687,836.458496 4.955255,854.827820 
	C4.169812,855.931274 2.342515,856.293091 1.000004,857.000000 
z"/>
<path fill="#000000" opacity="1.000000" stroke="none" 
	d="
M6.000000,1.000000 
	C205.025833,1.000000 404.051666,1.000000 603.553711,1.248312 
	C604.029968,1.496625 604.166565,1.975054 604.103821,2.288125 
	C604.345032,3.364357 604.648987,4.127519 604.596069,4.945403 
	C601.908630,7.164700 599.578125,9.329273 597.157593,11.765800 
	C597.087219,12.227705 597.106873,12.417659 596.864075,12.784979 
	C594.483704,15.804737 592.365784,18.647131 590.157776,21.762558 
	C590.087280,22.226263 590.106934,22.416937 589.864075,22.784981 
	C587.483704,25.804747 585.365784,28.647142 583.159302,31.753052 
	C583.094666,32.200352 583.118713,32.384136 582.882202,32.755753 
	C571.803528,48.360497 560.985352,63.777409 550.110657,79.293091 
	C550.054199,79.391869 550.126587,79.607613 549.865601,79.783844 
	C548.151672,81.803528 546.698853,83.646973 545.156616,85.763367 
	C545.087036,86.226746 545.106812,86.417191 544.864075,86.785004 
	C542.483643,89.804787 540.365784,92.647202 538.157715,95.762634 
	C538.087280,96.226303 538.106934,96.416962 537.864075,96.785004 
	C535.483704,99.804787 533.365784,102.647209 531.157715,105.762634 
	C531.087280,106.226303 531.106934,106.416962 530.864075,106.784988 
	C528.483643,109.804779 526.365784,112.647194 524.158447,115.758247 
	C524.090698,116.214401 524.112427,116.401909 523.873718,116.770615 
	C521.490234,119.803299 519.367126,122.654785 517.155457,125.775299 
	C517.086792,126.232086 517.106689,126.419846 516.865540,126.783844 
	C515.151672,128.803513 513.698792,130.646957 512.156616,132.763351 
	C512.087036,133.226746 512.106812,133.417206 511.864075,133.785004 
	C509.483673,136.804794 507.365784,139.647217 505.157745,142.762665 
	C505.087280,143.226349 505.106934,143.417007 504.864075,143.785004 
	C502.483643,146.804764 500.365753,149.647186 498.157715,152.762634 
	C498.087250,153.226273 498.106934,153.416916 497.864136,153.784943 
	C495.480164,156.821503 493.358673,159.680695 491.151428,162.800812 
	C491.085999,163.243683 491.106323,163.425659 490.865601,163.783859 
	C489.151642,165.803558 487.698792,167.647003 486.156555,169.763397 
	C486.087036,170.226791 486.106812,170.417221 485.864075,170.785004 
	C483.483673,173.804779 481.365784,176.647202 479.157715,179.762650 
	C479.087280,180.226349 479.106934,180.417007 478.864075,180.785004 
	C476.483673,183.804779 474.365753,186.647202 472.157715,189.762650 
	C472.087280,190.226349 472.106934,190.417007 471.864075,190.785004 
	C469.483673,193.804764 467.365753,196.647202 465.157715,199.762634 
	C465.087250,200.226273 465.106934,200.416916 464.862915,200.785889 
	C462.455170,204.040924 460.311157,207.117645 458.110718,210.293137 
	C458.054230,210.391907 458.126648,210.607620 457.866211,210.783386 
	C455.737183,212.694992 453.868561,214.430817 451.684540,216.030975 
	C440.057159,205.571045 428.730011,195.263382 417.437347,184.918106 
	C405.036469,173.557541 392.640991,162.190781 380.291260,150.774704 
	C366.229980,137.776550 352.235840,124.705772 338.185211,111.696114 
	C330.081055,104.192352 321.982422,96.679344 313.699615,89.376595 
	C312.841492,88.619987 310.163727,88.612656 309.308319,89.366913 
	C298.443573,98.946892 287.747986,108.719032 277.029602,118.464569 
	C265.818207,128.658386 254.603806,138.849167 243.435654,149.090256 
	C226.786194,164.357620 210.169708,179.660995 193.551712,194.962616 
	C183.355789,204.350891 173.183151,213.764450 162.648407,223.089661 
	C161.283890,222.214691 160.008606,221.601730 159.296432,220.591736 
	C140.473373,193.896500 121.743645,167.135483 102.923836,140.437958 
	C83.629517,113.067299 64.259727,85.749825 44.917316,58.413078 
	C32.744564,41.209251 20.529690,24.035025 8.433491,6.777580 
	C7.261083,5.104925 6.794321,2.937665 6.000000,1.000000 
z"/>
<path fill="#000000" opacity="1.000000" stroke="none" 
	d="
M608.000000,6.000002 
	C608.000000,288.362701 608.000000,570.725403 607.734985,853.857544 
	C606.839417,854.091003 606.061096,853.659241 605.599548,853.004211 
	C583.502808,821.642212 561.465576,790.238281 539.351013,758.888916 
	C521.560852,733.669922 503.687622,708.509521 485.837585,683.332825 
	C478.187378,672.542542 470.502502,661.776794 462.970215,650.682922 
	C467.941254,645.875244 472.729584,641.333740 477.621674,636.906982 
	C483.464111,631.620300 489.663239,626.695923 495.184509,621.098389 
	C498.339630,617.899658 503.098846,615.902466 503.092255,609.885803 
	C502.967163,495.606018 503.012482,381.326080 502.898346,267.046234 
	C502.896332,265.038483 501.897827,262.486267 500.472839,261.113556 
	C490.965637,251.955093 481.245300,243.016479 471.532654,234.073242 
	C466.363098,229.313202 461.070465,224.686798 456.009491,219.693298 
	C458.729797,216.376938 461.273987,213.367310 463.892548,210.159424 
	C463.988068,209.679581 464.012421,209.398315 464.351624,208.968170 
	C475.386536,193.598236 486.109772,178.377457 496.902039,162.992203 
	C497.000641,162.591629 497.023560,162.354889 497.351440,161.968323 
	C506.053223,149.879456 514.443298,137.939728 522.905334,125.783539 
	C522.977295,125.567070 523.041626,125.115417 523.353271,124.966522 
	C524.350464,124.101448 525.145264,123.461380 525.705505,122.657791 
	C535.759949,108.236176 545.786011,93.794785 555.923096,79.053146 
	C559.006592,74.678108 562.092346,70.681000 564.941101,66.521568 
	C570.709534,58.099083 576.349548,49.588627 582.354065,40.965660 
	C589.721558,30.878077 596.777466,20.939280 603.907471,10.679836 
	C604.663391,9.283683 605.345093,8.208175 606.295654,7.019500 
	C607.043030,6.604224 607.521484,6.302114 608.000000,6.000002 
z"/>
<path fill="#000000" opacity="1.000000" stroke="none" 
	d="
M608.000000,864.000000 
	C607.833679,864.333313 607.684753,864.943787 607.498230,864.955505 
	C606.171082,865.038940 604.836243,865.000000 603.503845,865.000000 
	C404.310059,865.000000 205.116287,865.000000 5.146070,864.735596 
	C5.009674,863.708740 5.710142,862.988892 6.280927,862.177673 
	C21.512199,840.532288 36.734890,818.880859 51.949081,797.223450 
	C69.884262,771.692749 87.822983,746.164551 105.736275,720.618469 
	C122.507133,696.701538 139.246765,672.762634 156.352631,648.912109 
	C167.047455,658.071472 177.500076,667.030212 187.706665,676.260986 
	C203.710358,690.734680 219.543610,705.396729 235.457291,719.970093 
	C247.239532,730.760193 259.049591,741.519836 270.820526,752.322266 
	C283.449280,763.912170 296.096375,775.483093 308.610352,787.195984 
	C310.775757,789.222717 312.067780,789.418640 314.317535,787.293030 
	C320.283722,781.656006 326.587799,776.378723 332.638031,770.828186 
	C349.764984,755.115540 366.825928,739.330994 383.925903,723.588928 
	C391.802673,716.337646 399.753204,709.166077 407.593719,701.876038 
	C422.828217,687.710999 437.993195,673.471191 453.232361,659.311218 
	C455.008362,657.660950 457.070435,656.318604 459.312134,654.989685 
	C468.395691,667.337646 477.239960,679.477661 485.923187,691.731812 
	C504.227081,717.562927 522.491638,743.422302 540.688660,769.328857 
	C559.911743,796.696411 578.972473,824.178223 598.279419,851.486267 
	C601.011292,855.350220 604.735229,858.512817 608.000000,862.000000 
	C608.000000,862.000000 608.000000,862.500000 607.746582,862.799377 
	C607.662048,863.399170 607.831055,863.699585 608.000000,864.000000 
z"/>
<path fill="#ED1C24" opacity="1.000000" stroke="none" 
	d="
M5.500038,1.000000 
	C6.794321,2.937665 7.261083,5.104925 8.433491,6.777580 
	C20.529690,24.035025 32.744564,41.209251 44.917316,58.413078 
	C64.259727,85.749825 83.629517,113.067299 102.923836,140.437958 
	C121.743645,167.135483 140.473373,193.896500 159.296432,220.591736 
	C160.008606,221.601730 161.283890,222.214691 162.520660,223.392853 
	C161.163040,224.904190 159.581528,226.035370 158.000031,227.166534 
	C140.259277,201.922852 122.541649,176.662903 104.771652,151.439850 
	C84.819702,123.119675 64.848457,94.813019 44.831932,66.538475 
	C31.513742,47.725739 18.114622,28.970190 4.698605,10.227070 
	C3.899130,9.110147 2.627030,8.331520 1.287430,7.697736 
	C1.000000,5.768101 1.000000,3.536201 1.000000,1.000000 
	C2.327698,1.000000 3.663887,1.000000 5.500038,1.000000 
z"/>
<path fill="#ED1C24" opacity="1.000000" stroke="none" 
	d="
M156.000137,648.833435 
	C139.246765,672.762634 122.507133,696.701538 105.736275,720.618469 
	C87.822983,746.164551 69.884262,771.692749 51.949081,797.223450 
	C36.734890,818.880859 21.512199,840.532288 6.280927,862.177673 
	C5.710142,862.988892 5.009674,863.708740 4.684814,864.735596 
	C3.723421,865.000000 2.446841,865.000000 1.000000,865.000000 
	C1.000000,862.664368 1.000000,860.326965 1.000004,857.494751 
	C2.342515,856.293091 4.169812,855.931274 4.955255,854.827820 
	C18.030687,836.458496 30.977430,817.997498 43.949268,799.554382 
	C65.283379,769.221924 86.628510,738.897278 107.942833,708.550903 
	C122.774940,687.433655 137.563232,666.285706 152.990204,645.130432 
	C154.406265,646.350769 155.203201,647.592102 156.000137,648.833435 
z"/>
<path fill="#ED1C24" opacity="1.000000" stroke="none" 
	d="
M608.000000,861.555847 
	C604.735229,858.512817 601.011292,855.350220 598.279419,851.486267 
	C578.972473,824.178223 559.911743,796.696411 540.688660,769.328857 
	C522.491638,743.422302 504.227081,717.562927 485.923187,691.731812 
	C477.239960,679.477661 468.395691,667.337646 459.423218,654.703125 
	C460.425873,653.173523 461.629639,652.086670 462.833405,650.999878 
	C470.502502,661.776794 478.187378,672.542542 485.837585,683.332825 
	C503.687622,708.509521 521.560852,733.669922 539.351013,758.888916 
	C561.465576,790.238281 583.502808,821.642212 605.599548,853.004211 
	C606.061096,853.659241 606.839417,854.091003 607.734985,854.313477 
	C608.000000,856.370544 608.000000,858.741150 608.000000,861.555847 
z"/>
<path fill="#ED1C24" opacity="1.000000" stroke="none" 
	d="
M608.000000,5.501710 
	C607.521484,6.302114 607.043030,6.604224 606.169312,6.735580 
	C605.500366,6.006778 605.226624,5.448729 604.952942,4.890680 
	C604.648987,4.127519 604.345032,3.364357 604.269775,2.150072 
	C604.704773,1.494011 604.871948,1.261029 605.000000,1.000000 
	C608.970032,0.108847 607.917114,2.981717 608.000000,5.501710 
z"/>
<path fill="#ED1C24" opacity="1.000000" stroke="none" 
	d="
M604.750000,1.000000 
	C604.871948,1.261029 604.704773,1.494011 604.332520,1.837001 
	C604.166565,1.975054 604.029968,1.496625 604.015015,1.248312 
	C604.000000,1.000000 604.500000,1.000000 604.750000,1.000000 
z"/>
<path fill="#ED1C24" opacity="1.000000" stroke="none" 
	d="
M608.000000,863.750000 
	C607.831055,863.699585 607.662048,863.399170 607.746582,863.049377 
	C608.000000,863.000000 608.000000,863.500000 608.000000,863.750000 
z"/>
<path fill="#FFFFFF" opacity="1.000000" stroke="none" 
	d="
M462.970215,650.682922 
	C461.629639,652.086670 460.425873,653.173523 459.110962,654.546875 
	C457.070435,656.318604 455.008362,657.660950 453.232361,659.311218 
	C437.993195,673.471191 422.828217,687.710999 407.593719,701.876038 
	C399.753204,709.166077 391.802673,716.337646 383.925903,723.588928 
	C366.825928,739.330994 349.764984,755.115540 332.638031,770.828186 
	C326.587799,776.378723 320.283722,781.656006 314.317535,787.293030 
	C312.067780,789.418640 310.775757,789.222717 308.610352,787.195984 
	C296.096375,775.483093 283.449280,763.912170 270.820526,752.322266 
	C259.049591,741.519836 247.239532,730.760193 235.457291,719.970093 
	C219.543610,705.396729 203.710358,690.734680 187.706665,676.260986 
	C177.500076,667.030212 167.047455,658.071472 156.352631,648.912109 
	C155.203201,647.592102 154.406265,646.350769 153.304672,644.971436 
	C143.776566,636.474426 134.538315,628.131653 125.337074,619.748230 
	C121.701256,616.435608 118.800972,613.343079 118.814285,607.394897 
	C119.066269,494.825531 119.053383,382.255371 118.835709,269.685822 
	C118.825287,264.295807 120.982086,261.071014 124.539803,257.973785 
	C129.728867,253.456390 134.992020,249.020004 140.076782,244.387939 
	C146.055145,238.941803 151.876495,233.323349 157.882996,227.473083 
	C159.581528,226.035370 161.163040,224.904190 162.872299,223.469833 
	C173.183151,213.764450 183.355789,204.350891 193.551712,194.962616 
	C210.169708,179.660995 226.786194,164.357620 243.435654,149.090256 
	C254.603806,138.849167 265.818207,128.658386 277.029602,118.464569 
	C287.747986,108.719032 298.443573,98.946892 309.308319,89.366913 
	C310.163727,88.612656 312.841492,88.619987 313.699615,89.376595 
	C321.982422,96.679344 330.081055,104.192352 338.185211,111.696114 
	C352.235840,124.705772 366.229980,137.776550 380.291260,150.774704 
	C392.640991,162.190781 405.036469,173.557541 417.437347,184.918106 
	C428.730011,195.263382 440.057159,205.571045 451.725586,216.237625 
	C452.418304,216.824768 452.754517,217.069580 453.241577,217.605423 
	C454.206116,218.597656 455.019745,219.298859 455.833374,220.000061 
	C461.070465,224.686798 466.363098,229.313202 471.532654,234.073242 
	C481.245300,243.016479 490.965637,251.955093 500.472839,261.113556 
	C501.897827,262.486267 502.896332,265.038483 502.898346,267.046234 
	C503.012482,381.326080 502.967163,495.606018 503.092255,609.885803 
	C503.098846,615.902466 498.339630,617.899658 495.184509,621.098389 
	C489.663239,626.695923 483.464111,631.620300 477.621674,636.906982 
	C472.729584,641.333740 467.941254,645.875244 462.970215,650.682922 
M458.019135,648.017517 
	C458.019135,648.017517 458.062469,648.092468 458.648132,647.834900 
	C458.818634,647.226929 458.989136,646.618958 459.847046,645.975281 
	C465.127960,641.253784 470.436279,636.562439 475.682404,631.802612 
	C481.440338,626.578369 486.918732,621.015930 492.953979,616.139221 
	C496.306671,613.430115 498.102905,610.879395 498.097687,606.332458 
	C497.972290,496.902069 497.934753,387.471405 498.132355,278.041229 
	C498.147064,269.891235 497.213470,263.698303 489.994812,258.023132 
	C478.580505,249.049408 468.553040,238.317795 457.842712,228.434143 
	C456.591400,227.279388 454.733429,226.781967 453.011566,225.294144 
	C449.053619,221.410706 445.182007,217.434357 441.121674,213.661057 
	C428.318115,201.762650 415.451050,189.932510 402.594788,178.090912 
	C390.105011,166.586838 377.556763,155.145889 365.109589,143.595963 
	C349.981781,129.558624 334.946350,115.421700 319.827484,101.374680 
	C318.416321,100.063545 316.692841,99.088531 314.857635,97.350822 
	C313.973877,96.033318 313.090088,94.715820 312.122833,93.273895 
	C310.293091,95.246124 309.404694,96.203697 308.237000,97.241913 
	C308.237000,97.241913 308.159210,97.522057 307.640350,97.871910 
	C306.388733,98.900467 305.137115,99.929016 303.276642,101.207741 
	C301.170258,103.433670 299.063873,105.659599 296.336823,108.151436 
	C294.853027,109.420143 293.369263,110.688858 291.276642,112.207756 
	C289.170288,114.433693 287.063904,116.659622 284.336823,119.151443 
	C282.853058,120.420158 281.369263,121.688866 279.276642,123.207748 
	C277.170258,125.433685 275.063904,127.659622 272.336823,130.151459 
	C270.853058,131.420181 269.369293,132.688889 267.276672,134.207733 
	C265.170288,136.433685 263.063904,138.659622 260.336823,141.151443 
	C258.853027,142.420166 257.369232,143.688904 255.276611,145.207794 
	C253.170242,147.433731 251.063858,149.659653 248.336777,152.151474 
	C246.852997,153.420197 245.369217,154.688904 243.276611,156.207794 
	C241.170242,158.433731 239.063858,160.659653 236.336792,163.151489 
	C234.853012,164.420197 233.369232,165.688919 231.276611,167.207794 
	C229.170227,169.433716 227.063858,171.659653 224.336777,174.151474 
	C222.852997,175.420197 221.369217,176.688904 219.280960,178.203735 
	C217.506470,180.097687 215.731979,181.991638 213.336761,184.151459 
	C211.852982,185.420181 210.369202,186.688889 208.276627,188.207809 
	C206.170242,190.433731 204.063873,192.659668 201.336777,195.151474 
	C199.852997,196.420197 198.369217,197.688904 196.276596,199.207779 
	C194.170227,201.433716 192.063843,203.659637 189.336792,206.151489 
	C187.853012,207.420197 186.369232,208.688919 184.276611,210.207794 
	C182.170242,212.433731 180.063873,214.659668 177.336777,217.151474 
	C175.852997,218.420197 174.369217,219.688904 172.276581,221.207809 
	C170.170029,223.433945 168.063492,225.660080 165.344696,228.145187 
	C163.896469,229.374588 162.448242,230.603973 160.385849,232.131729 
	C154.246475,237.934753 148.137772,243.770676 141.957443,249.529755 
	C137.484604,253.697754 133.168716,258.100098 128.297241,261.749756 
	C125.349831,263.957947 123.922752,266.004425 123.925819,269.779358 
	C124.017151,382.222321 124.018219,494.665344 123.916237,607.108276 
	C123.913025,610.653748 125.060448,613.047729 127.649551,615.186646 
	C130.697189,617.704346 133.577301,620.424316 136.545380,623.039124 
	C142.969528,628.698608 149.403458,634.347107 156.172607,640.644714 
	C157.115082,640.818665 158.057556,640.992676 159.019943,641.873047 
	C160.442642,643.843140 161.575912,646.130920 163.334259,647.732483 
	C176.248917,659.495911 189.331177,671.075012 202.276489,682.805054 
	C214.265457,693.668518 226.152786,704.644165 238.079849,715.575867 
	C250.129410,726.619934 262.193298,737.648499 274.213165,748.724792 
	C286.597626,760.136902 298.936554,771.598328 311.443878,783.175598 
	C360.105652,738.374207 408.552795,693.770386 457.511017,648.960388 
	C457.705322,648.660583 457.899658,648.360840 458.019135,648.017517 
z"/>
<path fill="#ED1C24" opacity="1.000000" stroke="none" 
	d="
M582.042480,41.114449 
	C576.349548,49.588627 570.709534,58.099083 564.941101,66.521568 
	C562.092346,70.681000 559.006592,74.678108 555.359985,78.966751 
	C553.183655,79.187996 551.675354,79.191154 550.167114,79.194313 
	C560.985352,63.777409 571.803528,48.360497 583.176270,32.959412 
	C583.168030,35.688309 582.605225,38.401379 582.042480,41.114449 
z"/>
<path fill="#ED1C24" opacity="1.000000" stroke="none" 
	d="
M550.110657,79.293091 
	C551.675354,79.191154 553.183655,79.187996 555.255005,79.271233 
	C545.786011,93.794785 535.759949,108.236176 525.705505,122.657791 
	C525.145264,123.461380 524.350464,124.101448 523.359375,124.585457 
	C523.414001,121.765335 523.774048,119.177376 524.134094,116.589409 
	C524.112427,116.401909 524.090698,116.214401 524.569397,115.892670 
	C529.661499,114.822815 532.810547,110.065163 531.126587,106.607628 
	C531.106934,106.416962 531.087280,106.226303 531.568726,105.897049 
	C536.661499,104.822815 539.810547,100.065163 538.126587,96.607628 
	C538.106934,96.416962 538.087280,96.226303 538.568726,95.897049 
	C543.661499,94.822815 546.810547,90.065163 545.126587,86.607628 
	C545.106812,86.417191 545.087036,86.226746 545.569458,85.897507 
	C550.569031,84.787132 551.714478,83.049522 550.126587,79.607613 
	C550.126587,79.607613 550.054199,79.391869 550.110657,79.293091 
z"/>
<path fill="#ED1C24" opacity="1.000000" stroke="none" 
	d="
M496.833038,163.156677 
	C486.109772,178.377457 475.386536,193.598236 464.358063,208.587051 
	C464.410767,205.772583 464.768707,203.190079 465.126648,200.607574 
	C465.106934,200.416916 465.087250,200.226273 465.568726,199.897034 
	C470.661499,198.822754 473.810516,194.065109 472.126617,190.607651 
	C472.106934,190.417007 472.087280,190.226349 472.568726,189.897064 
	C477.661499,188.822754 480.810516,184.065109 479.126617,180.607651 
	C479.106934,180.417007 479.087280,180.226349 479.568726,179.897064 
	C484.661499,178.822754 487.810516,174.065109 486.126617,170.607651 
	C486.106812,170.417221 486.087036,170.226791 486.569458,169.897537 
	C491.568939,168.787140 492.714417,167.049561 491.126648,163.607620 
	C491.106323,163.425659 491.085999,163.243683 491.708008,162.937103 
	C493.844543,162.927216 495.338806,163.041946 496.833038,163.156677 
z"/>
<path fill="#ED1C24" opacity="1.000000" stroke="none" 
	d="
M522.833374,126.000000 
	C514.443298,137.939728 506.053223,149.879456 497.357910,161.587219 
	C497.410706,158.772690 497.768677,156.190140 498.126648,153.607574 
	C498.106934,153.416916 498.087250,153.226273 498.568726,152.897034 
	C503.661499,151.822754 506.810516,147.065109 505.126617,143.607651 
	C505.106934,143.417007 505.087280,143.226349 505.568726,142.897064 
	C510.661560,141.822769 513.810669,137.064972 512.126587,133.607651 
	C512.106812,133.417206 512.087036,133.226746 512.569458,132.897491 
	C517.568970,131.787155 518.714478,130.049515 517.126587,126.607613 
	C517.106689,126.419846 517.086792,126.232086 517.617920,125.916443 
	C519.723694,125.859039 521.278564,125.929520 522.833374,126.000000 
z"/>
<path fill="#ED1C24" opacity="1.000000" stroke="none" 
	d="
M582.354004,40.965660 
	C582.605225,38.401379 583.168030,35.688309 583.436768,32.771584 
	C583.118713,32.384136 583.094666,32.200352 583.570190,31.887505 
	C588.661438,30.822786 591.810547,26.064966 590.126587,22.607611 
	C590.106934,22.416937 590.087280,22.226263 590.568726,21.897017 
	C595.661438,20.822786 598.810547,16.064968 597.126587,12.607614 
	C597.106873,12.417659 597.087219,12.227705 597.580200,11.899842 
	C600.006287,11.508117 601.919861,11.254301 603.833374,11.000484 
	C596.777466,20.939280 589.721558,30.878077 582.354004,40.965660 
z"/>
<path fill="#ED1C24" opacity="1.000000" stroke="none" 
	d="
M497.864136,153.784943 
	C497.768677,156.190140 497.410706,158.772690 497.046265,161.736374 
	C497.023560,162.354889 497.000641,162.591629 496.902039,162.992218 
	C495.338806,163.041946 493.844543,162.927216 491.793762,162.676178 
	C493.358673,159.680695 495.480164,156.821503 497.864136,153.784943 
z"/>
<path fill="#ED1C24" opacity="1.000000" stroke="none" 
	d="
M464.862915,200.785889 
	C464.768707,203.190079 464.410767,205.772583 464.046387,208.736206 
	C464.012421,209.398315 463.988068,209.679581 463.329407,210.073013 
	C461.183685,210.188049 459.675415,210.191208 458.167175,210.194366 
	C460.311157,207.117645 462.455170,204.040924 464.862915,200.785889 
z"/>
<path fill="#ED1C24" opacity="1.000000" stroke="none" 
	d="
M522.905334,125.783539 
	C521.278564,125.929520 519.723694,125.859039 517.706421,125.647415 
	C519.367126,122.654785 521.490234,119.803299 523.873718,116.770615 
	C523.774048,119.177376 523.414001,121.765335 523.047791,124.734360 
	C523.041626,125.115417 522.977295,125.567070 522.905334,125.783539 
z"/>
<path fill="#ED1C24" opacity="1.000000" stroke="none" 
	d="
M458.110687,210.293121 
	C459.675415,210.191208 461.183685,210.188049 463.255066,210.271301 
	C461.273987,213.367310 458.729797,216.376938 456.009491,219.693298 
	C455.019745,219.298859 454.206116,218.597656 453.664398,217.539612 
	C457.214081,216.189789 460.716461,215.339966 458.126648,210.607620 
	C458.126648,210.607620 458.054230,210.391907 458.110687,210.293121 
z"/>
<path fill="#ED1C24" opacity="1.000000" stroke="none" 
	d="
M603.907471,10.679838 
	C601.919861,11.254301 600.006287,11.508117 597.670166,11.627890 
	C599.578125,9.329273 601.908630,7.164700 604.596069,4.945404 
	C605.226624,5.448729 605.500366,6.006778 605.900452,6.848746 
	C605.345093,8.208175 604.663391,9.283683 603.907471,10.679838 
z"/>
<path fill="#ED1C24" opacity="1.000000" stroke="none" 
	d="
M596.864075,12.784979 
	C598.810547,16.064968 595.661438,20.822786 590.658875,21.623985 
	C592.365784,18.647131 594.483704,15.804737 596.864075,12.784979 
z"/>
<path fill="#ED1C24" opacity="1.000000" stroke="none" 
	d="
M589.864075,22.784981 
	C591.810547,26.064966 588.661438,30.822786 583.658875,31.623993 
	C585.365784,28.647142 587.483704,25.804747 589.864075,22.784981 
z"/>
<path fill="#ED1C24" opacity="1.000000" stroke="none" 
	d="
M544.864075,86.785004 
	C546.810547,90.065163 543.661499,94.822815 538.658813,95.624039 
	C540.365784,92.647202 542.483643,89.804787 544.864075,86.785004 
z"/>
<path fill="#ED1C24" opacity="1.000000" stroke="none" 
	d="
M537.864075,96.785004 
	C539.810547,100.065163 536.661499,104.822815 531.658813,105.624039 
	C533.365784,102.647209 535.483704,99.804787 537.864075,96.785004 
z"/>
<path fill="#ED1C24" opacity="1.000000" stroke="none" 
	d="
M471.864075,190.785004 
	C473.810516,194.065109 470.661499,198.822754 465.658844,199.624039 
	C467.365753,196.647202 469.483673,193.804764 471.864075,190.785004 
z"/>
<path fill="#ED1C24" opacity="1.000000" stroke="none" 
	d="
M478.864075,180.785004 
	C480.810516,184.065109 477.661499,188.822754 472.658844,189.624039 
	C474.365753,186.647202 476.483673,183.804779 478.864075,180.785004 
z"/>
<path fill="#ED1C24" opacity="1.000000" stroke="none" 
	d="
M485.864075,170.785004 
	C487.810516,174.065109 484.661499,178.822754 479.658844,179.624039 
	C481.365784,176.647202 483.483673,173.804779 485.864075,170.785004 
z"/>
<path fill="#ED1C24" opacity="1.000000" stroke="none" 
	d="
M530.864075,106.784988 
	C532.810547,110.065163 529.661499,114.822815 524.658813,115.624031 
	C526.365784,112.647194 528.483643,109.804779 530.864075,106.784988 
z"/>
<path fill="#ED1C24" opacity="1.000000" stroke="none" 
	d="
M511.864075,133.785004 
	C513.810669,137.064972 510.661560,141.822769 505.658875,142.624054 
	C507.365784,139.647217 509.483673,136.804794 511.864075,133.785004 
z"/>
<path fill="#ED1C24" opacity="1.000000" stroke="none" 
	d="
M504.864075,143.785004 
	C506.810516,147.065109 503.661499,151.822754 498.658844,152.624039 
	C500.365753,149.647186 502.483643,146.804764 504.864075,143.785004 
z"/>
<path fill="#ED1C24" opacity="1.000000" stroke="none" 
	d="
M457.866211,210.783386 
	C460.716461,215.339966 457.214081,216.189789 453.513550,217.248581 
	C452.754517,217.069580 452.418304,216.824768 452.041016,216.373291 
	C453.868561,214.430817 455.737183,212.694992 457.866211,210.783386 
z"/>
<path fill="#ED1C24" opacity="1.000000" stroke="none" 
	d="
M490.865601,163.783859 
	C492.714417,167.049561 491.568939,168.787140 486.658813,169.624603 
	C487.698792,167.647003 489.151642,165.803558 490.865601,163.783859 
z"/>
<path fill="#ED1C24" opacity="1.000000" stroke="none" 
	d="
M516.865540,126.783844 
	C518.714478,130.049515 517.568970,131.787155 512.658813,132.624542 
	C513.698792,130.646957 515.151672,128.803513 516.865540,126.783844 
z"/>
<path fill="#ED1C24" opacity="1.000000" stroke="none" 
	d="
M549.865601,79.783844 
	C551.714478,83.049522 550.569031,84.787132 545.658813,85.624565 
	C546.698853,83.646973 548.151672,81.803528 549.865601,79.783844 
z"/>
<path fill="#00A2E8" opacity="1.000000" stroke="none" 
	d="
M456.999969,649.166626 
	C408.552795,693.770386 360.105652,738.374207 311.443878,783.175598 
	C298.936554,771.598328 286.597626,760.136902 274.213165,748.724792 
	C262.193298,737.648499 250.129410,726.619934 238.079849,715.575867 
	C226.152786,704.644165 214.265457,693.668518 202.276489,682.805054 
	C189.331177,671.075012 176.248917,659.495911 163.334259,647.732483 
	C161.575912,646.130920 160.442642,643.843140 159.330750,641.372437 
	C161.289719,639.549866 163.342377,638.515198 164.519089,636.858398 
	C171.169434,627.494873 177.537613,617.931396 184.139786,608.532959 
	C192.431320,596.729431 200.929016,585.070618 209.201492,573.253967 
	C216.717819,562.517456 224.051575,551.653076 231.752808,540.627319 
	C232.891602,539.242554 233.778397,538.099365 234.589600,536.904846 
	C240.439957,528.289734 246.275009,519.664246 252.429321,510.910095 
	C254.509384,508.224243 256.275024,505.670349 258.291840,503.027771 
	C258.639771,502.632996 258.736572,502.326904 258.979431,501.694427 
	C264.772858,493.488892 270.444885,485.627289 276.061981,477.726593 
	C285.237610,464.820679 294.478760,451.958679 303.424255,438.894653 
	C304.784332,436.908386 305.413330,436.785187 307.091187,438.432739 
	C312.335968,445.857697 317.517761,452.914886 322.546112,460.079803 
	C343.597443,490.075562 364.550964,520.140076 385.640808,550.108582 
	C403.378021,575.313110 421.224823,600.440735 439.087311,625.556702 
	C444.238037,632.799011 449.611176,639.883057 454.938660,647.391602 
	C455.663269,648.217834 456.331635,648.692200 456.999969,649.166626 
z"/>
<path fill="#ED1C24" opacity="1.000000" stroke="none" 
	d="
M454.882355,647.039673 
	C449.611176,639.883057 444.238037,632.799011 439.087311,625.556702 
	C421.224823,600.440735 403.378021,575.313110 385.640808,550.108582 
	C364.550964,520.140076 343.597443,490.075562 322.546112,460.079803 
	C317.517761,452.914886 312.335968,445.857697 307.078064,438.073364 
	C305.343109,435.598236 303.754852,433.800690 302.008514,431.687683 
	C294.932312,421.449615 288.055511,411.497894 281.088226,401.609924 
	C261.119720,373.270538 241.131561,344.944977 221.116135,316.638733 
	C212.051178,303.818878 202.825073,291.112488 193.814224,278.255035 
	C183.777634,263.933899 173.902756,249.499481 163.991608,234.733185 
	C164.669464,232.196747 165.313202,230.041473 165.956940,227.886215 
	C168.063492,225.660080 170.170029,223.433945 172.995056,221.090820 
	C176.764389,221.309586 178.347061,220.121277 177.957489,216.885590 
	C180.063873,214.659668 182.170242,212.433731 184.995087,210.090805 
	C188.764389,210.309586 190.347061,209.121277 189.957489,205.885590 
	C192.063843,203.659637 194.170227,201.433716 196.995071,199.090790 
	C200.764389,199.309586 202.347061,198.121277 201.957489,194.885590 
	C204.063873,192.659668 206.170242,190.433731 208.995087,188.090820 
	C212.764389,188.309586 214.347061,187.121277 213.957489,183.885590 
	C215.731979,181.991638 217.506470,180.097687 219.997253,178.088776 
	C223.764389,178.309586 225.347061,177.121277 224.957489,173.885590 
	C227.063858,171.659653 229.170227,169.433716 231.995087,167.090805 
	C235.764389,167.309586 237.347061,166.121277 236.957489,162.885590 
	C239.063858,160.659653 241.170242,158.433731 243.995087,156.090805 
	C247.764389,156.309586 249.347061,155.121277 248.957489,151.885590 
	C251.063858,149.659653 253.170242,147.433731 255.995087,145.090805 
	C259.764465,145.309631 261.346985,144.121140 260.957520,140.885559 
	C263.063904,138.659622 265.170288,136.433685 267.995148,134.090775 
	C271.764496,134.309586 273.347046,133.121140 272.957520,129.885559 
	C275.063904,127.659622 277.170258,125.433685 279.995117,123.090775 
	C283.764587,123.309692 285.346893,122.120987 284.957520,118.885544 
	C287.063904,116.659622 289.170288,114.433693 291.995117,112.090775 
	C295.764587,112.309692 297.346893,111.120987 296.957520,107.885544 
	C299.063873,105.659599 301.170258,103.433670 304.003418,101.090637 
	C306.921326,100.864334 309.581879,101.221527 308.159210,97.522057 
	C308.159210,97.522057 308.237000,97.241913 308.820374,97.388931 
	C311.307281,97.676468 313.210815,97.816971 315.114380,97.957474 
	C316.692841,99.088531 318.416321,100.063545 319.827484,101.374680 
	C334.946350,115.421700 349.981781,129.558624 365.109589,143.595963 
	C377.556763,155.145889 390.105011,166.586838 402.594788,178.090912 
	C415.451050,189.932510 428.318115,201.762650 441.121674,213.661057 
	C445.182007,217.434357 449.053619,221.410706 452.919617,225.939072 
	C452.032928,227.436584 451.122040,228.207855 450.460297,229.153503 
	C427.297852,262.252228 404.196198,295.393524 381.006012,328.472778 
	C358.194855,361.011322 335.416382,393.574402 312.305511,425.899323 
	C308.951691,430.590271 309.397766,433.723419 312.456421,437.980835 
	C328.138641,459.809204 343.654968,481.757111 359.167267,503.707092 
	C381.530640,535.351501 403.860718,567.019470 426.164459,598.705933 
	C436.506195,613.398193 446.752289,628.157776 457.046692,643.268921 
	C457.388641,645.131470 457.725555,646.611938 458.062469,648.092468 
	C458.062469,648.092468 458.019135,648.017517 457.723206,647.982178 
	C456.579010,647.644409 455.730682,647.342041 454.882355,647.039673 
z"/>
<path fill="#A349A4" opacity="1.000000" stroke="none" 
	d="
M457.041718,642.886841 
	C446.752289,628.157776 436.506195,613.398193 426.164459,598.705933 
	C403.860718,567.019470 381.530640,535.351501 359.167267,503.707092 
	C343.654968,481.757111 328.138641,459.809204 312.456421,437.980835 
	C309.397766,433.723419 308.951691,430.590271 312.305511,425.899323 
	C335.416382,393.574402 358.194855,361.011322 381.006012,328.472778 
	C404.196198,295.393524 427.297852,262.252228 450.460297,229.153503 
	C451.122040,228.207855 452.032928,227.436584 452.992188,226.281906 
	C454.733429,226.781967 456.591400,227.279388 457.842712,228.434143 
	C468.553040,238.317795 478.580505,249.049408 489.994812,258.023132 
	C497.213470,263.698303 498.147064,269.891235 498.132355,278.041229 
	C497.934753,387.471405 497.972290,496.902069 498.097687,606.332458 
	C498.102905,610.879395 496.306671,613.430115 492.953979,616.139221 
	C486.918732,621.015930 481.440338,626.578369 475.682404,631.802612 
	C470.436279,636.562439 465.127960,641.253784 459.428040,645.672607 
	C458.353271,644.542175 457.697510,643.714539 457.041718,642.886841 
z"/>
<path fill="#FFF200" opacity="1.000000" stroke="none" 
	d="
M163.957489,235.114380 
	C173.902756,249.499481 183.777634,263.933899 193.814224,278.255035 
	C202.825073,291.112488 212.051178,303.818878 221.116135,316.638733 
	C241.131561,344.944977 261.119720,373.270538 281.088226,401.609924 
	C288.055511,411.497894 294.932312,421.449615 301.847137,431.998352 
	C282.285614,460.468323 262.727325,488.312256 243.116638,516.262573 
	C243.064240,516.368896 243.132401,516.595947 242.873260,516.776123 
	C240.511932,519.820435 238.409744,522.684509 236.199249,525.799622 
	C236.104767,526.232422 236.118591,526.414185 235.873245,526.776123 
	C233.511917,529.820435 231.409729,532.684509 229.202087,535.784973 
	C229.116486,536.192810 229.136337,536.364197 228.899872,536.730957 
	C227.778488,538.103699 226.892792,539.266663 226.051437,540.460938 
	C209.387100,564.114502 192.741592,587.781494 176.060547,611.423340 
	C169.763611,620.347900 163.386765,629.216125 156.880493,638.018433 
	C156.490631,638.322571 156.266632,638.718323 156.007172,639.339600 
	C155.971725,639.565125 155.833374,640.000122 155.833374,640.000122 
	C149.403458,634.347107 142.969528,628.698608 136.545380,623.039124 
	C133.577301,620.424316 130.697189,617.704346 127.649551,615.186646 
	C125.060448,613.047729 123.913025,610.653748 123.916237,607.108276 
	C124.018219,494.665344 124.017151,382.222321 123.925819,269.779358 
	C123.922752,266.004425 125.349831,263.957947 128.297241,261.749756 
	C133.168716,258.100098 137.484604,253.697754 141.957443,249.529755 
	C148.137772,243.770676 154.246475,237.934753 160.979294,232.144623 
	C162.367645,233.143143 163.162567,234.128769 163.957489,235.114380 
z"/>
<path fill="#ED1C24" opacity="1.000000" stroke="none" 
	d="
M157.046356,638.110046 
	C163.386765,629.216125 169.763611,620.347900 176.060547,611.423340 
	C192.741592,587.781494 209.387100,564.114502 226.051437,540.460938 
	C226.892792,539.266663 227.778488,538.103699 229.274658,537.063599 
	C230.425751,538.415649 230.945770,539.630310 231.465790,540.845032 
	C224.051575,551.653076 216.717819,562.517456 209.201492,573.253967 
	C200.929016,585.070618 192.431320,596.729431 184.139786,608.532959 
	C177.537613,617.931396 171.169434,627.494873 164.519089,636.858398 
	C163.342377,638.515198 161.289719,639.549866 159.320801,641.019287 
	C158.057556,640.992676 157.115082,640.818665 156.002991,640.322388 
	C155.833374,640.000122 155.971725,639.565125 156.240540,639.246887 
	C156.688370,638.655762 156.867371,638.382935 157.046356,638.110046 
z"/>
<path fill="#ED1C24" opacity="1.000000" stroke="none" 
	d="
M163.991608,234.733185 
	C163.162567,234.128769 162.367645,233.143143 161.286377,231.995453 
	C162.448242,230.603973 163.896469,229.374588 165.650818,228.015701 
	C165.313202,230.041473 164.669464,232.196747 163.991608,234.733185 
z"/>
<path fill="#ED1C24" opacity="1.000000" stroke="none" 
	d="
M314.986023,97.654152 
	C313.210815,97.816971 311.307281,97.676468 308.960022,97.348618 
	C309.404694,96.203697 310.293091,95.246124 312.122833,93.273895 
	C313.090088,94.715820 313.973877,96.033318 314.986023,97.654152 
z"/>
<path fill="#ED1C24" opacity="1.000000" stroke="none" 
	d="
M224.647125,174.018524 
	C225.347061,177.121277 223.764389,178.309586 220.299500,177.965729 
	C221.369217,176.688904 222.852997,175.420197 224.647125,174.018524 
z"/>
<path fill="#ED1C24" opacity="1.000000" stroke="none" 
	d="
M272.647156,130.018509 
	C273.347046,133.121140 271.764496,134.309586 268.299561,133.965714 
	C269.369293,132.688889 270.853058,131.420181 272.647156,130.018509 
z"/>
<path fill="#ED1C24" opacity="1.000000" stroke="none" 
	d="
M260.647156,141.018494 
	C261.346985,144.121140 259.764465,145.309631 256.299500,144.965729 
	C257.369232,143.688904 258.853027,142.420166 260.647156,141.018494 
z"/>
<path fill="#ED1C24" opacity="1.000000" stroke="none" 
	d="
M248.647125,152.018524 
	C249.347061,155.121277 247.764389,156.309586 244.299500,155.965729 
	C245.369217,154.688904 246.852997,153.420197 248.647125,152.018524 
z"/>
<path fill="#ED1C24" opacity="1.000000" stroke="none" 
	d="
M296.647156,108.018494 
	C297.346893,111.120987 295.764587,112.309692 292.299561,111.965683 
	C293.369263,110.688858 294.853027,109.420143 296.647156,108.018494 
z"/>
<path fill="#ED1C24" opacity="1.000000" stroke="none" 
	d="
M177.647125,217.018524 
	C178.347061,220.121277 176.764389,221.309586 173.299500,220.965729 
	C174.369217,219.688904 175.852997,218.420197 177.647125,217.018524 
z"/>
<path fill="#ED1C24" opacity="1.000000" stroke="none" 
	d="
M284.647156,119.018494 
	C285.346893,122.120987 283.764587,123.309692 280.299561,122.965691 
	C281.369263,121.688866 282.853058,120.420158 284.647156,119.018494 
z"/>
<path fill="#ED1C24" opacity="1.000000" stroke="none" 
	d="
M189.647141,206.018539 
	C190.347061,209.121277 188.764389,210.309586 185.299500,209.965729 
	C186.369232,208.688919 187.853012,207.420197 189.647141,206.018539 
z"/>
<path fill="#ED1C24" opacity="1.000000" stroke="none" 
	d="
M201.647125,195.018524 
	C202.347061,198.121277 200.764389,199.309586 197.299500,198.965729 
	C198.369217,197.688904 199.852997,196.420197 201.647125,195.018524 
z"/>
<path fill="#ED1C24" opacity="1.000000" stroke="none" 
	d="
M236.647141,163.018539 
	C237.347061,166.121277 235.764389,167.309586 232.299500,166.965729 
	C233.369232,165.688919 234.853012,164.420197 236.647141,163.018539 
z"/>
<path fill="#ED1C24" opacity="1.000000" stroke="none" 
	d="
M213.647125,184.018524 
	C214.347061,187.121277 212.764389,188.309586 209.299484,187.965714 
	C210.369202,186.688889 211.852982,185.420181 213.647125,184.018524 
z"/>
<path fill="#ED1C24" opacity="1.000000" stroke="none" 
	d="
M307.899780,97.696983 
	C309.581879,101.221527 306.921326,100.864334 304.307861,100.965553 
	C305.137115,99.929016 306.388733,98.900467 307.899780,97.696983 
z"/>
<path fill="#ED1C24" opacity="1.000000" stroke="none" 
	d="
M457.046692,643.268921 
	C457.697510,643.714539 458.353271,644.542175 459.084351,645.690430 
	C458.989136,646.618958 458.818634,647.226929 458.355286,647.963684 
	C457.725555,646.611938 457.388641,645.131470 457.046692,643.268921 
z"/>
<path fill="#ED1C24" opacity="1.000000" stroke="none" 
	d="
M454.938660,647.391602 
	C455.730682,647.342041 456.579010,647.644409 457.760651,648.003906 
	C457.899658,648.360840 457.705322,648.660583 457.255493,649.063477 
	C456.331635,648.692200 455.663269,648.217834 454.938660,647.391602 
z"/>
<path fill="#ED1C24" opacity="1.000000" stroke="none" 
	d="
M243.169037,516.156189 
	C262.727325,488.312256 282.285614,460.468323 302.005249,432.313782 
	C303.754852,433.800690 305.343109,435.598236 306.944458,437.755127 
	C305.413330,436.785187 304.784332,436.908386 303.424255,438.894653 
	C294.478760,451.958679 285.237610,464.820679 276.061981,477.726593 
	C270.444885,485.627289 264.772858,493.488892 258.814270,501.851562 
	C258.301544,502.567535 258.147400,502.828003 258.040680,503.116486 
	C256.275024,505.670349 254.509384,508.224243 252.074554,510.961853 
	C248.659927,512.815796 245.914490,514.485962 243.169037,516.156189 
z"/>
<path fill="#ED1C24" opacity="1.000000" stroke="none" 
	d="
M243.116638,516.262573 
	C245.914490,514.485962 248.659927,512.815796 251.760147,511.093842 
	C246.275009,519.664246 240.439957,528.289734 234.589600,536.904846 
	C233.778397,538.099365 232.891602,539.242554 231.752792,540.627319 
	C230.945770,539.630310 230.425751,538.415649 229.530945,536.868286 
	C229.136337,536.364197 229.116486,536.192810 229.612930,535.910889 
	C234.716492,534.750488 237.805405,530.014404 236.132401,526.595947 
	C236.118591,526.414185 236.104767,526.232422 236.610092,525.925537 
	C241.716507,524.750488 244.805405,520.014404 243.132401,516.595947 
	C243.132401,516.595947 243.064240,516.368896 243.116638,516.262573 
z"/>
<path fill="#ED1C24" opacity="1.000000" stroke="none" 
	d="
M258.291840,503.027771 
	C258.147400,502.828003 258.301544,502.567535 258.668213,502.177979 
	C258.736572,502.326904 258.639771,502.632996 258.291840,503.027771 
z"/>
<path fill="#ED1C24" opacity="1.000000" stroke="none" 
	d="
M235.873245,526.776123 
	C237.805405,530.014404 234.716492,534.750488 229.718399,535.674438 
	C231.409729,532.684509 233.511917,529.820435 235.873245,526.776123 
z"/>
<path fill="#ED1C24" opacity="1.000000" stroke="none" 
	d="
M242.873260,516.776123 
	C244.805405,520.014404 241.716507,524.750488 236.718414,525.674438 
	C238.409744,522.684509 240.511932,519.820435 242.873260,516.776123 
z"/>
<path fill="#FFF200" opacity="1.000000" stroke="none" 
	d="
M156.880508,638.018433 
	C156.867371,638.382935 156.688370,638.655762 156.276001,639.021362 
	C156.266632,638.718323 156.490631,638.322571 156.880508,638.018433 
z"/>
</svg>