<svg version="1.1" id="Layer_1" xmlns="http://www.w3.org/2000/svg" xmlns:xlink="http://www.w3.org/1999/xlink" x="0px" y="0px"
	 width="100%" viewBox="0 0 607 864" enable-background="new 0 0 607 864" xml:space="preserve">
<path fill="#000000" opacity="1.000000" stroke="none" 
	d="
M608.000000,864.000000 
	C607.833679,864.333313 607.684753,864.943787 607.498230,864.955505 
	C606.171082,865.038940 604.836243,865.000000 603.503845,865.000000 
	C404.310059,865.000000 205.116287,865.000000 5.122435,864.763855 
	C16.223488,847.632996 28.107264,830.726074 40.030201,813.846802 
	C54.863205,792.847656 69.780312,771.907837 84.567390,750.876465 
	C104.867989,722.003296 125.120872,693.096191 145.305252,664.141663 
	C151.045609,655.907104 156.476974,647.457214 162.365860,638.964600 
	C172.117447,625.569580 181.630035,612.369934 190.971069,599.049866 
	C205.164307,578.810791 219.393555,558.593506 233.268036,538.136658 
	C237.396088,532.050232 241.866165,528.371460 249.626984,529.907654 
	C252.512848,530.478943 255.684982,529.591492 258.577332,530.146729 
	C260.448120,530.505859 262.902344,531.878540 263.642548,533.471863 
	C276.569824,561.298401 289.251923,589.238647 302.080414,617.111450 
	C302.762390,618.593140 304.267792,619.695862 305.389893,620.974976 
	C306.600677,619.604065 308.219818,618.422729 308.958130,616.832458 
	C315.383392,602.992859 321.690521,589.097839 327.953979,575.183838 
	C334.347382,560.981140 340.593536,546.711670 347.099457,532.561218 
	C347.651428,531.360657 349.648560,530.176331 351.024628,530.114990 
	C357.010559,529.848389 363.019470,529.879578 369.009674,530.092957 
	C370.360168,530.141052 372.160492,531.005493 372.925598,532.082458 
	C393.375732,560.867371 413.691956,589.747314 434.085388,618.572632 
	C451.287140,642.886536 468.630585,667.100464 485.773682,691.455505 
	C499.438721,710.869324 512.799438,730.497314 526.468262,749.908447 
	C547.454163,779.710510 568.557861,809.429871 589.681763,839.134399 
	C594.944824,846.535278 600.476868,853.744751 605.938599,861.369507 
	C606.661255,862.464539 607.330627,863.232300 608.000000,864.000000 
z"/>
<path fill="#000000" opacity="1.000000" stroke="none" 
	d="
M6.000000,1.000000 
	C205.025833,1.000000 404.051666,1.000000 603.533325,1.362870 
	C603.803040,2.165480 603.688660,2.655557 603.420532,3.037764 
	C582.978760,32.171970 562.533997,61.304054 542.069397,90.422226 
	C523.099365,117.413826 504.106232,144.389236 485.125183,171.373077 
	C476.429138,183.735519 467.691833,196.069244 459.055511,208.473251 
	C448.290405,223.934799 437.610199,239.455444 426.578033,255.089828 
	C425.532898,256.297943 424.815155,257.375305 424.071411,258.434387 
	C406.777740,283.060913 389.138428,307.455841 372.395599,332.451263 
	C367.422363,339.875824 362.253021,343.796753 353.443604,341.969757 
	C351.200500,341.504578 349.034668,340.666779 346.901917,339.695740 
	C346.683014,338.911469 346.395538,338.431671 346.056213,337.593933 
	C344.947327,335.157410 343.890350,333.078796 342.901917,330.695740 
	C342.682983,329.911469 342.395538,329.431671 342.055695,328.588165 
	C340.613312,325.483032 339.223328,322.741608 337.901917,319.695740 
	C337.683014,318.911469 337.395538,318.431671 337.055695,317.588165 
	C335.613312,314.483032 334.223328,311.741608 332.901917,308.695740 
	C332.683014,307.911469 332.395569,307.431671 332.056213,306.593933 
	C330.947296,304.157410 329.890320,302.078796 328.901917,299.695740 
	C328.683014,298.911469 328.395569,298.431671 328.055695,297.588165 
	C326.613312,294.483032 325.223328,291.741608 323.901917,288.695740 
	C323.683014,287.911469 323.395538,287.431671 323.056183,286.593933 
	C321.947296,284.157410 320.890320,282.078796 319.901886,279.695740 
	C319.682983,278.911469 319.395538,278.431671 319.055695,277.588165 
	C317.613312,274.483032 316.223328,271.741608 314.901917,268.695740 
	C314.683014,267.911469 314.395538,267.431671 314.056213,266.593933 
	C312.947296,264.157410 311.890320,262.078796 310.901917,259.695740 
	C310.683014,258.911469 310.395538,258.431671 310.055115,257.584656 
	C308.426971,255.155396 306.851776,253.093323 305.276581,251.031265 
	C303.778992,253.232208 301.942322,255.275726 300.836151,257.658386 
	C289.482758,282.113556 278.359650,306.676025 266.932281,331.096252 
	C261.276154,343.183380 261.045105,343.133545 247.472961,341.915558 
	C246.040970,341.787048 244.256683,340.853577 243.413132,339.716766 
	C239.738495,334.764679 236.393234,329.569885 232.852295,324.516571 
	C219.402130,305.321716 205.955933,286.123901 192.445816,266.971252 
	C173.214600,239.708084 153.910004,212.496674 134.672684,185.237793 
	C123.599693,169.547592 112.651062,153.769501 101.551521,138.098190 
	C82.733971,111.529953 63.831432,85.021927 44.983765,58.474998 
	C32.732838,41.219566 20.485104,23.961611 8.334131,6.635922 
	C7.194460,5.010900 6.761227,2.890435 6.000000,1.000000 
z"/>
<path fill="#000000" opacity="1.000000" stroke="none" 
	d="
M0.999994,857.000000 
	C1.000000,574.303955 1.000000,291.607941 1.253214,8.094358 
	C2.323608,7.556200 3.140788,7.835585 3.982896,8.469739 
	C11.331472,19.175259 18.699751,29.494780 25.969118,39.883511 
	C39.488457,59.204151 52.850536,78.635513 66.459045,97.892906 
	C87.216248,127.266396 108.148483,156.516113 128.965576,185.847366 
	C143.183563,205.880478 157.338547,225.958313 171.509964,246.024460 
	C193.640259,277.360016 215.760620,308.702545 237.933502,340.360229 
	C237.949524,341.104919 237.917221,341.531494 237.423798,341.976135 
	C221.831207,341.996246 206.699341,342.061066 191.568588,341.959259 
	C187.415039,341.931305 186.057144,343.137909 187.928955,347.235291 
	C189.807343,351.347107 191.289032,355.639160 192.975433,359.839844 
	C203.034225,384.895142 213.101944,409.946869 223.096558,435.330688 
	C223.073196,436.107697 223.119919,436.553802 223.094330,437.384583 
	C221.404709,441.994659 219.869781,446.253845 218.156525,450.440002 
	C208.152939,474.882568 198.075302,499.294861 188.101562,523.749573 
	C185.919144,529.100647 186.643646,529.990967 192.527206,529.996277 
	C205.796127,530.008179 219.065033,530.000000 232.786499,530.000000 
	C232.225082,531.279846 231.978180,532.250366 231.438522,533.013977 
	C212.849533,559.318298 194.180298,585.566101 175.651215,611.912415 
	C169.873688,620.127441 164.464294,628.601379 158.574097,637.092834 
	C157.801437,637.706604 157.266769,638.132446 156.891388,638.669617 
	C138.458237,665.048706 120.112694,691.489380 101.596947,717.810303 
	C82.973335,744.284668 64.143250,770.613647 45.476994,797.058167 
	C31.972788,816.189514 18.617840,835.426331 5.080441,854.534058 
	C4.238181,855.722900 2.383580,856.194580 0.999994,857.000000 
z"/>
<path fill="#000000" opacity="1.000000" stroke="none" 
	d="
M608.000000,8.999990 
	C608.000000,290.696045 608.000000,572.392090 607.714050,854.491699 
	C606.966187,854.558716 606.504333,854.222107 605.905762,853.569702 
	C604.682129,851.835999 603.541565,850.455688 602.516357,848.994507 
	C581.398804,818.899841 560.335266,788.767151 539.176208,758.701660 
	C516.794983,726.899536 494.327759,695.158020 471.893616,663.393188 
	C454.246735,638.406555 436.603760,613.417236 418.938263,588.443787 
	C409.164337,574.626526 399.311890,560.864685 389.568268,547.026123 
	C385.730896,541.576111 382.093536,535.985229 378.055786,530.000000 
	C391.580933,530.000000 404.241425,530.003174 416.901917,529.998718 
	C423.614868,529.996338 424.066254,529.247742 421.469086,522.928345 
	C410.073334,495.200470 398.659088,467.479889 387.416412,439.690002 
	C386.671967,437.849945 386.662537,435.204407 387.389862,433.358521 
	C392.557617,420.242889 398.078003,407.266785 403.347473,394.190430 
	C409.644958,378.562988 415.716064,362.843872 422.082367,347.244934 
	C423.784576,343.074158 422.578064,341.915497 418.420471,341.959259 
	C407.092255,342.078552 395.761993,342.000092 384.432526,342.000000 
	C380.360077,341.999969 376.287598,342.000000 372.243530,342.000000 
	C372.243530,341.050659 372.112396,340.640320 372.262177,340.429108 
	C386.477386,320.378418 400.779938,300.389252 414.916504,280.283417 
	C420.505188,272.334839 425.727814,264.128845 431.429169,255.904175 
	C436.353821,249.474426 441.077972,243.258926 445.560028,236.873459 
	C466.566345,206.946243 487.468140,176.945633 508.480988,147.023010 
	C526.789246,120.951675 545.218567,94.965401 563.551697,68.911491 
	C577.020447,49.770561 590.390869,30.560328 603.921082,11.463088 
	C604.762756,10.275117 606.616882,9.804394 608.000000,8.999990 
z"/>
<path fill="#B5E61D" opacity="1.000000" stroke="none" 
	d="
M431.117126,256.040100 
	C425.727814,264.128845 420.505188,272.334839 414.916504,280.283417 
	C400.779938,300.389252 386.477386,320.378418 372.262177,340.429108 
	C372.112396,340.640320 372.243530,341.050659 372.243530,342.000000 
	C376.287598,342.000000 380.360077,341.999969 384.432526,342.000000 
	C395.761993,342.000092 407.092255,342.078552 418.420471,341.959259 
	C422.578064,341.915497 423.784576,343.074158 422.082367,347.244934 
	C415.716064,362.843872 409.644958,378.562988 403.347473,394.190430 
	C398.078003,407.266785 392.557617,420.242889 387.389862,433.358521 
	C386.662537,435.204407 386.671967,437.849945 387.416412,439.690002 
	C398.659088,467.479889 410.073334,495.200470 421.469086,522.928345 
	C424.066254,529.247742 423.614868,529.996338 416.901917,529.998718 
	C404.241425,530.003174 391.580933,530.000000 378.055786,530.000000 
	C382.093536,535.985229 385.730896,541.576111 389.568268,547.026123 
	C399.311890,560.864685 409.164337,574.626526 418.938263,588.443787 
	C436.603760,613.417236 454.246735,638.406555 471.893616,663.393188 
	C494.327759,695.158020 516.794983,726.899536 539.176208,758.701660 
	C560.335266,788.767151 581.398804,818.899841 602.516357,848.994507 
	C603.541565,850.455688 604.682129,851.835999 605.926025,853.908325 
	C606.722046,855.375183 607.361023,856.187622 608.000000,857.000000 
	C608.000000,858.066711 608.000000,859.133362 607.647461,860.604004 
	C606.825073,861.019348 606.355225,861.030823 605.885315,861.042236 
	C600.476868,853.744751 594.944824,846.535278 589.681763,839.134399 
	C568.557861,809.429871 547.454163,779.710510 526.468262,749.908447 
	C512.799438,730.497314 499.438721,710.869324 485.773682,691.455505 
	C468.630585,667.100464 451.287140,642.886536 434.085388,618.572632 
	C413.691956,589.747314 393.375732,560.867371 372.925598,532.082458 
	C372.160492,531.005493 370.360168,530.141052 369.009674,530.092957 
	C363.019470,529.879578 357.010559,529.848389 351.024628,530.114990 
	C349.648560,530.176331 347.651428,531.360657 347.099457,532.561218 
	C340.593536,546.711670 334.347382,560.981140 327.953979,575.183838 
	C321.690521,589.097839 315.383392,602.992859 308.958130,616.832458 
	C308.219818,618.422729 306.600677,619.604065 305.389893,620.974976 
	C304.267792,619.695862 302.762390,618.593140 302.080414,617.111450 
	C289.251923,589.238647 276.569824,561.298401 263.642548,533.471863 
	C262.902344,531.878540 260.448120,530.505859 258.577332,530.146729 
	C255.684982,529.591492 252.512848,530.478943 249.626984,529.907654 
	C241.866165,528.371460 237.396088,532.050232 233.268036,538.136658 
	C219.393555,558.593506 205.164307,578.810791 190.971069,599.049866 
	C181.630035,612.369934 172.117447,625.569580 162.146561,638.730713 
	C160.703079,638.077759 159.794739,637.517273 158.886383,636.956787 
	C164.464294,628.601379 169.873688,620.127441 175.651215,611.912415 
	C194.180298,585.566101 212.849533,559.318298 231.438522,533.013977 
	C231.978180,532.250366 232.225082,531.279846 232.786499,530.000000 
	C219.065033,530.000000 205.796127,530.008179 192.527206,529.996277 
	C186.643646,529.990967 185.919144,529.100647 188.101562,523.749573 
	C198.075302,499.294861 208.152939,474.882568 218.156525,450.440002 
	C219.869781,446.253845 221.404709,441.994659 223.315536,437.303619 
	C223.461594,436.225281 223.314117,435.612549 223.166656,434.999817 
	C213.101944,409.946869 203.034225,384.895142 192.975433,359.839844 
	C191.289032,355.639160 189.807343,351.347107 187.928955,347.235291 
	C186.057144,343.137909 187.415039,341.931305 191.568588,341.959259 
	C206.699341,342.061066 221.831207,341.996246 237.667206,341.910461 
	C238.209549,341.231873 238.047363,340.636993 237.885178,340.042145 
	C215.760620,308.702545 193.640259,277.360016 171.509964,246.024460 
	C157.338547,225.958313 143.183563,205.880478 128.965576,185.847366 
	C108.148483,156.516113 87.216248,127.266396 66.459045,97.892906 
	C52.850536,78.635513 39.488457,59.204151 25.969118,39.883511 
	C18.699751,29.494780 11.331472,19.175259 3.918107,8.140740 
	C2.885593,6.637982 1.942796,5.818991 1.000000,5.000000 
	C1.000000,3.745086 1.000000,2.490172 1.000000,1.000000 
	C2.330387,1.000000 3.665231,1.000000 5.500038,1.000000 
	C6.761227,2.890435 7.194460,5.010900 8.334131,6.635922 
	C20.485104,23.961611 32.732838,41.219566 44.983765,58.474998 
	C63.831432,85.021927 82.733971,111.529953 101.551521,138.098190 
	C112.651062,153.769501 123.599693,169.547592 134.672684,185.237793 
	C153.910004,212.496674 173.214600,239.708084 192.445816,266.971252 
	C205.955933,286.123901 219.402130,305.321716 232.852295,324.516571 
	C236.393234,329.569885 239.738495,334.764679 243.413132,339.716766 
	C244.256683,340.853577 246.040970,341.787048 247.472961,341.915558 
	C261.045105,343.133545 261.276154,343.183380 266.932281,331.096252 
	C278.359650,306.676025 289.482758,282.113556 300.836151,257.658386 
	C301.942322,255.275726 303.778992,253.232208 305.276581,251.031265 
	C306.851776,253.093323 308.426971,255.155396 309.905579,257.769592 
	C310.150482,258.881226 310.491913,259.440704 310.833344,260.000183 
	C311.890320,262.078796 312.947296,264.157410 313.906677,266.778870 
	C314.150452,267.881226 314.491882,268.440704 314.833344,269.000183 
	C316.223328,271.741608 317.613312,274.483032 318.906158,277.773102 
	C319.150452,278.881226 319.491882,279.440704 319.833313,280.000183 
	C320.890320,282.078796 321.947296,284.157410 322.906647,286.778870 
	C323.150452,287.881226 323.491913,288.440704 323.833344,289.000183 
	C325.223328,291.741608 326.613312,294.483032 327.906158,297.773102 
	C328.150452,298.881226 328.491913,299.440704 328.833344,300.000183 
	C329.890320,302.078796 330.947296,304.157410 331.906677,306.778870 
	C332.150482,307.881226 332.491913,308.440704 332.833344,309.000183 
	C334.223328,311.741608 335.613312,314.483032 336.906158,317.773102 
	C337.150482,318.881226 337.491913,319.440704 337.833344,320.000183 
	C339.223328,322.741608 340.613312,325.483032 341.906158,328.773102 
	C342.150452,329.881226 342.491913,330.440704 342.833344,331.000183 
	C343.890350,333.078796 344.947327,335.157410 345.906677,337.778870 
	C346.150452,338.881226 346.491882,339.440704 346.833344,340.000183 
	C349.034668,340.666779 351.200500,341.504578 353.443604,341.969757 
	C362.253021,343.796753 367.422363,339.875824 372.395599,332.451263 
	C389.138428,307.455841 406.777740,283.060913 424.071411,258.434387 
	C424.815155,257.375305 425.532898,256.297943 426.913849,255.236435 
	C428.749023,255.509232 429.933075,255.774658 431.117126,256.040100 
z"/>
<path fill="#B5E61D" opacity="1.000000" stroke="none" 
	d="
M431.429199,255.904175 
	C429.933075,255.774658 428.749023,255.509232 427.229126,255.097183 
	C437.610199,239.455444 448.290405,223.934799 459.055511,208.473251 
	C467.691833,196.069244 476.429138,183.735519 485.125183,171.373077 
	C504.106232,144.389236 523.099365,117.413826 542.069397,90.422226 
	C562.533997,61.304054 582.978760,32.171970 603.420532,3.037764 
	C603.688660,2.655557 603.803040,2.165480 603.994568,1.362870 
	C605.276611,1.000000 606.553162,1.000000 608.000000,1.000000 
	C608.000000,3.335620 608.000000,5.673077 608.000000,8.505257 
	C606.616882,9.804394 604.762756,10.275117 603.921082,11.463088 
	C590.390869,30.560328 577.020447,49.770561 563.551697,68.911491 
	C545.218567,94.965401 526.789246,120.951675 508.480988,147.023010 
	C487.468140,176.945633 466.566345,206.946243 445.560028,236.873459 
	C441.077972,243.258926 436.353821,249.474426 431.429199,255.904175 
z"/>
<path fill="#B5E61D" opacity="1.000000" stroke="none" 
	d="
M158.574097,637.092834 
	C159.794739,637.517273 160.703079,638.077759 161.830734,638.872131 
	C156.476974,647.457214 151.045609,655.907104 145.305252,664.141663 
	C125.120872,693.096191 104.867989,722.003296 84.567390,750.876465 
	C69.780312,771.907837 54.863205,792.847656 40.030201,813.846802 
	C28.107264,830.726074 16.223488,847.632996 4.661180,864.763855 
	C3.723421,865.000000 2.446841,865.000000 1.000000,865.000000 
	C1.000000,862.664368 1.000000,860.326965 0.999994,857.494751 
	C2.383580,856.194580 4.238181,855.722900 5.080441,854.534058 
	C18.617840,835.426331 31.972788,816.189514 45.476994,797.058167 
	C64.143250,770.613647 82.973335,744.284668 101.596947,717.810303 
	C120.112694,691.489380 138.458237,665.048706 156.891388,638.669617 
	C157.266769,638.132446 157.801437,637.706604 158.574097,637.092834 
z"/>
<path fill="#B5E61D" opacity="1.000000" stroke="none" 
	d="
M1.000000,5.375000 
	C1.942796,5.818991 2.885593,6.637982 3.893179,7.785971 
	C3.140788,7.835585 2.323608,7.556200 1.253214,7.638408 
	C1.000000,7.250000 1.000000,6.500000 1.000000,5.375000 
z"/>
<path fill="#B5E61D" opacity="1.000000" stroke="none" 
	d="
M605.938599,861.369507 
	C606.355225,861.030823 606.825073,861.019348 607.647461,861.003967 
	C608.000000,861.750000 608.000000,862.500000 608.000000,863.625000 
	C607.330627,863.232300 606.661255,862.464539 605.938599,861.369507 
z"/>
<path fill="#B5E61D" opacity="1.000000" stroke="none" 
	d="
M608.000000,856.666687 
	C607.361023,856.187622 606.722046,855.375183 606.062744,854.224121 
	C606.504333,854.222107 606.966187,854.558716 607.714050,854.947632 
	C608.000000,855.444458 608.000000,855.888916 608.000000,856.666687 
z"/>
<path fill="#B5E61D" opacity="1.000000" stroke="none" 
	d="
M328.901917,299.695740 
	C328.491913,299.440704 328.150452,298.881226 327.958557,298.136810 
	C328.395569,298.431671 328.683014,298.911469 328.901917,299.695740 
z"/>
<path fill="#B5E61D" opacity="1.000000" stroke="none" 
	d="
M332.901917,308.695740 
	C332.491913,308.440704 332.150482,307.881226 331.958557,307.136810 
	C332.395569,307.431671 332.683014,307.911469 332.901917,308.695740 
z"/>
<path fill="#B5E61D" opacity="1.000000" stroke="none" 
	d="
M337.901917,319.695740 
	C337.491913,319.440704 337.150482,318.881226 336.958557,318.136810 
	C337.395538,318.431671 337.683014,318.911469 337.901917,319.695740 
z"/>
<path fill="#B5E61D" opacity="1.000000" stroke="none" 
	d="
M342.901917,330.695740 
	C342.491913,330.440704 342.150452,329.881226 341.958557,329.136810 
	C342.395538,329.431671 342.682983,329.911469 342.901917,330.695740 
z"/>
<path fill="#B5E61D" opacity="1.000000" stroke="none" 
	d="
M346.901917,339.695740 
	C346.491882,339.440704 346.150452,338.881226 345.958557,338.136810 
	C346.395538,338.431671 346.683014,338.911469 346.901917,339.695740 
z"/>
<path fill="#B5E61D" opacity="1.000000" stroke="none" 
	d="
M323.901917,288.695740 
	C323.491913,288.440704 323.150452,287.881226 322.958557,287.136810 
	C323.395538,287.431671 323.683014,287.911469 323.901917,288.695740 
z"/>
<path fill="#B5E61D" opacity="1.000000" stroke="none" 
	d="
M319.901917,279.695740 
	C319.491882,279.440704 319.150452,278.881226 318.958557,278.136810 
	C319.395538,278.431671 319.682983,278.911469 319.901917,279.695740 
z"/>
<path fill="#B5E61D" opacity="1.000000" stroke="none" 
	d="
M314.901917,268.695740 
	C314.491882,268.440704 314.150452,267.881226 313.958557,267.136810 
	C314.395538,267.431671 314.683014,267.911469 314.901917,268.695740 
z"/>
<path fill="#B5E61D" opacity="1.000000" stroke="none" 
	d="
M310.901917,259.695740 
	C310.491913,259.440704 310.150482,258.881226 309.958557,258.136810 
	C310.395538,258.431671 310.683014,258.911469 310.901917,259.695740 
z"/>
<path fill="#B5E61D" opacity="1.000000" stroke="none" 
	d="
M237.933502,340.360229 
	C238.047363,340.636993 238.209549,341.231873 238.128326,341.892395 
	C237.917221,341.531494 237.949524,341.104919 237.933502,340.360229 
z"/>
<path fill="#B5E61D" opacity="1.000000" stroke="none" 
	d="
M223.096558,435.330688 
	C223.314117,435.612549 223.461594,436.225281 223.387863,436.918945 
	C223.119919,436.553802 223.073196,436.107697 223.096558,435.330688 
z"/>
</svg>