<svg version="1.1" id="Layer_1" xmlns="http://www.w3.org/2000/svg" xmlns:xlink="http://www.w3.org/1999/xlink" x="0px" y="0px"
	 width="100%" viewBox="0 0 607 864" enable-background="new 0 0 607 864" xml:space="preserve">
<path fill="#000000" opacity="1.000000" stroke="none" 
	d="
M0.999996,857.000000 
	C1.000000,574.303955 1.000000,291.607941 1.246917,8.118567 
	C2.755078,8.488533 4.263365,9.475168 5.240544,10.841612 
	C20.103188,31.624861 34.966095,52.408623 49.689064,73.290886 
	C70.862663,103.322388 91.870239,133.470947 113.046402,163.500626 
	C132.544861,191.151199 152.192383,218.696594 171.736908,246.314758 
	C187.732803,268.918427 203.684586,291.553375 219.620819,314.199158 
	C221.073914,316.264038 221.738419,318.277039 220.543900,321.080719 
	C210.062057,345.683136 199.791687,370.375580 189.451355,395.038300 
	C187.146530,400.535522 187.456741,400.994965 193.708191,400.997681 
	C209.701904,401.004608 225.695633,400.993622 241.689331,401.011017 
	C243.106873,401.012543 244.524231,401.168976 245.999893,401.256897 
	C245.999893,437.742706 246.008881,473.727325 245.961487,509.711853 
	C245.959869,510.935974 245.712677,512.384705 245.036713,513.347168 
	C239.909485,520.648010 234.574219,527.802673 229.438797,535.097961 
	C209.657303,563.199158 189.926758,591.336304 170.176147,619.459290 
	C150.521820,647.445251 130.869171,675.432495 111.210342,703.415283 
	C93.896835,728.059692 76.511971,752.654297 59.276089,777.352905 
	C42.043934,802.046082 25.011242,826.878662 7.717513,851.528381 
	C6.121369,853.803406 3.269036,855.197083 0.999996,857.000000 
z"/>
<path fill="#000000" opacity="1.000000" stroke="none" 
	d="
M608.000000,9.000002 
	C608.000000,290.362701 608.000000,571.725403 607.743652,853.868042 
	C606.855408,854.114136 606.079529,853.683289 605.613220,853.031067 
	C598.065796,842.475708 590.537659,831.906494 583.044922,821.312256 
	C567.130432,798.810364 551.204834,776.316040 535.346436,753.774658 
	C514.173096,723.678650 493.118347,693.499023 471.902069,663.433411 
	C453.105164,636.796326 434.127167,610.287170 415.285583,583.681519 
	C400.853790,563.302795 386.524170,542.851685 372.115356,522.456665 
	C369.229279,518.371582 367.835968,514.136169 367.873566,508.909973 
	C368.119324,474.750763 368.000000,440.588898 368.000000,406.427917 
	C368.000000,404.673431 368.000000,402.918945 368.000000,401.000000 
	C385.493439,401.000000 402.311462,401.000336 419.129517,400.999817 
	C426.891235,400.999573 427.240906,400.244812 424.021973,392.900238 
	C419.879761,383.449158 415.962341,373.898956 411.998779,364.370361 
	C405.007874,347.563873 398.055328,330.741425 391.031799,313.793060 
	C391.978058,312.595367 393.046997,311.363251 393.984192,310.037964 
	C408.846588,289.021271 423.727905,268.017792 438.533142,246.960876 
	C460.675751,215.468292 482.758240,183.933441 504.873810,152.421829 
	C520.474548,130.192993 536.140076,108.009476 551.680786,85.738808 
	C568.242920,62.004482 584.636414,38.152184 601.280273,14.475671 
	C602.879761,12.200255 605.730225,10.804248 608.000000,9.000002 
z"/>
<path fill="#000000" opacity="1.000000" stroke="none" 
	d="
M608.000000,864.000000 
	C607.833679,864.333313 607.684753,864.943787 607.498230,864.955505 
	C606.171082,865.038940 604.836243,865.000000 603.503845,865.000000 
	C404.310059,865.000000 205.116287,865.000000 5.129729,864.732788 
	C4.615504,863.975464 4.894059,863.485229 5.487332,862.858826 
	C21.121698,841.024536 36.466000,819.343811 51.754128,797.623596 
	C67.418167,775.369385 83.059418,753.098999 98.652412,730.794983 
	C119.408951,701.105042 140.043015,671.329285 160.854874,641.678223 
	C177.059097,618.591614 193.525604,595.689270 209.739334,572.609314 
	C219.978516,558.033997 229.939575,543.263550 240.098724,528.631592 
	C241.557495,526.530518 243.429398,524.716248 246.000000,521.738403 
	C246.000000,525.167725 246.000000,526.979675 246.000000,528.791626 
	C246.000000,577.287048 246.068253,625.782654 245.892334,674.277466 
	C245.875092,679.024841 247.310287,680.119934 251.854050,680.098206 
	C288.516388,679.923035 325.180664,679.889893 361.842346,680.123596 
	C367.095947,680.157104 368.126190,678.477722 368.107574,673.580750 
	C367.928040,626.419250 368.000000,579.256775 368.000000,532.094604 
	C368.000000,530.414185 368.000000,528.733765 368.000000,526.125549 
	C369.539154,527.314514 370.167084,527.603943 370.510468,528.093018 
	C383.735657,546.929810 396.895386,565.812622 410.146606,584.631042 
	C430.125977,613.004333 450.172943,641.330017 470.180054,669.683777 
	C492.523590,701.348755 514.826050,733.042786 537.199097,764.686890 
	C560.395264,797.495422 583.654602,830.259277 606.975586,863.300049 
	C607.376648,863.704895 607.688293,863.852478 608.000000,864.000000 
z"/>
<path fill="#000000" opacity="1.000000" stroke="none" 
	d="
M5.000000,1.000000 
	C204.359177,1.000000 403.718353,1.000000 603.535645,1.365222 
	C590.885498,20.432615 577.787659,39.142113 564.665955,57.834911 
	C551.257141,76.936768 537.780151,95.990921 524.413391,115.122131 
	C503.716003,144.745361 483.129242,174.445923 462.417175,204.058853 
	C440.492493,235.405502 418.498199,266.703552 396.466553,297.975098 
	C394.210968,301.176666 391.491913,304.051727 388.452087,307.725983 
	C385.939880,301.520386 384.005981,296.574463 381.945007,291.682068 
	C373.997955,272.817352 365.929535,254.003372 358.060516,235.106277 
	C350.265076,216.385864 342.682068,197.577087 334.956848,178.827286 
	C326.982574,159.472961 318.982941,140.128799 310.874847,120.830414 
	C310.255188,119.355530 308.685608,118.279755 307.557556,117.018471 
	C306.393066,118.240547 304.778137,119.266510 304.145233,120.720047 
	C301.896179,125.885597 300.106964,131.249634 297.917114,136.443008 
	C291.343048,152.033875 284.587616,167.548462 278.041595,183.150986 
	C269.875031,202.616241 261.872528,222.150253 253.751007,241.634491 
	C246.189377,259.775513 238.580185,277.896759 230.957581,296.012238 
	C228.815231,301.103638 226.551697,306.144073 223.965820,312.074677 
	C221.644928,308.713074 219.931198,306.183777 218.170364,303.687744 
	C199.777176,277.614655 181.385925,251.540192 162.974838,225.479767 
	C147.685684,203.838318 132.375702,182.211563 117.065842,160.584763 
	C97.539062,133.001114 77.986137,105.435951 58.478989,77.838432 
	C49.929867,65.743660 41.431122,53.612888 32.973038,41.454262 
	C23.610786,27.995876 14.321220,14.486928 5.000000,1.000000 
z"/>
<path fill="#FFF200" opacity="1.000000" stroke="none" 
	d="
M4.500000,1.000000 
	C14.321220,14.486928 23.610786,27.995876 32.973038,41.454262 
	C41.431122,53.612888 49.929867,65.743660 58.478989,77.838432 
	C77.986137,105.435951 97.539062,133.001114 117.065842,160.584763 
	C132.375702,182.211563 147.685684,203.838318 162.974838,225.479767 
	C181.385925,251.540192 199.777176,277.614655 218.170364,303.687744 
	C219.931198,306.183777 221.644928,308.713074 223.965820,312.074677 
	C226.551697,306.144073 228.815231,301.103638 230.957581,296.012238 
	C238.580185,277.896759 246.189377,259.775513 253.751007,241.634491 
	C261.872528,222.150253 269.875031,202.616241 278.041595,183.150986 
	C284.587616,167.548462 291.343048,152.033875 297.917114,136.443008 
	C300.106964,131.249634 301.896179,125.885597 304.145233,120.720047 
	C304.778137,119.266510 306.393066,118.240547 307.557556,117.018471 
	C308.685608,118.279755 310.255188,119.355530 310.874847,120.830414 
	C318.982941,140.128799 326.982574,159.472961 334.956848,178.827286 
	C342.682068,197.577087 350.265076,216.385864 358.060516,235.106277 
	C365.929535,254.003372 373.997955,272.817352 381.945007,291.682068 
	C384.005981,296.574463 385.939880,301.520386 388.452087,307.725983 
	C391.491913,304.051727 394.210968,301.176666 396.466553,297.975098 
	C418.498199,266.703552 440.492493,235.405502 462.417175,204.058853 
	C483.129242,174.445923 503.716003,144.745361 524.413391,115.122131 
	C537.780151,95.990921 551.257141,76.936768 564.665955,57.834911 
	C577.787659,39.142113 590.885498,20.432615 603.996948,1.365222 
	C605.276611,1.000000 606.553162,1.000000 608.000000,1.000000 
	C608.000000,3.335620 608.000000,5.673077 608.000000,8.505268 
	C605.730225,10.804248 602.879761,12.200255 601.280273,14.475671 
	C584.636414,38.152184 568.242920,62.004482 551.680786,85.738808 
	C536.140076,108.009476 520.474548,130.192993 504.873810,152.421829 
	C482.758240,183.933441 460.675751,215.468292 438.533142,246.960876 
	C423.727905,268.017792 408.846588,289.021271 393.984192,310.037964 
	C393.046997,311.363251 391.978058,312.595367 391.031799,313.793060 
	C398.055328,330.741425 405.007874,347.563873 411.998779,364.370361 
	C415.962341,373.898956 419.879761,383.449158 424.021973,392.900238 
	C427.240906,400.244812 426.891235,400.999573 419.129517,400.999817 
	C402.311462,401.000336 385.493439,401.000000 368.000000,401.000000 
	C368.000000,402.918945 368.000000,404.673431 368.000000,406.427917 
	C368.000000,440.588898 368.119324,474.750763 367.873566,508.909973 
	C367.835968,514.136169 369.229279,518.371582 372.115356,522.456665 
	C386.524170,542.851685 400.853790,563.302795 415.285583,583.681519 
	C434.127167,610.287170 453.105164,636.796326 471.902069,663.433411 
	C493.118347,693.499023 514.173096,723.678650 535.346436,753.774658 
	C551.204834,776.316040 567.130432,798.810364 583.044922,821.312256 
	C590.537659,831.906494 598.065796,842.475708 605.613220,853.031067 
	C606.079529,853.683289 606.855408,854.114136 607.743652,854.323975 
	C608.000000,856.700012 608.000000,859.400024 607.721313,862.554565 
	C607.257141,863.020325 607.071716,863.031555 606.886292,863.042725 
	C583.654602,830.259277 560.395264,797.495422 537.199097,764.686890 
	C514.826050,733.042786 492.523590,701.348755 470.180054,669.683777 
	C450.172943,641.330017 430.125977,613.004333 410.146606,584.631042 
	C396.895386,565.812622 383.735657,546.929810 370.510468,528.093018 
	C370.167084,527.603943 369.539154,527.314514 368.000000,526.125549 
	C368.000000,528.733765 368.000000,530.414185 368.000000,532.094604 
	C368.000000,579.256775 367.928040,626.419250 368.107574,673.580750 
	C368.126190,678.477722 367.095947,680.157104 361.842346,680.123596 
	C325.180664,679.889893 288.516388,679.923035 251.854050,680.098206 
	C247.310287,680.119934 245.875092,679.024841 245.892334,674.277466 
	C246.068253,625.782654 246.000000,577.287048 246.000000,528.791626 
	C246.000000,526.979675 246.000000,525.167725 246.000000,521.738403 
	C243.429398,524.716248 241.557495,526.530518 240.098724,528.631592 
	C229.939575,543.263550 219.978516,558.033997 209.739334,572.609314 
	C193.525604,595.689270 177.059097,618.591614 160.854874,641.678223 
	C140.043015,671.329285 119.408951,701.105042 98.652412,730.794983 
	C83.059418,753.098999 67.418167,775.369385 51.754128,797.623596 
	C36.466000,819.343811 21.121698,841.024536 5.167295,862.920776 
	C4.021696,863.746033 3.510855,864.373047 3.000017,865.000000 
	C2.333353,864.560120 1.155767,864.183838 1.091682,863.668945 
	C0.859187,861.800903 1.000000,859.886475 0.999996,857.494751 
	C3.269036,855.197083 6.121369,853.803406 7.717513,851.528381 
	C25.011242,826.878662 42.043934,802.046082 59.276089,777.352905 
	C76.511971,752.654297 93.896835,728.059692 111.210342,703.415283 
	C130.869171,675.432495 150.521820,647.445251 170.176147,619.459290 
	C189.926758,591.336304 209.657303,563.199158 229.438797,535.097961 
	C234.574219,527.802673 239.909485,520.648010 245.036713,513.347168 
	C245.712677,512.384705 245.959869,510.935974 245.961487,509.711853 
	C246.008881,473.727325 245.999893,437.742706 245.999893,401.256897 
	C244.524231,401.168976 243.106873,401.012543 241.689331,401.011017 
	C225.695633,400.993622 209.701904,401.004608 193.708191,400.997681 
	C187.456741,400.994965 187.146530,400.535522 189.451355,395.038300 
	C199.791687,370.375580 210.062057,345.683136 220.543900,321.080719 
	C221.738419,318.277039 221.073914,316.264038 219.620819,314.199158 
	C203.684586,291.553375 187.732803,268.918427 171.736908,246.314758 
	C152.192383,218.696594 132.544861,191.151199 113.046402,163.500626 
	C91.870239,133.470947 70.862663,103.322388 49.689064,73.290886 
	C34.966095,52.408623 20.103188,31.624861 5.240544,10.841612 
	C4.263365,9.475168 2.755078,8.488533 1.246917,7.662616 
	C1.000000,6.500000 1.271085,4.937912 0.944655,3.512676 
	C0.222177,0.358248 2.345620,1.048077 4.500000,1.000000 
z"/>
<path fill="#FFF200" opacity="1.000000" stroke="none" 
	d="
M3.333341,865.000000 
	C3.510855,864.373047 4.021696,863.746033 4.852575,863.057007 
	C4.894059,863.485229 4.615504,863.975464 4.668474,864.732788 
	C4.555555,865.000000 4.111111,865.000000 3.333341,865.000000 
z"/>
<path fill="#FFF200" opacity="1.000000" stroke="none" 
	d="
M606.975586,863.300049 
	C607.071716,863.031555 607.257141,863.020325 607.721313,863.004517 
	C608.000000,863.000000 608.000000,863.500000 608.000000,863.750000 
	C607.688293,863.852478 607.376648,863.704895 606.975586,863.300049 
z"/>
</svg>