<svg version="1.1" id="Layer_1" xmlns="http://www.w3.org/2000/svg" xmlns:xlink="http://www.w3.org/1999/xlink" x="0px" y="0px"
	 width="100%" viewBox="0 0 607 864" enable-background="new 0 0 607 864" xml:space="preserve">
<path fill="#000000" opacity="1.000000" stroke="none" 
	d="
M1.000007,857.000000 
	C1.000000,574.303955 1.000000,291.607941 1.278573,8.133611 
	C2.357459,7.608581 3.157772,7.861841 3.986306,8.467836 
	C20.357393,32.061798 36.675919,55.320190 53.048882,78.540199 
	C77.057259,112.588692 101.103935,146.610168 125.135551,180.642273 
	C142.758591,205.598938 160.372559,230.562027 178.011459,255.507507 
	C191.784058,274.985168 205.650391,294.397186 219.277252,313.976105 
	C220.543427,315.795288 220.381226,318.608673 220.575134,321.140869 
	C215.636520,332.279510 210.982025,343.228088 206.379196,354.198364 
	C200.389069,368.475067 194.432281,382.765839 188.480606,397.058655 
	C187.461258,399.506622 188.218460,400.871552 191.464661,400.901245 
	C208.319916,400.979462 224.711044,400.960754 241.101639,401.043640 
	C242.791534,401.052185 244.478394,401.666595 246.101562,402.331055 
	C246.079880,403.108063 246.123260,403.553864 246.098724,404.464050 
	C245.981415,440.938965 245.932022,476.949524 245.592667,513.086182 
	C244.591034,513.983887 243.879379,514.755432 243.110291,515.794922 
	C243.077652,516.243835 243.102432,516.424866 242.862579,516.785400 
	C231.705704,532.444519 220.837021,547.940674 209.915146,563.399231 
	C196.806961,581.952209 183.588974,600.427917 170.533569,619.017883 
	C147.057968,652.445679 123.684441,685.945068 100.237350,719.392883 
	C81.482498,746.147095 62.692757,772.876770 43.897690,799.602722 
	C31.019131,817.915588 18.135757,836.225342 5.136469,854.452209 
	C4.270065,855.666931 2.402121,856.167358 1.000007,857.000000 
z"/>
<path fill="#000000" opacity="1.000000" stroke="none" 
	d="
M608.000000,9.000003 
	C608.000000,290.696045 608.000000,572.392090 607.717529,854.483215 
	C606.970886,854.547363 606.506592,854.216370 605.900757,853.573730 
	C603.537476,850.041443 601.351135,846.795776 599.088440,843.604248 
	C577.820129,813.604858 556.519958,783.628113 535.267334,753.617615 
	C519.308655,731.082458 503.402588,708.510071 487.479584,685.949646 
	C463.355042,651.768921 439.234772,617.585205 415.115479,583.400818 
	C400.892731,563.242859 386.591919,543.138977 372.544617,522.859497 
	C370.419373,519.791443 368.226349,515.909729 368.194611,512.385132 
	C367.875000,476.902466 368.000092,441.415771 368.000092,405.930206 
	C368.000092,404.352142 368.000122,402.774048 368.000122,400.999939 
	C385.784851,400.999939 402.770172,401.003784 419.755493,400.998016 
	C426.552795,400.995728 427.071716,400.176147 424.455414,393.959076 
	C414.775177,370.956177 404.924194,348.021545 395.611206,324.870667 
	C393.747192,320.236938 388.633301,315.328491 394.040771,309.429047 
	C395.125305,307.630493 396.002319,306.019653 397.297241,304.343811 
	C397.824463,303.617432 397.933746,302.956085 398.200867,302.556885 
	C399.187103,302.030487 400.173004,301.353302 400.820587,300.437012 
	C413.446442,282.571411 426.074982,264.707428 438.618225,246.783813 
	C461.734283,213.752274 484.752686,180.652313 507.892944,147.637756 
	C526.914795,120.498970 546.053467,93.442062 565.141541,66.349739 
	C578.025269,48.063564 590.880066,29.756744 603.865967,11.543420 
	C604.731140,10.329975 606.598694,9.831192 608.000000,9.000003 
z"/>
<path fill="#000000" opacity="1.000000" stroke="none" 
	d="
M608.000000,864.000000 
	C607.833679,864.333313 607.684753,864.943787 607.498230,864.955505 
	C606.171082,865.038940 604.836243,865.000000 603.503845,865.000000 
	C404.310059,865.000000 205.116287,865.000000 5.123326,864.765503 
	C7.413164,860.302002 10.577498,856.125732 13.579173,851.835693 
	C35.945522,819.869019 58.238308,787.850708 80.636566,755.906372 
	C99.664841,728.768433 118.797745,701.703796 137.895081,674.614319 
	C146.739136,662.069031 155.682053,649.592712 164.436569,636.985352 
	C168.960434,630.470581 173.170425,623.737793 177.857620,617.088013 
	C178.406479,616.723938 178.619919,616.375366 178.987595,615.706360 
	C190.015121,600.096252 200.888412,584.806580 211.867142,569.256470 
	C212.331543,568.366150 212.690506,567.736389 213.360428,566.927734 
	C218.161499,560.172302 222.651611,553.595886 227.377838,546.925720 
	C227.700089,546.686218 227.786209,546.540344 228.118347,546.223755 
	C228.947250,545.049988 229.530090,544.046875 230.346161,542.960083 
	C230.911636,542.655823 230.996292,542.363586 230.954498,541.729065 
	C231.421417,540.986938 231.767166,540.515381 232.346146,539.960083 
	C232.911636,539.655823 232.996292,539.363586 232.905365,538.782959 
	C232.977386,538.566345 233.042450,538.114441 233.328766,537.987793 
	C234.354507,536.907288 235.093933,535.953308 235.992859,534.683716 
	C238.782272,530.617065 241.412201,526.865906 244.361237,523.075439 
	C245.175797,523.356873 245.671219,523.677734 246.098724,524.463013 
	C246.020554,574.563782 246.091919,624.200500 245.880737,673.836060 
	C245.858276,679.116333 247.616089,680.129333 252.475479,680.103638 
	C288.619202,679.912659 324.764404,680.000549 360.909119,679.999573 
	C367.996613,679.999390 367.994995,679.996826 368.000214,672.953369 
	C368.036407,624.317749 368.073303,575.682068 368.418854,527.029419 
	C369.137909,527.046631 369.548035,527.080872 370.101013,527.428345 
	C375.549438,535.384033 380.810150,543.058228 386.168243,550.663818 
	C410.069183,584.590088 433.991791,618.501099 457.918335,652.409302 
	C480.338837,684.183105 502.796295,715.930908 525.196655,747.718811 
	C547.312134,779.102417 569.340393,810.547668 591.492981,841.904968 
	C596.096375,848.421143 601.077942,854.670105 605.939209,861.367310 
	C606.662048,862.461609 607.331055,863.230774 608.000000,864.000000 
z"/>
<path fill="#000000" opacity="1.000000" stroke="none" 
	d="
M6.000000,1.000000 
	C205.025833,1.000000 404.051666,1.000000 603.529175,1.360747 
	C590.768860,20.564972 577.537415,39.394875 564.349121,58.254948 
	C541.236084,91.308174 518.207214,124.420479 495.034546,157.431793 
	C474.201172,187.110641 453.169800,216.650452 432.327301,246.322937 
	C420.414307,263.282898 408.786041,280.443085 396.835724,297.376312 
	C394.364990,300.877228 391.036041,303.772491 388.049744,306.579773 
	C381.976807,291.784149 375.944031,277.360992 369.940094,262.925812 
	C363.243591,246.825623 356.596954,230.704636 349.885254,214.610809 
	C342.609070,197.163345 335.263702,179.744720 327.984528,162.298508 
	C322.088867,148.168228 316.268799,134.006378 310.361206,119.881119 
	C309.220276,117.153114 307.660675,115.383759 305.062683,119.134705 
	C304.275269,121.066681 303.606201,122.711388 302.921051,124.349396 
	C296.192535,140.436157 289.478241,156.528900 282.726379,172.605881 
	C275.466339,189.892929 268.139740,207.152069 260.898499,224.446960 
	C253.535583,242.032516 246.323044,259.681427 238.887772,277.236176 
	C234.071274,288.608002 228.973251,299.860626 223.688873,311.010437 
	C222.789398,310.264862 222.101608,309.746460 221.630127,309.075958 
	C204.344193,284.492432 187.102249,259.877930 169.803741,235.303268 
	C147.518860,203.644775 125.199547,172.010513 102.878799,140.377289 
	C83.665901,113.148544 64.442398,85.927269 45.200161,58.719246 
	C32.935291,41.377029 20.596684,24.086813 8.389644,6.704105 
	C7.232322,5.056090 6.779757,2.913160 6.000000,1.000000 
z"/>
<path fill="#ED1C24" opacity="1.000000" stroke="none" 
	d="
M5.600004,1.000000 
	C6.779757,2.913160 7.232322,5.056090 8.389644,6.704105 
	C20.596684,24.086813 32.935291,41.377029 45.200161,58.719246 
	C64.442398,85.927269 83.665901,113.148544 102.878799,140.377289 
	C125.199547,172.010513 147.518860,203.644775 169.803741,235.303268 
	C187.102249,259.877930 204.344193,284.492432 221.630127,309.075958 
	C222.101608,309.746460 222.789398,310.264862 223.846344,311.245117 
	C227.916428,313.510284 227.660492,310.041016 228.320328,308.484009 
	C239.158676,282.909973 249.898056,257.293976 260.649078,231.682953 
	C275.455872,196.410248 290.293060,161.150101 304.952789,125.816330 
	C305.786224,123.807571 305.134277,121.182549 305.173645,118.844337 
	C307.660675,115.383759 309.220276,117.153114 310.361206,119.881119 
	C316.268799,134.006378 322.088867,148.168228 327.984528,162.298508 
	C335.263702,179.744720 342.609070,197.163345 349.885254,214.610809 
	C356.596954,230.704636 363.243591,246.825623 369.940094,262.925812 
	C375.944031,277.360992 381.976807,291.784149 387.959656,306.824158 
	C388.798004,311.129456 391.414398,310.105530 393.833313,309.616791 
	C388.633301,315.328491 393.747192,320.236938 395.611206,324.870667 
	C404.924194,348.021545 414.775177,370.956177 424.455414,393.959076 
	C427.071716,400.176147 426.552795,400.995728 419.755493,400.998016 
	C402.770172,401.003784 385.784851,400.999939 368.000122,400.999939 
	C368.000122,402.774048 368.000092,404.352142 368.000092,405.930206 
	C368.000092,441.415771 367.875000,476.902466 368.194611,512.385132 
	C368.226349,515.909729 370.419373,519.791443 372.544617,522.859497 
	C386.591919,543.138977 400.892731,563.242859 415.115479,583.400818 
	C439.234772,617.585205 463.355042,651.768921 487.479584,685.949646 
	C503.402588,708.510071 519.308655,731.082458 535.267334,753.617615 
	C556.519958,783.628113 577.820129,813.604858 599.088440,843.604248 
	C601.351135,846.795776 603.537476,850.041443 605.947815,853.897339 
	C606.757629,855.355164 607.378784,856.177551 608.000000,857.000000 
	C608.000000,858.066711 608.000000,859.133362 607.647522,860.605347 
	C606.825134,861.021179 606.355164,861.031677 605.885254,861.042175 
	C601.077942,854.670105 596.096375,848.421143 591.492981,841.904968 
	C569.340393,810.547668 547.312134,779.102417 525.196655,747.718811 
	C502.796295,715.930908 480.338837,684.183105 457.918335,652.409302 
	C433.991791,618.501099 410.069183,584.590088 386.168243,550.663818 
	C380.810150,543.058228 375.549438,535.384033 370.003662,527.196960 
	C369.261230,526.344910 368.758942,526.037354 368.256683,525.729797 
	C368.207794,526.168701 368.158905,526.607544 368.109985,527.046448 
	C368.073303,575.682068 368.036407,624.317749 368.000214,672.953369 
	C367.994995,679.996826 367.996613,679.999390 360.909119,679.999573 
	C324.764404,680.000549 288.619202,679.912659 252.475479,680.103638 
	C247.616089,680.129333 245.858276,679.116333 245.880737,673.836060 
	C246.091919,624.200500 246.020554,574.563782 246.320343,524.309570 
	C248.178421,520.737366 245.919891,520.488403 244.075043,519.692505 
	C243.809143,518.458618 243.468185,517.532227 243.127228,516.605835 
	C243.102432,516.424866 243.077652,516.243835 243.475128,515.846558 
	C245.477478,515.422974 248.194550,516.061096 245.882629,512.960083 
	C245.932022,476.949524 245.981415,440.938965 246.280380,404.363403 
	C246.408859,403.198883 246.287750,402.599365 246.166656,401.999878 
	C244.478394,401.666595 242.791534,401.052185 241.101639,401.043640 
	C224.711044,400.960754 208.319916,400.979462 191.484467,400.515076 
	C191.709457,397.670074 192.140488,395.180237 193.085281,392.903595 
	C202.331406,370.623322 211.699219,348.393494 220.888443,326.089935 
	C221.490372,324.628967 220.911743,322.681549 220.882248,320.960419 
	C220.381226,318.608673 220.543427,315.795288 219.277252,313.976105 
	C205.650391,294.397186 191.784058,274.985168 178.011459,255.507507 
	C160.372559,230.562027 142.758591,205.598938 125.135551,180.642273 
	C101.103935,146.610168 77.057259,112.588692 53.048882,78.540199 
	C36.675919,55.320190 20.357393,32.061798 3.906249,8.107392 
	C3.198646,5.262809 2.599323,3.131404 2.000000,1.000000 
	C3.066669,1.000000 4.133338,1.000000 5.600004,1.000000 
z"/>
<path fill="#ED1C24" opacity="1.000000" stroke="none" 
	d="
M242.862579,516.785400 
	C243.468185,517.532227 243.809143,518.458618 244.078552,520.081909 
	C244.018707,521.557434 244.030426,522.336121 244.042130,523.114807 
	C241.412201,526.865906 238.782272,530.617065 235.673157,534.762451 
	C234.476807,536.142578 233.759628,537.128540 233.042450,538.114441 
	C233.042450,538.114441 232.977386,538.566345 232.767181,538.836487 
	C232.408966,539.419006 232.260941,539.731445 232.112915,540.043823 
	C231.767166,540.515381 231.421417,540.986938 230.816315,541.782593 
	C230.408951,542.419006 230.260925,542.731445 230.112930,543.043823 
	C229.530090,544.046875 228.947250,545.049988 227.987061,546.248657 
	C227.344254,546.543579 227.188248,546.735291 227.141724,547.019409 
	C222.651611,553.595886 218.161499,560.172302 213.113174,566.876099 
	C212.290558,567.841248 212.026154,568.679077 211.761719,569.516968 
	C200.888412,584.806580 190.015121,600.096252 178.795715,615.919800 
	C178.140472,616.670288 177.831329,616.886902 177.522186,617.103516 
	C173.170425,623.737793 168.960434,630.470581 164.436569,636.985352 
	C155.682053,649.592712 146.739136,662.069031 137.895081,674.614319 
	C118.797745,701.703796 99.664841,728.768433 80.636566,755.906372 
	C58.238308,787.850708 35.945522,819.869019 13.579173,851.835693 
	C10.577498,856.125732 7.413164,860.302002 4.662071,864.765503 
	C3.723421,865.000000 2.446841,865.000000 1.000000,865.000000 
	C1.000000,862.664368 1.000000,860.326965 1.000007,857.494751 
	C2.402121,856.167358 4.270065,855.666931 5.136469,854.452209 
	C18.135757,836.225342 31.019131,817.915588 43.897690,799.602722 
	C62.692757,772.876770 81.482498,746.147095 100.237350,719.392883 
	C123.684441,685.945068 147.057968,652.445679 170.533569,619.017883 
	C183.588974,600.427917 196.806961,581.952209 209.915146,563.399231 
	C220.837021,547.940674 231.705704,532.444519 242.862579,516.785400 
z"/>
<path fill="#ED1C24" opacity="1.000000" stroke="none" 
	d="
M394.040771,309.429047 
	C391.414398,310.105530 388.798004,311.129456 388.012543,307.191284 
	C391.036041,303.772491 394.364990,300.877228 396.835724,297.376312 
	C408.786041,280.443085 420.414307,263.282898 432.327301,246.322937 
	C453.169800,216.650452 474.201172,187.110641 495.034546,157.431793 
	C518.207214,124.420479 541.236084,91.308174 564.349121,58.254948 
	C577.537415,39.394875 590.768860,20.564972 603.990417,1.360747 
	C605.276611,1.000000 606.553162,1.000000 608.000000,1.000000 
	C608.000000,3.335620 608.000000,5.673077 608.000000,8.505270 
	C606.598694,9.831192 604.731140,10.329975 603.865967,11.543420 
	C590.880066,29.756744 578.025269,48.063564 565.141541,66.349739 
	C546.053467,93.442062 526.914795,120.498970 507.892944,147.637756 
	C484.752686,180.652313 461.734283,213.752274 438.618225,246.783813 
	C426.074982,264.707428 413.446442,282.571411 400.820587,300.437012 
	C400.173004,301.353302 399.187103,302.030487 397.894257,303.073853 
	C397.246307,303.688782 397.062836,304.048828 396.879333,304.408844 
	C396.002319,306.019653 395.125305,307.630493 394.040771,309.429047 
z"/>
<path fill="#ED1C24" opacity="1.000000" stroke="none" 
	d="
M1.500000,1.000000 
	C2.599323,3.131404 3.198646,5.262809 3.878027,7.754657 
	C3.157772,7.861841 2.357459,7.608581 1.278573,7.677660 
	C1.000000,5.666667 1.000000,3.333333 1.500000,1.000000 
z"/>
<path fill="#ED1C24" opacity="1.000000" stroke="none" 
	d="
M608.000000,856.666687 
	C607.378784,856.177551 606.757629,855.355164 606.089355,854.209106 
	C606.506592,854.216370 606.970886,854.547363 607.717529,854.939148 
	C608.000000,855.444458 608.000000,855.888916 608.000000,856.666687 
z"/>
<path fill="#ED1C24" opacity="1.000000" stroke="none" 
	d="
M605.939209,861.367310 
	C606.355164,861.031677 606.825134,861.021179 607.647522,861.005371 
	C608.000000,861.750000 608.000000,862.500000 608.000000,863.625000 
	C607.331055,863.230774 606.662048,862.461609 605.939209,861.367310 
z"/>
<path fill="#ED1C24" opacity="1.000000" stroke="none" 
	d="
M220.575134,321.140869 
	C220.911743,322.681549 221.490372,324.628967 220.888443,326.089935 
	C211.699219,348.393494 202.331406,370.623322 193.085281,392.903595 
	C192.140488,395.180237 191.709457,397.670074 191.020187,400.447144 
	C188.218460,400.871552 187.461258,399.506622 188.480606,397.058655 
	C194.432281,382.765839 200.389069,368.475067 206.379196,354.198364 
	C210.982025,343.228088 215.636520,332.279510 220.575134,321.140869 
z"/>
<path fill="#ED1C24" opacity="1.000000" stroke="none" 
	d="
M245.592667,513.086182 
	C248.194550,516.061096 245.477478,515.422974 243.532547,515.578613 
	C243.879379,514.755432 244.591034,513.983887 245.592667,513.086182 
z"/>
<path fill="#ED1C24" opacity="1.000000" stroke="none" 
	d="
M246.101562,402.331055 
	C246.287750,402.599365 246.408859,403.198883 246.348297,403.899048 
	C246.123260,403.553864 246.079880,403.108063 246.101562,402.331055 
z"/>
<path fill="#ED1C24" opacity="1.000000" stroke="none" 
	d="
M397.297241,304.343811 
	C397.062836,304.048828 397.246307,303.688782 397.736450,302.811768 
	C397.933746,302.956085 397.824463,303.617432 397.297241,304.343811 
z"/>
<path fill="#ED1C24" opacity="1.000000" stroke="none" 
	d="
M244.361237,523.075439 
	C244.030426,522.336121 244.018707,521.557434 244.003510,520.389404 
	C245.919891,520.488403 248.178421,520.737366 246.388260,523.845215 
	C245.671219,523.677734 245.175797,523.356873 244.361237,523.075439 
z"/>
<path fill="#ED1C24" opacity="1.000000" stroke="none" 
	d="
M368.418884,527.029419 
	C368.158905,526.607544 368.207794,526.168701 368.256683,525.729797 
	C368.758942,526.037354 369.261230,526.344910 369.860840,526.883789 
	C369.548035,527.080872 369.137909,527.046631 368.418884,527.029419 
z"/>
<path fill="#ED1C24" opacity="1.000000" stroke="none" 
	d="
M233.328766,537.987793 
	C233.759628,537.128540 234.476807,536.142578 235.513672,535.078003 
	C235.093933,535.953308 234.354507,536.907288 233.328766,537.987793 
z"/>
<path fill="#ED1C24" opacity="1.000000" stroke="none" 
	d="
M211.867157,569.256470 
	C212.026154,568.679077 212.290558,567.841248 212.802216,567.054993 
	C212.690506,567.736389 212.331543,568.366150 211.867157,569.256470 
z"/>
<path fill="#ED1C24" opacity="1.000000" stroke="none" 
	d="
M232.346161,539.960083 
	C232.260941,539.731445 232.408966,539.419006 232.695160,539.053101 
	C232.996292,539.363586 232.911636,539.655823 232.346161,539.960083 
z"/>
<path fill="#ED1C24" opacity="1.000000" stroke="none" 
	d="
M230.346146,542.960083 
	C230.260925,542.731445 230.408951,542.419006 230.695160,542.053101 
	C230.996292,542.363586 230.911636,542.655823 230.346146,542.960083 
z"/>
<path fill="#ED1C24" opacity="1.000000" stroke="none" 
	d="
M227.377853,546.925720 
	C227.188248,546.735291 227.344254,546.543579 227.741028,546.419373 
	C227.786209,546.540344 227.700089,546.686218 227.377853,546.925720 
z"/>
<path fill="#ED1C24" opacity="1.000000" stroke="none" 
	d="
M177.857605,617.088013 
	C177.831329,616.886902 178.140472,616.670288 178.641479,616.240234 
	C178.619919,616.375366 178.406479,616.723938 177.857605,617.088013 
z"/>
<path fill="#ED1C24" opacity="1.000000" stroke="none" 
	d="
M305.062714,119.134705 
	C305.134277,121.182549 305.786224,123.807571 304.952789,125.816330 
	C290.293060,161.150101 275.455872,196.410248 260.649078,231.682953 
	C249.898056,257.293976 239.158676,282.909973 228.320328,308.484009 
	C227.660492,310.041016 227.916428,313.510284 224.158875,311.401367 
	C228.973251,299.860626 234.071274,288.608002 238.887772,277.236176 
	C246.323044,259.681427 253.535583,242.032516 260.898499,224.446960 
	C268.139740,207.152069 275.466339,189.892929 282.726379,172.605881 
	C289.478241,156.528900 296.192535,140.436157 302.921051,124.349396 
	C303.606201,122.711388 304.275269,121.066681 305.062714,119.134705 
z"/>
</svg>